<?xml version="1.0" encoding="UTF-8"?>
<svg width="356px" height="315px" viewBox="0 0 356 315" version="1.1" xmlns="http://www.w3.org/2000/svg" xmlns:xlink="http://www.w3.org/1999/xlink">
    <title>Group 4</title>
    <defs>
        <linearGradient x1="0.00251653046%" y1="50.0526316%" x2="100%" y2="50.0526316%" id="linearGradient-1">
            <stop stop-color="#AEB0B4" offset="0%"></stop>
            <stop stop-color="#C2C4C7" offset="14%"></stop>
            <stop stop-color="#D4D6D9" offset="32%"></stop>
            <stop stop-color="#DADDDF" offset="44%"></stop>
            <stop stop-color="#DADDDF" offset="45%"></stop>
            <stop stop-color="#DADDDF" offset="51%"></stop>
            <stop stop-color="#D8DBDD" offset="76%"></stop>
            <stop stop-color="#D1D4D7" offset="85%"></stop>
            <stop stop-color="#C6C9CC" offset="91%"></stop>
            <stop stop-color="#B5B8BC" offset="96%"></stop>
            <stop stop-color="#A1A3A8" offset="100%"></stop>
        </linearGradient>
        <linearGradient x1="0%" y1="50%" x2="100%" y2="50%" id="linearGradient-2">
            <stop stop-color="#BDBFC2" offset="0%"></stop>
            <stop stop-color="#C2C4C7" offset="5%"></stop>
            <stop stop-color="#D4D6D9" offset="28%"></stop>
            <stop stop-color="#DADDDF" offset="44%"></stop>
            <stop stop-color="#DADDDF" offset="45%"></stop>
            <stop stop-color="#DADDDF" offset="51%"></stop>
            <stop stop-color="#D8DBDD" offset="82%"></stop>
            <stop stop-color="#D2D4D7" offset="92%"></stop>
            <stop stop-color="#C7C9CC" offset="100%"></stop>
        </linearGradient>
    </defs>
    <g id="Page-1" stroke="none" stroke-width="1" fill="none" fill-rule="evenodd">
        <g id="Desktop-HD" transform="translate(-956.000000, -1332.000000)">
            <g id="Group-4" transform="translate(956.000000, 1332.000000)">
                <circle id="Oval" fill="#F4F4F4" cx="178.5" cy="157.5" r="157.5"></circle>
                <g id="laptop_dev" transform="translate(0.000000, 56.000000)" fill-rule="nonzero">
                    <path d="M351.751266,204 L4.25545301,204 C1.90523121,204 0,202.01448 0,199.565217 L356,199.565217 C356,202.011748 354.098864,203.996137 351.751266,204 Z" id="Path" fill="url(#linearGradient-1)"></path>
                    <path d="M351.751266,204 L4.25545301,204 C1.90523121,204 0,202.01448 0,199.565217 L356,199.565217 C356,202.011748 354.098864,203.996137 351.751266,204 Z" id="Path" fill="#000000" opacity="0.5" style="mix-blend-mode: soft-light;"></path>
                    <path d="M40.1222268,0 L314.992201,0 C319.543927,0 323.233831,3.697772 323.233831,8.25920492 L323.233831,195.130435 L31.880597,195.130435 L31.880597,8.25920492 C31.880597,3.697772 35.5705004,0 40.1222268,0 Z" id="Path" fill="#1A1A1A"></path>
                    <rect id="Rectangle" fill="#37393C" x="40.7363184" y="9.75652174" width="273.641791" height="175.617391"></rect>
                    <rect id="Rectangle" fill="url(#linearGradient-2)" x="0" y="194.243478" width="356" height="5.32173913"></rect>
                    <path d="M207.070451,196.904348 L148.026092,196.904348 C146.485137,196.899654 145.237512,195.710744 145.233831,194.243478 L209.880597,194.243478 C209.878821,194.951245 209.581683,195.629321 209.054613,196.128389 C208.527544,196.627458 207.813764,196.906596 207.070451,196.904348 Z" id="Path" fill="#000000" style="mix-blend-mode: soft-light;"></path>
                    <rect id="Rectangle" fill="#3C3C3B" x="40.7363184" y="9.75652174" width="273.641791" height="175.617391"></rect>
                    <rect id="Rectangle" fill="#1D1D1B" x="40.7363184" y="9.75652174" width="78.8159204" height="175.617391"></rect>
                    <rect id="Rectangle" fill="#575756" x="48.7064677" y="44.3478261" width="4.4278607" height="3.54782609"></rect>
                    <rect id="Rectangle" fill="#575756" x="49.5920398" y="38.1391304" width="3.54228856" height="3.54782609"></rect>
                    <rect id="Rectangle" fill="#575756" x="49.5920398" y="31.9304348" width="3.54228856" height="3.54782609"></rect>
                    <rect id="Rectangle" fill="#575756" x="49.5920398" y="25.7217391" width="3.54228856" height="3.54782609"></rect>
                    <rect id="Rectangle" fill="#575756" x="49.5920398" y="18.626087" width="3.54228856" height="3.54782609"></rect>
                    <rect id="Rectangle" fill="#575756" x="48.7064677" y="50.5565217" width="4.4278607" height="3.54782609"></rect>
                    <rect id="Rectangle" fill="#575756" x="48.7064677" y="56.7652174" width="4.4278607" height="3.54782609"></rect>
                    <rect id="Rectangle" fill="#575756" x="48.7064677" y="62.973913" width="4.4278607" height="3.54782609"></rect>
                    <rect id="Rectangle" fill="#575756" x="48.7064677" y="69.1826087" width="4.4278607" height="3.54782609"></rect>
                    <rect id="Rectangle" fill="#575756" x="47.8208955" y="100.226087" width="5.31343284" height="3.54782609"></rect>
                    <rect id="Rectangle" fill="#575756" x="47.8208955" y="106.434783" width="5.31343284" height="3.54782609"></rect>
                    <rect id="Rectangle" fill="#575756" x="47.8208955" y="112.643478" width="5.31343284" height="3.54782609"></rect>
                    <rect id="Rectangle" fill="#575756" x="47.8208955" y="118.852174" width="5.31343284" height="3.54782609"></rect>
                    <rect id="Rectangle" fill="#575756" x="47.8208955" y="125.06087" width="5.31343284" height="3.54782609"></rect>
                    <rect id="Rectangle" fill="#575756" x="47.8208955" y="131.269565" width="5.31343284" height="3.54782609"></rect>
                    <rect id="Rectangle" fill="#575756" x="47.8208955" y="137.478261" width="5.31343284" height="3.54782609"></rect>
                    <rect id="Rectangle" fill="#575756" x="47.8208955" y="143.686957" width="5.31343284" height="3.54782609"></rect>
                    <rect id="Rectangle" fill="#575756" x="47.8208955" y="149.895652" width="5.31343284" height="3.54782609"></rect>
                    <rect id="Rectangle" fill="#575756" x="47.8208955" y="156.104348" width="5.31343284" height="3.54782609"></rect>
                    <rect id="Rectangle" fill="#575756" x="47.8208955" y="162.313043" width="5.31343284" height="3.54782609"></rect>
                    <rect id="Rectangle" fill="#575756" x="47.8208955" y="168.521739" width="5.31343284" height="3.54782609"></rect>
                    <rect id="Rectangle" fill="#575756" x="47.8208955" y="174.730435" width="5.31343284" height="3.54782609"></rect>
                    <rect id="Rectangle" fill="#575756" x="48.7064677" y="75.3913043" width="4.4278607" height="3.54782609"></rect>
                    <rect id="Rectangle" fill="#575756" x="48.7064677" y="81.6" width="4.4278607" height="3.54782609"></rect>
                    <rect id="Rectangle" fill="#575756" x="48.7064677" y="94.0173913" width="4.4278607" height="3.54782609"></rect>
                    <rect id="Rectangle" fill="#575756" x="48.7064677" y="87.8086957" width="4.4278607" height="3.54782609"></rect>
                    <path d="M71.4769715,22.1726482 L57.920269,22.1726482 C57.4825169,22.19393 57.0696064,21.9453491 56.845041,21.5253381 C56.6204756,21.105327 56.6204756,20.5816295 56.845041,20.1616185 C57.0696064,19.7416074 57.4825169,19.4930265 57.920269,19.5143083 L71.4769715,19.5143083 C72.1144126,19.5452983 72.6169154,20.1312145 72.6169154,20.8434783 C72.6169154,21.555742 72.1144126,22.1416582 71.4769715,22.1726482 L71.4769715,22.1726482 Z" id="Path" fill="#29ABE2"></path>
                    <path d="M71.4251174,172.069565 L57.8684149,172.069565 C57.2102031,172.069565 56.6766169,171.473909 56.6766169,170.73913 C56.6766169,170.004352 57.2102031,169.408696 57.8684149,169.408696 L71.4251174,169.408696 C72.0833293,169.408696 72.6169154,170.004352 72.6169154,170.73913 C72.6169154,171.473909 72.0833293,172.069565 71.4251174,172.069565 L71.4251174,172.069565 Z" id="Path" fill="#29ABE2"></path>
                    <path d="M73.2203337,96.6782609 L58.7299151,96.6782609 C58.0849978,96.6782609 57.5621891,96.0826049 57.5621891,95.3478261 C57.5621891,94.6130472 58.0849978,94.0173913 58.7299151,94.0173913 L73.2203337,94.0173913 C73.8652509,94.0173913 74.3880597,94.6130472 74.3880597,95.3478261 C74.3880597,96.0826049 73.8652509,96.6782609 73.2203337,96.6782609 Z" id="Path" fill="#29ABE2"></path>
                    <path d="M97.9725931,22.1726482 L79.0408089,22.1726482 C78.4198545,22.1416582 77.9303483,21.555742 77.9303483,20.8434783 C77.9303483,20.1312145 78.4198545,19.5452983 79.0408089,19.5143083 L97.9725931,19.5143083 C98.3990233,19.4930265 98.8012544,19.7416074 99.0200117,20.1616185 C99.2387689,20.5816295 99.2387689,21.105327 99.0200117,21.5253381 C98.8012544,21.9453491 98.3990233,22.19393 97.9725931,22.1726482 Z" id="Path" fill="#29ABE2"></path>
                    <path d="M89.0847754,28.3813439 L66.7759211,28.3813439 C66.3381934,28.4026257 65.9253058,28.1540448 65.700753,27.7340337 C65.4762001,27.3140226 65.4762001,26.7903252 65.700753,26.3703141 C65.9253058,25.9503031 66.3381934,25.7017221 66.7759211,25.723004 L89.0847754,25.723004 C89.5225032,25.7017221 89.9353907,25.9503031 90.1599436,26.3703141 C90.3844964,26.7903252 90.3844964,27.3140226 90.1599436,27.7340337 C89.9353907,28.1540448 89.5225032,28.4026257 89.0847754,28.3813439 Z" id="Path" fill="#29ABE2"></path>
                    <path d="M89.1316216,90.4695652 L66.7290749,90.4695652 C66.0681355,90.4695652 65.5323383,89.8739093 65.5323383,89.1391304 C65.5323383,88.4043516 66.0681355,87.8086957 66.7290749,87.8086957 L89.1316216,87.8086957 C89.792561,87.8086957 90.3283582,88.4043516 90.3283582,89.1391304 C90.3283582,89.8739093 89.792561,90.4695652 89.1316216,90.4695652 L89.1316216,90.4695652 Z" id="Path" fill="#29ABE2"></path>
                    <path d="M84.6610045,102.885692 L66.7718313,102.885692 C66.3355431,102.906974 65.9240135,102.658393 65.7001991,102.238382 C65.4763847,101.81837 65.4763847,101.294673 65.7001991,100.874662 C65.9240135,100.454651 66.3355431,100.20607 66.7718313,100.227352 L84.6610045,100.227352 C85.0972927,100.20607 85.5088223,100.454651 85.7326367,100.874662 C85.9564511,101.294673 85.9564511,101.81837 85.7326367,102.238382 C85.5088223,102.658393 85.0972927,102.906974 84.6610045,102.885692 L84.6610045,102.885692 Z" id="Path" fill="#29ABE2"></path>
                    <path d="M84.6610045,140.137866 L66.7718313,140.137866 C66.3355431,140.159147 65.9240135,139.910567 65.7001991,139.490555 C65.4763847,139.070544 65.4763847,138.546847 65.7001991,138.126836 C65.9240135,137.706825 66.3355431,137.458244 66.7718313,137.479526 L84.6610045,137.479526 C85.0972927,137.458244 85.5088223,137.706825 85.7326367,138.126836 C85.9564511,138.546847 85.9564511,139.070544 85.7326367,139.490555 C85.5088223,139.910567 85.0972927,140.159147 84.6610045,140.137866 L84.6610045,140.137866 Z" id="Path" fill="#29ABE2"></path>
                    <path d="M87.3426475,165.859605 L66.7469047,165.859605 C66.3193905,165.880887 65.9161368,165.632306 65.6968234,165.212295 C65.47751,164.792284 65.47751,164.268586 65.6968234,163.848575 C65.9161368,163.428564 66.3193905,163.179983 66.7469047,163.201265 L87.3426475,163.201265 C87.7701618,163.179983 88.1734155,163.428564 88.3927289,163.848575 C88.6120423,164.268586 88.6120423,164.792284 88.3927289,165.212295 C88.1734155,165.632306 87.7701618,165.880887 87.3426475,165.859605 L87.3426475,165.859605 Z" id="Path" fill="#29ABE2"></path>
                    <path d="M104.181512,153.433399 L90.5357339,153.433399 C89.9173232,153.373405 89.4427861,152.797943 89.4427861,152.108004 C89.4427861,151.418065 89.9173232,150.842603 90.5357339,150.782609 L104.186047,150.782609 C104.847152,150.782609 105.383085,151.378265 105.383085,152.113043 C105.383085,152.847822 104.847152,153.443478 104.186047,153.443478 L104.181512,153.433399 Z" id="Path" fill="#29ABE2"></path>
                    <path d="M85.6213498,172.069565 L78.209496,172.069565 C77.566239,172.069565 77.0447761,171.473909 77.0447761,170.73913 C77.0447761,170.004352 77.566239,169.408696 78.209496,169.408696 L85.6213498,169.408696 C86.2646068,169.408696 86.7860697,170.004352 86.7860697,170.73913 C86.7860697,171.473909 86.2646068,172.069565 85.6213498,172.069565 L85.6213498,172.069565 Z" id="Path" fill="#29ABE2"></path>
                    <path d="M112.189284,40.8 L92.3778806,40.8 C91.7350486,40.8 91.2139303,40.2043441 91.2139303,39.4695652 C91.2139303,38.7347864 91.7350486,38.1391304 92.3778806,38.1391304 L112.189284,38.1391304 C112.832116,38.1391304 113.353234,38.7347864 113.353234,39.4695652 C113.353234,40.2043441 112.832116,40.8 112.189284,40.8 Z" id="Path" fill="#29ABE2"></path>
                    <path d="M112.144172,53.2161265 L92.4229917,53.2161265 C91.9974151,53.2374083 91.5959892,52.9888274 91.3776699,52.5688163 C91.1593505,52.1488052 91.1593505,51.6251078 91.3776699,51.2050967 C91.5959892,50.7850857 91.9974151,50.5365047 92.4229917,50.5577866 L112.144172,50.5577866 C112.569749,50.5365047 112.971175,50.7850857 113.189494,51.2050967 C113.407814,51.6251078 113.407814,52.1488052 113.189494,52.5688163 C112.971175,52.9888274 112.569749,53.2374083 112.144172,53.2161265 L112.144172,53.2161265 Z" id="Path" fill="#29ABE2"></path>
                    <path d="M112.189284,65.6347826 L92.3778806,65.6347826 C91.7350486,65.6347826 91.2139303,65.0391267 91.2139303,64.3043478 C91.2139303,63.569569 91.7350486,62.973913 92.3778806,62.973913 L112.189284,62.973913 C112.832116,62.973913 113.353234,63.569569 113.353234,64.3043478 C113.353234,65.0391267 112.832116,65.6347826 112.189284,65.6347826 Z" id="Path" fill="#29ABE2"></path>
                    <path d="M112.144172,78.0509091 L92.4229917,78.0509091 C91.9974151,78.0721909 91.5959892,77.82361 91.3776699,77.4035989 C91.1593505,76.9835879 91.1593505,76.4598904 91.3776699,76.0398793 C91.5959892,75.6198683 91.9974151,75.3712873 92.4229917,75.3925692 L112.144172,75.3925692 C112.569749,75.3712873 112.971175,75.6198683 113.189494,76.0398793 C113.407814,76.4598904 113.407814,76.9835879 113.189494,77.4035989 C112.971175,77.82361 112.569749,78.0721909 112.144172,78.0509091 L112.144172,78.0509091 Z" id="Path" fill="#29ABE2"></path>
                    <path d="M92.7179207,34.5913043 L78.1975022,34.5913043 C77.5608692,34.5913043 77.0447761,33.9956484 77.0447761,33.2608696 C77.0447761,32.5260907 77.5608692,31.9304348 78.1975022,31.9304348 L92.7179207,31.9304348 C93.3545537,31.9304348 93.8706468,32.5260907 93.8706468,33.2608696 C93.8706468,33.9956484 93.3545537,34.5913043 92.7179207,34.5913043 Z" id="Path" fill="#29ABE2"></path>
                    <path d="M92.7614623,47.0086957 L78.1539605,47.0086957 C77.5337198,46.9776762 77.0447761,46.3912024 77.0447761,45.6782609 C77.0447761,44.9653194 77.5337198,44.3788455 78.1539605,44.3478261 L92.7614623,44.3478261 C93.3817031,44.3788455 93.8706468,44.9653194 93.8706468,45.6782609 C93.8706468,46.3912024 93.3817031,46.9776762 92.7614623,47.0086957 L92.7614623,47.0086957 Z" id="Path" fill="#29ABE2"></path>
                    <path d="M92.7179207,59.426087 L78.1975022,59.426087 C77.5608692,59.426087 77.0447761,58.830431 77.0447761,58.0956522 C77.0447761,57.3608733 77.5608692,56.7652174 78.1975022,56.7652174 L92.7179207,56.7652174 C93.3545537,56.7652174 93.8706468,57.3608733 93.8706468,58.0956522 C93.8706468,58.830431 93.3545537,59.426087 92.7179207,59.426087 Z" id="Path" fill="#29ABE2"></path>
                    <path d="M92.7179207,71.8434783 L78.1975022,71.8434783 C77.5608692,71.8434783 77.0447761,71.2478223 77.0447761,70.5130435 C77.0447761,69.7782646 77.5608692,69.1826087 78.1975022,69.1826087 L92.7179207,69.1826087 C93.3545537,69.1826087 93.8706468,69.7782646 93.8706468,70.5130435 C93.8706468,71.2478223 93.3545537,71.8434783 92.7179207,71.8434783 Z" id="Path" fill="#29ABE2"></path>
                    <path d="M96.2863979,109.095652 L78.1713135,109.095652 C77.5413692,109.064633 77.0447761,108.478159 77.0447761,107.765217 C77.0447761,107.052276 77.5413692,106.465802 78.1713135,106.434783 L96.2863979,106.434783 C96.9163423,106.465802 97.4129353,107.052276 97.4129353,107.765217 C97.4129353,108.478159 96.9163423,109.064633 96.2863979,109.095652 L96.2863979,109.095652 Z" id="Path" fill="#29ABE2"></path>
                    <path d="M96.2410504,146.347826 L78.2166611,146.347826 C77.5694469,146.347826 77.0447761,145.75217 77.0447761,145.017391 C77.0447761,144.282612 77.5694469,143.686957 78.2166611,143.686957 L96.2410504,143.686957 C96.8882646,143.686957 97.4129353,144.282612 97.4129353,145.017391 C97.4129353,145.75217 96.8882646,146.347826 96.2410504,146.347826 Z" id="Path" fill="#29ABE2"></path>
                    <path d="M84.7066267,178.278261 L66.7262093,178.278261 C66.2996803,178.278261 65.9055512,178.024682 65.6922867,177.613044 C65.4790222,177.201406 65.4790222,176.694247 65.6922867,176.282609 C65.9055512,175.870971 66.2996803,175.617391 66.7262093,175.617391 L84.7066267,175.617391 C85.3659834,175.617391 85.9004975,176.213047 85.9004975,176.947826 C85.9004975,177.682605 85.3659834,178.278261 84.7066267,178.278261 L84.7066267,178.278261 Z" id="Path" fill="#29ABE2"></path>
                    <path d="M96.2863979,159.652174 L78.1713135,159.652174 C77.5413692,159.621154 77.0447761,159.034681 77.0447761,158.321739 C77.0447761,157.608798 77.5413692,157.022324 78.1713135,156.991304 L96.2863979,156.991304 C96.9163423,157.022324 97.4129353,157.608798 97.4129353,158.321739 C97.4129353,159.034681 96.9163423,159.621154 96.2863979,159.652174 L96.2863979,159.652174 Z" id="Path" fill="#29ABE2"></path>
                    <path d="M89.9537498,133.92917 L78.1998703,133.92917 C77.5539574,133.89818 77.0447761,133.312264 77.0447761,132.6 C77.0447761,131.887736 77.5539574,131.30182 78.1998703,131.27083 L89.9537498,131.27083 C90.3973197,131.249548 90.815718,131.498129 91.0432679,131.91814 C91.2708178,132.338151 91.2708178,132.861849 91.0432679,133.28186 C90.815718,133.701871 90.3973197,133.950452 89.9537498,133.92917 L89.9537498,133.92917 Z" id="Path" fill="#29ABE2"></path>
                    <path d="M105.115931,115.304348 L90.5955121,115.304348 C89.9588791,115.304348 89.4427861,114.708692 89.4427861,113.973913 C89.4427861,113.239134 89.9588791,112.643478 90.5955121,112.643478 L105.115931,112.643478 C105.752564,112.643478 106.268657,113.239134 106.268657,113.973913 C106.268657,114.708692 105.752564,115.304348 105.115931,115.304348 L105.115931,115.304348 Z" id="Path" fill="#29ABE2"></path>
                    <path d="M105.115931,127.721739 L90.595512,127.721739 C89.958879,127.721739 89.4427861,127.126083 89.4427861,126.391304 C89.4427861,125.656526 89.958879,125.06087 90.595512,125.06087 L105.115931,125.06087 C105.752564,125.06087 106.268657,125.656526 106.268657,126.391304 C106.268657,127.126083 105.752564,127.721739 105.115931,127.721739 Z" id="Path" fill="#29ABE2"></path>
                    <path d="M96.3067504,84.2608696 L78.1509611,84.2608696 C77.5323976,84.2298501 77.0447761,83.6433763 77.0447761,82.9304348 C77.0447761,82.2174933 77.5323976,81.6310195 78.1509611,81.6 L96.3067504,81.6 C96.9253139,81.6310195 97.4129353,82.2174933 97.4129353,82.9304348 C97.4129353,83.6433763 96.9253139,84.2298501 96.3067504,84.2608696 Z" id="Path" fill="#29ABE2"></path>
                    <path d="M102.427154,96.6782609 L79.1151347,96.6782609 C78.4607952,96.6782609 77.9303483,96.0826049 77.9303483,95.3478261 C77.9303483,94.6130472 78.4607952,94.0173913 79.1151347,94.0173913 L102.427154,94.0173913 C103.081493,94.0173913 103.61194,94.6130472 103.61194,95.3478261 C103.61194,96.0826049 103.081493,96.6782609 102.427154,96.6782609 Z" id="Path" fill="#29ABE2"></path>
                    <rect id="Rectangle" fill="#575756" x="126.636816" y="48.7826087" width="5.31343284" height="4.43478261"></rect>
                    <rect id="Rectangle" fill="#575756" x="127.522388" y="40.8" width="4.4278607" height="4.43478261"></rect>
                    <rect id="Rectangle" fill="#575756" x="127.522388" y="31.9304348" width="4.4278607" height="4.43478261"></rect>
                    <rect id="Rectangle" fill="#575756" x="127.522388" y="23.9478261" width="4.4278607" height="4.43478261"></rect>
                    <rect id="Rectangle" fill="#575756" x="127.522388" y="15.9652174" width="4.4278607" height="4.43478261"></rect>
                    <rect id="Rectangle" fill="#575756" x="126.636816" y="56.7652174" width="5.31343284" height="4.43478261"></rect>
                    <rect id="Rectangle" fill="#575756" x="126.636816" y="64.7478261" width="5.31343284" height="4.43478261"></rect>
                    <rect id="Rectangle" fill="#575756" x="126.636816" y="73.6173913" width="5.31343284" height="4.43478261"></rect>
                    <rect id="Rectangle" fill="#575756" x="126.636816" y="81.6" width="5.31343284" height="4.43478261"></rect>
                    <rect id="Rectangle" fill="#575756" x="125.751244" y="122.4" width="6.19900498" height="4.43478261"></rect>
                    <rect id="Rectangle" fill="#575756" x="125.751244" y="131.269565" width="6.19900498" height="4.43478261"></rect>
                    <rect id="Rectangle" fill="#575756" x="125.751244" y="139.252174" width="6.19900498" height="4.43478261"></rect>
                    <rect id="Rectangle" fill="#575756" x="125.751244" y="147.234783" width="6.19900498" height="4.43478261"></rect>
                    <rect id="Rectangle" fill="#575756" x="125.751244" y="156.104348" width="6.19900498" height="4.43478261"></rect>
                    <rect id="Rectangle" fill="#575756" x="125.751244" y="164.086957" width="6.19900498" height="4.43478261"></rect>
                    <rect id="Rectangle" fill="#575756" x="125.751244" y="172.069565" width="6.19900498" height="4.43478261"></rect>
                    <rect id="Rectangle" fill="#575756" x="126.636816" y="89.5826087" width="5.31343284" height="4.43478261"></rect>
                    <rect id="Rectangle" fill="#575756" x="126.636816" y="98.4521739" width="5.31343284" height="4.43478261"></rect>
                    <rect id="Rectangle" fill="#575756" x="126.636816" y="114.417391" width="5.31343284" height="4.43478261"></rect>
                    <rect id="Rectangle" fill="#575756" x="126.636816" y="106.434783" width="5.31343284" height="4.43478261"></rect>
                    <path d="M156.164637,19.5130435 L138.730886,19.5130435 C137.911723,19.4768546 137.263682,18.6933448 137.263682,17.7391304 C137.263682,16.7849161 137.911723,16.0014063 138.730886,15.9652174 L156.164637,15.9652174 C156.9838,16.0014063 157.631841,16.7849161 157.631841,17.7391304 C157.631841,18.6933448 156.9838,19.4768546 156.164637,19.5130435 L156.164637,19.5130435 Z" id="Path" fill="#29ABE2"></path>
                    <path d="M157.923292,118.852174 L138.743374,118.852174 C137.917239,118.815985 137.263682,118.032475 137.263682,117.078261 C137.263682,116.124047 137.917239,115.340537 138.743374,115.304348 L157.923292,115.304348 C158.749428,115.340537 159.402985,116.124047 159.402985,117.078261 C159.402985,118.032475 158.749428,118.815985 157.923292,118.852174 L157.923292,118.852174 Z" id="Path" fill="#29ABE2"></path>
                    <path d="M190.575941,19.5117622 L165.424059,19.5117622 C164.862169,19.5364065 164.33359,19.2040383 164.046307,18.6454386 C163.759025,18.0868389 163.759025,17.391422 164.046307,16.8328223 C164.33359,16.2742226 164.862169,15.9418544 165.424059,15.9664987 L190.575941,15.9664987 C191.137831,15.9418544 191.66641,16.2742226 191.953693,16.8328223 C192.240975,17.391422 192.240975,18.0868389 191.953693,18.6454386 C191.66641,19.2040383 191.137831,19.5364065 190.575941,19.5117622 Z" id="Path" fill="#29ABE2"></path>
                    <path d="M179.028627,27.4943709 L149.518637,27.4943709 C148.944447,27.5190152 148.404296,27.1866469 148.110725,26.6280473 C147.817155,26.0694476 147.817155,25.3740307 148.110725,24.815431 C148.404296,24.2568313 148.944447,23.9244631 149.518637,23.9491074 L179.028627,23.9491074 C179.602817,23.9244631 180.142967,24.2568313 180.436538,24.815431 C180.730109,25.3740307 180.730109,26.0694476 180.436538,26.6280473 C180.142967,27.1866469 179.602817,27.5190152 179.028627,27.4943709 Z" id="Path" fill="#29ABE2"></path>
                    <path d="M179.028627,109.981327 L149.518637,109.981327 C148.944447,110.005972 148.404296,109.673603 148.110725,109.115004 C147.817155,108.556404 147.817155,107.860987 148.110725,107.302388 C148.404296,106.743788 148.944447,106.41142 149.518637,106.436064 L179.028627,106.436064 C179.602817,106.41142 180.142967,106.743788 180.436538,107.302388 C180.730109,107.860987 180.730109,108.556404 180.436538,109.115004 C180.142967,109.673603 179.602817,110.005972 179.028627,109.981327 L179.028627,109.981327 Z" id="Path" fill="#29ABE2"></path>
                    <path d="M172.966199,126.833501 L149.499652,126.833501 C148.932158,126.858146 148.398306,126.525777 148.108158,125.967178 C147.81801,125.408578 147.81801,124.713161 148.108158,124.154561 C148.398306,123.595962 148.932158,123.263594 149.499652,123.288238 L172.966199,123.288238 C173.798933,123.324401 174.457711,124.107344 174.457711,125.06087 C174.457711,126.014395 173.798933,126.797339 172.966199,126.833501 L172.966199,126.833501 Z" id="Path" fill="#29ABE2"></path>
                    <path d="M172.966199,176.503067 L149.499652,176.503067 C148.932158,176.527711 148.398306,176.195343 148.108158,175.636743 C147.81801,175.078143 147.81801,174.382726 148.108158,173.824127 C148.398306,173.265527 148.932158,172.933159 149.499652,172.957803 L172.966199,172.957803 C173.798933,172.993966 174.457711,173.77691 174.457711,174.730435 C174.457711,175.68396 173.798933,176.466904 172.966199,176.503067 L172.966199,176.503067 Z" id="Path" fill="#29ABE2"></path>
                    <path d="M209.268188,27.4943709 L187.586233,27.4943709 C187.016277,27.5190152 186.48011,27.1866469 186.188704,26.6280473 C185.897298,26.0694476 185.897298,25.3740307 186.188704,24.815431 C186.48011,24.2568313 187.016277,23.9244631 187.586233,23.9491074 L209.268188,23.9491074 C210.104534,23.9852702 210.766169,24.768214 210.766169,25.7217391 C210.766169,26.6752642 210.104534,27.4582081 209.268188,27.4943709 Z" id="Path" fill="#FFFFFF"></path>
                    <path d="M285.420359,61.2 L263.634367,61.2 C262.794094,61.1638111 262.129353,60.3803013 262.129353,59.426087 C262.129353,58.4718726 262.794094,57.6883628 263.634367,57.6521739 L285.420359,57.6521739 C286.260632,57.6883628 286.925373,58.4718726 286.925373,59.426087 C286.925373,60.3803013 286.260632,61.1638111 285.420359,61.2 L285.420359,61.2 Z" id="Path" fill="#29ABE2"></path>
                    <path d="M278.224713,94.01611 L256.542757,94.01611 C255.706411,93.9799472 255.044776,93.1970034 255.044776,92.2434783 C255.044776,91.2899532 255.706411,90.5070093 256.542757,90.4708465 L278.224713,90.4708465 C278.794668,90.4462022 279.330836,90.7785704 279.622242,91.3371701 C279.913648,91.8957698 279.913648,92.5911867 279.622242,93.1497864 C279.330836,93.7083861 278.794668,94.0407543 278.224713,94.01611 L278.224713,94.01611 Z" id="Path" fill="#29ABE2"></path>
                    <path d="M254.432367,159.650893 L232.750412,159.650893 C232.180456,159.675537 231.644289,159.343169 231.352883,158.784569 C231.061477,158.225969 231.061477,157.530552 231.352883,156.971953 C231.644289,156.413353 232.180456,156.080985 232.750412,156.105629 L254.432367,156.105629 C255.268713,156.141792 255.930348,156.924736 255.930348,157.878261 C255.930348,158.831786 255.268713,159.61473 254.432367,159.650893 L254.432367,159.650893 Z" id="Path" fill="#29ABE2"></path>
                    <path d="M248.198885,19.5130435 L237.094647,19.5130435 C236.239052,19.4768546 235.562189,18.6933448 235.562189,17.7391304 C235.562189,16.7849161 236.239052,16.0014063 237.094647,15.9652174 L248.198885,15.9652174 C249.05448,16.0014063 249.731343,16.7849161 249.731343,17.7391304 C249.731343,18.6933448 249.05448,19.4768546 248.198885,19.5130435 Z" id="Path" fill="#29ABE2"></path>
                    <path d="M260.585981,69.1826087 L246.846855,69.1826087 C245.994474,69.1826087 245.303483,68.3884008 245.303483,67.4086957 C245.303483,66.4289905 245.994474,65.6347826 246.846855,65.6347826 L260.585981,65.6347826 C261.438362,65.6347826 262.129353,66.4289905 262.129353,67.4086957 C262.129353,68.3884008 261.438362,69.1826087 260.585981,69.1826087 L260.585981,69.1826087 Z" id="Path" fill="#29ABE2"></path>
                    <path d="M212.811643,102 L198.979401,102 C198.143707,101.963811 197.482587,101.180301 197.482587,100.226087 C197.482587,99.2718726 198.143707,98.4883628 198.979401,98.4521739 L212.811643,98.4521739 C213.647338,98.4883628 214.308458,99.2718726 214.308458,100.226087 C214.308458,101.180301 213.647338,101.963811 212.811643,102 L212.811643,102 Z" id="Path" fill="#FFFFFF"></path>
                    <path d="M212.715762,134.81611 L199.075282,134.81611 C198.513575,134.840754 197.985167,134.508386 197.697979,133.949786 C197.41079,133.391187 197.41079,132.69577 197.697979,132.13717 C197.985167,131.57857 198.513575,131.246202 199.075282,131.270847 L212.715762,131.270847 C213.27747,131.246202 213.805877,131.57857 214.093066,132.13717 C214.380255,132.69577 214.380255,133.391187 214.093066,133.949786 C213.805877,134.508386 213.27747,134.840754 212.715762,134.81611 L212.715762,134.81611 Z" id="Path" fill="#29ABE2"></path>
                    <path d="M285.321584,143.685675 L271.586088,143.685675 C270.756104,143.649512 270.099502,142.866569 270.099502,141.913043 C270.099502,140.959518 270.756104,140.176575 271.586088,140.140412 L285.321584,140.140412 C285.887204,140.115767 286.419292,140.448136 286.708481,141.006735 C286.99767,141.565335 286.99767,142.260752 286.708481,142.819352 C286.419292,143.377951 285.887204,143.71032 285.321584,143.685675 L285.321584,143.685675 Z" id="Path" fill="#29ABE2"></path>
                    <path d="M242.825215,151.668284 L229.184735,151.668284 C228.623028,151.692928 228.09462,151.36056 227.807431,150.80196 C227.520243,150.243361 227.520243,149.547944 227.807431,148.989344 C228.09462,148.430744 228.623028,148.098376 229.184735,148.12302 L242.825215,148.12302 C243.386923,148.098376 243.91533,148.430744 244.202519,148.989344 C244.489708,149.547944 244.489708,150.243361 244.202519,150.80196 C243.91533,151.36056 243.386923,151.692928 242.825215,151.668284 L242.825215,151.668284 Z" id="Path" fill="#FFFFFF"></path>
                    <path d="M227.748385,19.5117622 L199.86495,19.5117622 C199.029269,19.4755994 198.368159,18.6926555 198.368159,17.7391304 C198.368159,16.7856053 199.029269,16.0026615 199.86495,15.9664987 L227.748385,15.9664987 C228.317888,15.9418544 228.853629,16.2742226 229.144803,16.8328223 C229.435978,17.391422 229.435978,18.0868389 229.144803,18.6454386 C228.853629,19.2040383 228.317888,19.5364065 227.748385,19.5117622 Z" id="Path" fill="#FFFFFF"></path>
                    <path d="M218.004092,52.3291535 L194.554297,52.3291535 C193.717064,52.2929907 193.054726,51.5100468 193.054726,50.5565217 C193.054726,49.6029966 193.717064,48.8200528 194.554297,48.78389 L218.004092,48.78389 C218.574653,48.7592457 219.111389,49.0916139 219.403104,49.6502136 C219.694819,50.2088133 219.694819,50.9042302 219.403104,51.4628299 C219.111389,52.0214296 218.574653,52.3537978 218.004092,52.3291535 L218.004092,52.3291535 Z" id="Path" fill="#FFFFFF"></path>
                    <path d="M222.49597,69.1826087 L194.608508,69.1826087 C193.750378,69.1826087 193.054726,68.3884008 193.054726,67.4086957 C193.054726,66.4289905 193.750378,65.6347826 194.608508,65.6347826 L222.49597,65.6347826 C223.3541,65.6347826 224.049751,66.4289905 224.049751,67.4086957 C224.049751,68.3884008 223.3541,69.1826087 222.49597,69.1826087 L222.49597,69.1826087 Z" id="Path" fill="#29ABE2"></path>
                    <path d="M213.69055,85.1465448 L194.676742,85.1465448 C194.104694,85.1711891 193.566559,84.8388209 193.274083,84.2802212 C192.981607,83.7216215 192.981607,83.0262046 193.274083,82.4676049 C193.566559,81.9090052 194.104694,81.576637 194.676742,81.6012813 L213.69055,81.6012813 C214.529966,81.6374441 215.19403,82.4203879 215.19403,83.373913 C215.19403,84.3274381 214.529966,85.110382 213.69055,85.1465448 Z" id="Path" fill="#FFFFFF"></path>
                    <path d="M285.415386,134.81611 L269.957394,134.81611 C269.38287,134.840754 268.842406,134.508386 268.548664,133.949786 C268.254923,133.391187 268.254923,132.69577 268.548664,132.13717 C268.842406,131.57857 269.38287,131.246202 269.957394,131.270847 L285.415386,131.270847 C286.258435,131.307009 286.925373,132.089953 286.925373,133.043478 C286.925373,133.997003 286.258435,134.779947 285.415386,134.81611 Z" id="Path" fill="#29ABE2"></path>
                    <path d="M266.699323,151.668284 L251.24133,151.668284 C250.398281,151.632121 249.731343,150.849177 249.731343,149.895652 C249.731343,148.942127 250.398281,148.159183 251.24133,148.12302 L266.699323,148.12302 C267.273846,148.098376 267.814311,148.430744 268.108052,148.989344 C268.401794,149.547944 268.401794,150.243361 268.108052,150.80196 C267.814311,151.36056 267.273846,151.692928 266.699323,151.668284 L266.699323,151.668284 Z" id="Path" fill="#29ABE2"></path>
                    <path d="M224.19186,159.650893 L208.733868,159.650893 C207.890818,159.61473 207.223881,158.831786 207.223881,157.878261 C207.223881,156.924736 207.890818,156.141792 208.733868,156.105629 L224.19186,156.105629 C224.766384,156.080985 225.306848,156.413353 225.600589,156.971953 C225.894331,157.530552 225.894331,158.225969 225.600589,158.784569 C225.306848,159.343169 224.766384,159.675537 224.19186,159.650893 L224.19186,159.650893 Z" id="Path" fill="#FFFFFF"></path>
                    <path d="M224.309477,118.852174 L205.193011,118.852174 C204.349162,118.815985 203.681592,118.032475 203.681592,117.078261 C203.681592,116.124047 204.349162,115.340537 205.193011,115.304348 L224.309477,115.304348 C225.153325,115.340537 225.820896,116.124047 225.820896,117.078261 C225.820896,118.032475 225.153325,118.815985 224.309477,118.852174 L224.309477,118.852174 Z" id="Path" fill="#29ABE2"></path>
                    <path d="M210.890334,44.3465448 L183.943972,44.3465448 C183.097503,44.310382 182.427861,43.5274381 182.427861,42.573913 C182.427861,41.6203879 183.097503,40.8374441 183.943972,40.8012813 L210.901671,40.8012813 C211.478525,40.776637 212.021181,41.1090052 212.316114,41.6676049 C212.611047,42.2262046 212.611047,42.9216215 212.316114,43.4802212 C212.021181,44.0388209 211.478525,44.3711891 210.901671,44.3465448 L210.890334,44.3465448 Z" id="Path" fill="#FFFFFF"></path>
                    <path d="M240.158715,69.1826087 L230.954201,69.1826087 C230.075507,69.1826087 229.363184,68.3884008 229.363184,67.4086957 C229.363184,66.4289905 230.075507,65.6347826 230.954201,65.6347826 L240.170177,65.6347826 C241.048872,65.6347826 241.761194,66.4289905 241.761194,67.4086957 C241.761194,68.3884008 241.048872,69.1826087 240.170177,69.1826087 L240.158715,69.1826087 Z" id="Path" fill="#FFFFFF"></path>
                    <path d="M210.890334,61.1987187 L183.943972,61.1987187 C183.097503,61.1625559 182.427861,60.3796121 182.427861,59.426087 C182.427861,58.4725619 183.097503,57.689618 183.943972,57.6534552 L210.901671,57.6534552 C211.478525,57.6288109 212.021181,57.9611791 212.316114,58.5197788 C212.611047,59.0783785 212.611047,59.7737954 212.316114,60.3323951 C212.021181,60.8909948 211.478525,61.223363 210.901671,61.1987187 L210.890334,61.1987187 Z" id="Path" fill="#29ABE2"></path>
                    <path d="M210.022444,77.1639361 L183.171586,77.1639361 C182.59697,77.1885804 182.056419,76.8562122 181.76263,76.2976125 C181.468841,75.7390128 181.468841,75.0435959 181.76263,74.4849962 C182.056419,73.9263965 182.59697,73.5940283 183.171586,73.6186726 L210.022444,73.6186726 C210.59706,73.5940283 211.137611,73.9263965 211.4314,74.4849962 C211.725188,75.0435959 211.725188,75.7390128 211.4314,76.2976125 C211.137611,76.8562122 210.59706,77.1885804 210.022444,77.1639361 L210.022444,77.1639361 Z" id="Path" fill="#29ABE2"></path>
                    <path d="M210.048597,94.0033481 L183.819424,94.0033481 C183.030833,93.9183382 182.427861,93.153012 182.427861,92.2370973 C182.427861,91.3211826 183.030833,90.5558564 183.819424,90.4708465 L210.059632,90.4708465 C210.621133,90.4462022 211.149346,90.7785704 211.436429,91.3371701 C211.723512,91.8957698 211.723512,92.5911867 211.436429,93.1497864 C211.149346,93.7083861 210.621133,94.0407543 210.059632,94.01611 L210.048597,94.0033481 Z" id="Path" fill="#29ABE2"></path>
                    <path d="M185.225772,36.3639361 L165.34168,36.3639361 C164.498158,36.3277733 163.830846,35.5448294 163.830846,34.5913043 C163.830846,33.6377792 164.498158,32.8548354 165.34168,32.8186726 L185.225772,32.8186726 C185.800618,32.7940283 186.341385,33.1263965 186.635292,33.6849962 C186.929198,34.2435959 186.929198,34.9390128 186.635292,35.4976125 C186.341385,36.0562122 185.800618,36.3885804 185.225772,36.3639361 L185.225772,36.3639361 Z" id="Path" fill="#29ABE2"></path>
                    <path d="M261.401278,44.3465448 L219.34647,44.3465448 C218.511384,44.310382 217.850746,43.5274381 217.850746,42.573913 C217.850746,41.6203879 218.511384,40.8374441 219.34647,40.8012813 L261.401278,40.8012813 C261.970374,40.776637 262.505733,41.1090052 262.7967,41.6676049 C263.087667,42.2262046 263.087667,42.9216215 262.7967,43.4802212 C262.505733,44.0388209 261.970374,44.3711891 261.401278,44.3465448 Z" id="Path" fill="#29ABE2"></path>
                    <path d="M255.31461,61.1987187 L219.470422,61.1987187 C218.899199,61.223363 218.36184,60.8909948 218.069787,60.3323951 C217.777733,59.7737954 217.777733,59.0783785 218.069787,58.5197788 C218.36184,57.9611791 218.899199,57.6288109 219.470422,57.6534552 L255.31461,57.6534552 C256.152815,57.689618 256.81592,58.4725619 256.81592,59.426087 C256.81592,60.3796121 256.152815,61.1625559 255.31461,61.1987187 L255.31461,61.1987187 Z" id="Path" fill="#FFFFFF"></path>
                    <path d="M247.2251,77.1639361 L218.467408,77.1639361 C217.628688,77.1277733 216.965174,76.3448294 216.965174,75.3913043 C216.965174,74.4377792 217.628688,73.6548354 218.467408,73.6186726 L247.2251,73.6186726 C247.796674,73.5940283 248.334363,73.9263965 248.626596,74.4849962 C248.918829,75.0435959 248.918829,75.7390128 248.626596,76.2976125 C248.334363,76.8562122 247.796674,77.1885804 247.2251,77.1639361 Z" id="Path" fill="#FFFFFF"></path>
                    <path d="M247.2251,94.01611 L218.467408,94.01611 C217.628688,93.9799472 216.965174,93.1970034 216.965174,92.2434783 C216.965174,91.2899532 217.628688,90.5070093 218.467408,90.4708465 L247.2251,90.4708465 C247.796674,90.4462022 248.334363,90.7785704 248.626596,91.3371701 C248.918829,91.8957698 248.918829,92.5911867 248.626596,93.1497864 C248.334363,93.7083861 247.796674,94.0407543 247.2251,94.01611 L247.2251,94.01611 Z" id="Path" fill="#FFFFFF"></path>
                    <path d="M261.50709,118.852174 L232.642164,118.852174 C231.800316,118.815985 231.134328,118.032475 231.134328,117.078261 C231.134328,116.124047 231.800316,115.340537 232.642164,115.304348 L261.50709,115.304348 C262.348938,115.340537 263.014925,116.124047 263.014925,117.078261 C263.014925,118.032475 262.348938,118.815985 261.50709,118.852174 Z" id="Path" fill="#29ABE2"></path>
                    <path d="M252.651368,167.634783 L223.786443,167.634783 C222.944595,167.598594 222.278607,166.815084 222.278607,165.86087 C222.278607,164.906655 222.944595,164.123145 223.786443,164.086957 L252.651368,164.086957 C253.493216,164.123145 254.159204,164.906655 254.159204,165.86087 C254.159204,166.815084 253.493216,167.598594 252.651368,167.634783 Z" id="Path" fill="#29ABE2"></path>
                    <path d="M263.294152,140.140412 L208.833422,140.140412 C208.265773,140.115767 207.731777,140.448136 207.44155,141.006735 C207.151324,141.565335 207.151324,142.260752 207.44155,142.819352 C207.731777,143.377951 208.265773,143.71032 208.833422,143.685675 L263.294152,143.685675 C264.127113,143.649512 264.78607,142.866569 264.78607,141.913043 C264.78607,140.959518 264.127113,140.176575 263.294152,140.140412 Z" id="Path" fill="#FFFFFF"></path>
                    <path d="M261.397622,134.81611 L221.230275,134.81611 C220.663034,134.840754 220.129422,134.508386 219.839404,133.949786 C219.549386,133.391187 219.549386,132.69577 219.839404,132.13717 C220.129422,131.57857 220.663034,131.246202 221.230275,131.270847 L261.406541,131.270847 C261.973782,131.246202 262.507394,131.57857 262.797412,132.13717 C263.08743,132.69577 263.08743,133.391187 262.797412,133.949786 C262.507394,134.508386 261.973782,134.840754 261.406541,134.81611 L261.397622,134.81611 Z" id="Path" fill="#FFFFFF"></path>
                    <path d="M235.724286,36.3639361 L194.663773,36.3639361 C194.096299,36.3885804 193.562467,36.0562122 193.272329,35.4976125 C192.982192,34.9390128 192.982192,34.2435959 193.272329,33.6849962 C193.562467,33.1263965 194.096299,32.7940283 194.663773,32.8186726 L235.724286,32.8186726 C236.291761,32.7940283 236.825593,33.1263965 237.11573,33.6849962 C237.405868,34.2435959 237.405868,34.9390128 237.11573,35.4976125 C236.825593,36.0562122 236.291761,36.3885804 235.724286,36.3639361 Z" id="Path" fill="#FFFFFF"></path>
                    <path d="M185.225772,52.3291535 L165.34168,52.3291535 C164.498158,52.2929907 163.830846,51.5100468 163.830846,50.5565217 C163.830846,49.6029966 164.498158,48.8200528 165.34168,48.78389 L185.225772,48.78389 C185.800618,48.7592457 186.341385,49.0916139 186.635292,49.6502136 C186.929198,50.2088133 186.929198,50.9042302 186.635292,51.4628299 C186.341385,52.0214296 185.800618,52.3537978 185.225772,52.3291535 L185.225772,52.3291535 Z" id="Path" fill="#29ABE2"></path>
                    <path d="M185.287282,69.1826087 L165.399285,69.1826087 C164.53306,69.1826087 163.830846,68.3884008 163.830846,67.4086957 C163.830846,66.4289905 164.53306,65.6347826 165.399285,65.6347826 L185.287282,65.6347826 C186.153507,65.6347826 186.855721,66.4289905 186.855721,67.4086957 C186.855721,68.3884008 186.153507,69.1826087 185.287282,69.1826087 L185.287282,69.1826087 Z" id="Path" fill="#29ABE2"></path>
                    <path d="M185.225772,86.0335013 L165.34168,86.0335013 C164.498158,85.9973385 163.830846,85.2143947 163.830846,84.2608696 C163.830846,83.3073445 164.498158,82.5244006 165.34168,82.4882378 L185.225772,82.4882378 C185.800618,82.4635935 186.341385,82.7959617 186.635292,83.3545614 C186.929198,83.9131611 186.929198,84.608578 186.635292,85.1671777 C186.341385,85.7257774 185.800618,86.0581456 185.225772,86.0335013 L185.225772,86.0335013 Z" id="Path" fill="#29ABE2"></path>
                    <path d="M188.878379,134.817391 L164.464904,134.817391 C163.616471,134.781202 162.945274,133.997693 162.945274,133.043478 C162.945274,132.089264 163.616471,131.305754 164.464904,131.269565 L188.878379,131.269565 C189.726813,131.305754 190.39801,132.089264 190.39801,133.043478 C190.39801,133.997693 189.726813,134.781202 188.878379,134.817391 Z" id="Path" fill="#29ABE2"></path>
                    <path d="M180.789874,167.633501 L165.349129,167.633501 C164.501448,167.597339 163.830846,166.814395 163.830846,165.86087 C163.830846,164.907344 164.501448,164.124401 165.349129,164.088238 L180.789874,164.088238 C181.367555,164.063594 181.910989,164.395962 182.206344,164.954561 C182.5017,165.513161 182.5017,166.208578 182.206344,166.767178 C181.910989,167.325777 181.367555,167.658146 180.789874,167.633501 L180.789874,167.633501 Z" id="Path" fill="#29ABE2"></path>
                    <path d="M214.594158,167.634783 L190.112309,167.634783 C189.282963,167.598594 188.626866,166.815084 188.626866,165.86087 C188.626866,164.906655 189.282963,164.123145 190.112309,164.086957 L214.594158,164.086957 C215.423505,164.123145 216.079602,164.906655 216.079602,165.86087 C216.079602,166.815084 215.423505,167.598594 214.594158,167.634783 Z" id="Path" fill="#FFFFFF"></path>
                    <path d="M200.280499,143.685675 L180.396406,143.685675 C179.552884,143.649512 178.885572,142.866569 178.885572,141.913043 C178.885572,140.959518 179.552884,140.176575 180.396406,140.140412 L200.280499,140.140412 C200.855345,140.115767 201.396112,140.448136 201.690018,141.006735 C201.983924,141.565335 201.983924,142.260752 201.690018,142.819352 C201.396112,143.377951 200.855345,143.71032 200.280499,143.685675 Z" id="Path" fill="#29ABE2"></path>
                    <path d="M200.342008,159.652174 L180.454012,159.652174 C179.587787,159.652174 178.885572,158.857966 178.885572,157.878261 C178.885572,156.898556 179.587787,156.104348 180.454012,156.104348 L200.342008,156.104348 C201.208233,156.104348 201.910448,156.898556 201.910448,157.878261 C201.910448,158.857966 201.208233,159.652174 200.342008,159.652174 L200.342008,159.652174 Z" id="Path" fill="#29ABE2"></path>
                    <path d="M220.657804,151.668284 L192.904385,151.668284 C192.332765,151.692928 191.795032,151.36056 191.502775,150.80196 C191.210518,150.243361 191.210518,149.547944 191.502775,148.989344 C191.795032,148.430744 192.332765,148.098376 192.904385,148.12302 L220.657804,148.12302 C221.229424,148.098376 221.767157,148.430744 222.059414,148.989344 C222.351671,149.547944 222.351671,150.243361 222.059414,150.80196 C221.767157,151.36056 221.229424,151.692928 220.657804,151.668284 L220.657804,151.668284 Z" id="Path" fill="#29ABE2"></path>
                    <path d="M189.791376,102 L165.323052,102 C164.48993,101.963811 163.830846,101.180301 163.830846,100.226087 C163.830846,99.2718726 164.48993,98.4883628 165.323052,98.4521739 L189.791376,98.4521739 C190.624498,98.4883628 191.283582,99.2718726 191.283582,100.226087 C191.283582,101.180301 190.624498,101.963811 189.791376,102 L189.791376,102 Z" id="Path" fill="#FFFFFF"></path>
                    <path d="M196.875982,118.852174 L166.208595,118.852174 C165.375489,118.815985 164.716418,118.032475 164.716418,117.078261 C164.716418,116.124047 165.375489,115.340537 166.208595,115.304348 L196.875982,115.304348 C197.709088,115.340537 198.368159,116.124047 198.368159,117.078261 C198.368159,118.032475 197.709088,118.815985 196.875982,118.852174 L196.875982,118.852174 Z" id="Path" fill="#FFFFFF"></path>
                    <path d="M275.68232,19.5130435 L256.546535,19.5130435 C255.70808,19.4768546 255.044776,18.6933448 255.044776,17.7391304 C255.044776,16.7849161 255.70808,16.0014063 256.546535,15.9652174 L275.68232,15.9652174 C276.520776,16.0014063 277.18408,16.7849161 277.18408,17.7391304 C277.18408,18.6933448 276.520776,19.4768546 275.68232,19.5130435 L275.68232,19.5130435 Z" id="Path" fill="#29ABE2"></path>
                </g>
            </g>
        </g>
    </g>
</svg>