<?xml version="1.0" encoding="UTF-8"?><svg id="Camada_1" xmlns="http://www.w3.org/2000/svg" viewBox="0 0 2005.74 2080.89"><defs><style>.cls-1{fill:#5ca2a6;}.cls-2{fill:#d48d4c;}.cls-3{fill:#908f9b;}.cls-4{fill:#0b082d;}.cls-5{fill:#2d3b4c;}.cls-6{fill:#fbfdfd;}.cls-7{fill:#5c5b6d;}.cls-8{fill:#a8a8b1;}</style></defs><path class="cls-4" d="M1011.84,2078.82c-315.38,0-630.75,0-946.13.03-8.91,0-17.8-.4-26.72,1.53-7.34,1.59-13.32-.29-13.74-9.85-.43-9.76,4.26-15.26,13.48-14.39,37.35,3.5,74.75.49,112.1,1.58,3.19.09,6.41-.04,9.58.29,5.17.54,11.97,4.72,14.86-1.17,2.73-5.59-3.21-11.04-7.26-14.39-19.87-16.48-40.29-32.29-60.54-48.3-35.96-28.41-71.09-57.66-91.12-100.41-23.52-50.17-21.82-99.5,6.26-147.57,5.8-9.92,12-19.61,17.68-29.6,5.76-10.14,8.9-20.36,6.62-32.81-6.53-35.64-1.9-70.09,15.92-102.02,20.48-36.71,28.59-76.08,27.89-117.8-.53-31.3,7.52-61.29,22.03-88.38,34.46-64.32,48.48-134.77,66.54-204.32,21.92-84.41,53.38-165.3,100.17-239.58,34.39-54.59,80.62-96.57,134.8-130.98,63.64-40.42,126.23-82.5,189.63-123.3,18.09-11.64,12.61-28.2,10.06-43.08-12.65-73.85-8.12-145.91,17.16-216.83,22.42-62.89,39.41-127.7,65.9-189.16,21.24-49.29,42.32-98.82,80.83-138.03,24.01-24.44,52.03-43.27,83.34-56.88C903.87,14.82,948.03,1.55,995.06.12c60.16-1.83,114.23,17.25,165.14,47.61,41.69,24.87,79.11,54.06,100.94,99,15.54,31.99,26.51,65.78,37.04,99.63,14.04,45.1,28.04,90.29,34.99,137.18,9.15,61.72,20.65,123.09,26.56,185.32,1.53,16.1,1.01,31.81-.52,47.63-2.72,28.16,11.66,45.34,34.71,58.47,87.13,49.67,173.12,101.05,254.91,159.42,51.2,36.54,87.19,84.01,115.02,139.39,22.51,44.79,48.54,87.8,64.81,135.62,11.41,33.56,11.99,69,19.33,103.27,10.62,49.58,28.52,96.76,44.79,144.54,10.57,31.05,27.86,61.64,25.99,94.55-2.52,44.12,4.62,83.72,24.61,123.41,18.01,35.75,26.39,75.14,17.03,116.27-3.57,15.71,5.57,28.39,14.4,40.27,39.28,52.85,41.5,125,4.66,177.61-13.07,18.67-31.66,32.27-47.37,48.54-24.84,25.72-49.42,51.77-82.26,68.09-9.29,4.61-12.01,15.36-15.47,24.64-1.49,4,1.29,4.94,4.57,5.24,6.34.58,12.66,1.64,19,1.83,39.59,1.2,79.24-2.07,118.81,1.89,6.52.65,10.24,3.1,10.13,9.94-.11,7-4.25,9.46-10.65,9.35-2.88-.05-5.76,0-8.64,0-318.58,0-637.16,0-955.74,0Z"/><path class="cls-1" d="M1529.36,1327.56c11.73,13.68,14.77,30.13,14.67,47.39-.49,88.26-1.57,176.53-1.58,264.79-.02,103.94.68,207.88,1.54,311.82.09,10.59-2,14.11-13.44,14.1-339.03-.25-678.06-.15-1017.1.14-8.43,0-18.04-4.68-25.3,3.92-2.11,1.68-4.13,1.47-6.09-.28-.66-1.32-1.33-2.65-1.99-3.97-4.85-4.62-4.65-10.98-5.6-16.87-.56-3.45-.28-7.02-.29-10.54-.03-188.65,0-377.3-.06-565.96,0-10.4.73-20.51,6.67-29.41,7.81-11.7,19.55-15.79,32.95-16.38,6.07-.27,12.15-.19,18.22-.19,96.24,0,192.49.45,288.73-.1,188.3-1.08,376.57,3.6,564.86,1.66,40.55-.42,81.12-1.29,121.69-1.58,7.38-.05,15.13-4.74,22.11,1.45Z"/><path class="cls-1" d="M1822.07,1661.91c-39.37-4.81-73.95,10.44-108.58,25.74-3.65,1.61-8.83,6.39-11.67,1.63-2.31-3.88,3.23-7.67,6.38-10.74,21.56-21,48.58-31.33,76.82-39.33,7.05-2,13.96-4.52,20.86-7,1.26-.45,2.18-1.85,3.25-2.81-1.35-.57-2.7-1.62-4.06-1.65-12.77-.27-25.55-.48-38.32-.47-16.69.02-21.89-6.69-17.9-22.87,3.05-12.35,10.3-23.34,11.48-36.26l.16.19c-33.67,33.26-64.19,69.24-92.35,107.25-1.82,4.12-5.08,4.39-8.63,2.86-5.34-2.29-8.5-6.6-9.06-12.3-.77-7.8,1.5-14.9,6.19-21.2,19.02-36.26,47.68-65.61,70.92-98.84.73-1.04,1.75-1.88,2.46-2.94,2.07-3.08,6.51-6.85,3.98-9.72-2.28-2.59-5.82,2.18-8.53,3.94-5.87,3.81-11.92,7.64-16.86,12.5-7.66,7.54-12.65,5.46-16.78-3.1-4.26-8.84-2.11-17.12,1.5-25.8,25.23-60.7,63.98-111.79,110.74-157.31,3.36-3.27,5.81-7.47,8.68-11.24-5.91-1.08-8.92,3.9-12.86,6.53-13.82,9.24-27.37,18.88-40.94,28.5-6.19,4.39-9.52,3.68-10.76-4.47-3.86-25.42-16.45-46.11-35.41-63.09-11.11-9.94-12.58-21.24-6.55-34.6,14.45-32.04,30.63-63.32,42.82-96.36.84-2.28.86-4.87,1.26-7.32-2.07,1.24-4.51,2.12-6.16,3.79-13.51,13.61-26.67,27.57-40.32,41.04-18.2,17.97-38.63,32.54-63.74,39.41-6.64,1.82-13.3,3.13-18.76-2.75-5.07-5.47-2.44-11.34-.61-17.14,13.76-43.59,27.55-87.16,41.16-130.79,1.08-3.47,3.86-8.53.73-10.67-3.37-2.3-6.67,2.47-9.46,4.77-34.15,28.23-58.21,64.27-78.99,102.79-7.13,13.22-13.85,26.67-20.75,40.02-2.37,4.59-5.14,10.53-10.43,9.88-4.93-.61-7.3-6.57-8.96-11.56-7-20.99-2.9-40.43,8.64-58.59,28.45-44.79,57.07-89.48,85.62-134.21,10.18-16.95,18.81-34.76,29.04-51.69,12.73-21.08,24.59-42.68,37.31-63.77,2.94-4.87,5.1-12.75,14.06-9.23,15.79,18.78,25.93,40.99,37.4,62.32,21.99,40.89,39.03,84.01,56.98,126.78,13.74,32.74,14.02,67.2,19.76,101.02,10.21,60.06,34.29,115.71,55.92,172.09,11.78,30.69,17.68,61.67,12.95,94.79-3.51,24.58,4.19,47.54,16.76,68.66,17.73,29.78,26.13,62.31,29.09,96.47.94,10.9.44,21.94-3.79,32.14-4.34,10.45-2.77,19.74,2.35,29.34,10.99,20.59,21.88,41.25,32.29,62.14,21.05,42.24,10.05,103.3-25.92,133.92-22.01,18.73-42.17,39.12-62.45,59.52-9.49,9.55-19.82,18.07-30.94,25.72-10.4,7.15-17.58,5.55-24.24-5.56-27.15-45.34-55.77-89.68-93.85-126.96-4.71-4.61-8.62-10.38-15.41-12.49-.29,7.18,4.79,12.1,7.76,17.82,11.37,21.85,23.6,43.3,28.33,67.89,3.22,16.74,2.64,33.17-5.29,48.66-3.83,7.49-9.46,13.72-18.67,12.41-9.55-1.36-16.15-6.86-18.08-17.14-3.9-20.71-7.03-41.66-12.44-61.99-13.34-50.16-43.96-85.77-92.38-105.63-9.75-4-19.12-8.94-28.77-13.19-8.48-3.74-7.78-9.38-1.75-13.74,19.65-14.19,38.16-30.11,59.9-41.26,13.05-6.69,26.84-10.12,41.63-9.18,19.14,1.22,38.34,1.77,57.43,3.46,26.54,2.35,50.48,11.14,69.53,30.74,1.25,1.28,4.1,3.16,4.36,2.91,2.23-2.24-.25-3.92-1.22-5.73-15.01-27.84-39.55-39.47-69.98-41.31-6.33-.38-12.61-1.68-18.91-2.56-4.37-2.26-9.25-4.32-3.81-10.23,28.66-6.47,57.26-13.45,86.98-12.12,22.42,1,42.41,9.23,60.25,22.34,33.73,24.81,60.95,55.28,79.23,93.32,2.67,5.55,4.86,13.13,13.34,10.94,8.37-2.16,9.19-9.67,9.43-16.97.28-8.68-2.89-16.42-7.36-23.46-38.84-61.28-93.51-98.21-166.06-107.45-3-.38-7.77.88-8.22-2.73-.46-3.64,4.35-3.92,7.3-4.69,11.13-2.87,22.31-5.55,33.47-8.31.95-1.14,5.19-1.88.47-3.73Z"/><path class="cls-1" d="M1015.36,370.57c.17,12.79.03,25.59.62,38.36.3,6.53-2.07,8.93-8.45,9.75-45.02,5.79-88.86,18.38-134.02,23.47-32.12,3.63-56.91,20.37-76.36,45.1-29.91,38.02-64.79,71.59-95.83,108.56-14.21,16.92-27.21,34.74-36.38,55.04.43,3.62,2.31,1.09,3.64.85,41.76-46.2,85.06-91.06,123.17-140.45,28.75-37.24,65.58-57.45,113.38-60.73,32.96-2.27,65.48-10.64,98.29-15.72,5.43-.84,14.68-6.28,15.65,5.06.81,9.48,4.77,21.16-13.67,20.91-50.78-.66-99.35,11.88-146.69,29.13-15.83,5.77-31.38,12.96-41.77,27.48.54.19.73.57.59,1.09.02-.03-.49.34-.48.34.01,0,.26.57.29.57.03,0,.39-.53.4-.54,0,0,.66-.11.66-.11,47.95-27.91,100.74-39.03,155.12-44.49,8.79-.88,17.13,1.71,24.79,6.06,1.78,1.01,3.08,2.89,4.6,4.36-1.97.67-3.9,1.72-5.93,1.97-31.08,3.77-62.07,7.95-92.47,15.84-44.64,11.57-83.28,33.06-115.95,65.98-42.89,43.22-83.25,88.44-116.36,139.7-19,29.42-33.64,60.3-29.25,96.97,2.37,19.82,9.78,36.62,24.88,50.23,16.92,15.26,35.7,27.95,53.93,41.44.86.27,1.68.65,2.48,1-.02-.01.79-.04.76-.06.37-.44.46-.92.24-1.45-2.5-3.11-5-6.21-7.5-9.32-.82-3.87.65-5.44,4.57-4.54,26.79,33.76,53.45,67.63,88.23,93.92,2.83,2.14,4.48,6.08,6.16,9.45,1.36,2.71,1.12,5.94-1.55,7.78-2.68,1.84-4.76-.72-6.7-2.17-51.33-38.56-99.17-81.2-146.01-125-16.31-15.25-21.46-36.59-29.93-56.09-3.42-4.48-4.62-9.48-4.72-15.15-.61-35.2,5.17-69.77,10.03-104.43.58-4.12,2.87-7.74,5.16-11.22,9.64-56.98,19.3-113.96,28.86-170.95.52-3.08.17-6.31.23-9.47l.14.16c-12.15,16.96-16.63,37.04-22.69,56.44-3.43,10.97-6.15,22.16-9.32,33.22-.65,2.28-.49,6.14-3.73,5.78-2.94-.32-2.39-4.04-2.84-6.46-6.69-36.6-3.55-72.95,6.54-108.22,28.66-100.19,61.31-198.9,104.88-293.97,41.04-89.53,112.43-135.99,205.49-155.08,14.64-3,29.45-5.22,44.18-7.79,1.83,2.11,1.8,4.68,1.82,7.25.26,43.08,3.86,86.2,1.75,129.22-2.51,51.41-.74,102.79-1.54,154.17-.32,20.61-8.45,37.09-26.77,46.47-37.21,19.06-73.7,39.57-111.79,56.88-2.02.92-4.21,1.48-6.3,2.2-1.16.47-2.3,1.03-3.29,1.84,1.07-.63,2.06-1.42,3.29-1.77,24.03-10.45,49.36-17.57,73.38-27.87,23.77-10.19,46.45-22.8,66.93-38.89,6.13-4.82,10.39-11.07,13.48-18.31,1.32-3.1,2.2-9.34,8.34-4.44,1.18,13.53,5.56,26.96,1.37,40.67Z"/><path class="cls-1" d="M424.9,1313.05c1.03,15.82,2.07,31.64,3.1,47.46-2.78,3.54-6.05,3.1-9.5,1.17-14.51-22.17-28.92-44.41-43.61-66.46-2.84-4.26-4.17-10.08-10.14-11.72-1.13,5.87,2.55,10.36,4.64,15.19,18.58,42.8,36.77,85.78,56.31,128.14,10.99,23.83,9.88,45.61-4.8,67.01-8.3,5.94-16.67,2.4-24.59-.49-15.28-5.56-29.84-12.8-43.83-21.12-10.4-6.18-20.85-12.28-31.05-18.8-.98-.63-2.3-2.02-3.2-1.1-.89.92.48,2.25,1.13,3.25,9.86,15.24,20.34,30.07,29.68,45.64,2.1,3.49,5,6.76,3.8,11.38,18.75,35.41,43.99,66.57,65.51,100.17,2.89,4.52,9.22,9.5,4.01,15.09-5.19,5.57-11.26.92-16.45-2.11-39.75-23.12-79.47-46.3-119.2-69.46-2.13-.53-3.04.14-2.32,2.38,24.53,31.64,54.56,58.12,81.71,87.31,8.45,9.09,16.17,18.87,24.06,28.47,1.43,1.75,4.73,3.8,2.51,6.17-1.04,1.11-5.01.45-7.11-.55-11.22-5.34-22.38-10.84-33.36-16.66-9.3-4.93-18.18-10.65-27.53-15.48-5.75-2.97-10.62-8.27-17.93-7.61,1.83,6.78,7.58,10.79,11.45,16.13,3.36,4.63,7.02,9.05,10.54,13.56-2.39,2.81-5.53,2.76-8.71,2.12-19.77-4.01-39.49-8.23-58.66-14.65-23.54-10.51-48.18-17.72-73.05-24.28-6.67-1.76-13.93-2.23-19.28-7.49-6.25-7.75-15.55-6.24-23.73-7.23-8.81-1.07-17.83.08-26.73-.43-15.48-.88-19.88-7.86-13.64-22.05,9.86-22.43,19.22-45.09,30.16-67.03,10.66-11.8,14.39-26.6,17.9-41.5,0-.95.1-1.88.25-2.81.54-2.32,1.01-4.65,1.27-7.02,15.29-65.31,28.22-131.2,47.65-195.5,25.83-85.46,55.89-169.35,93.1-250.55,10.92-23.84,24.33-46.43,40.39-67.3,2.86-3.72,5.26-8.23,10.82-8.68,6.93,4.12,9.58,11.66,13.84,17.81,29.83,43.06,60.67,85.56,79.23,135.22,1.63,4.36,6,11.55,3.28,12.9-4.16,2.06-6.63-5.16-9.8-8.36-5.16-5.21-9.72-11.02-14.64-16.47-1.23-1.37-3.87-3.58-4.18-3.34-2.3,1.88-.14,3.93.53,5.76,10.1,27.58,20.33,55.12,30.43,82.7,1.2,3.27,1.77,6.77,2.64,10.16,1.44,9.7,5.61,19.79-4.04,27.88-23.71-34.16-47.39-68.34-71.16-102.46-2.87-4.12-6.27-7.87-9.43-11.8l.1-.15c-2.12,4.81,1.04,8.66,2.6,12.63,24.12,61.09,48.37,122.12,72.6,183.16.47,1.19,1.09,2.33,1.4,3.56,1.74,6.89,7.35,15.84,1.97,20.16-3.3,2.66-8.86-7.86-13.62-12.23-1.19-.85-2.33-1.01-3.36.27Z"/><path class="cls-1" d="M622.38,1057.75c-32.84,59.38-60.68,121.22-90.05,182.31-1.59,3.3-2.25,8.9-6.38,8.63-4.08-.26-3.91-5.95-5.11-9.35-36.7-103.62-94.28-195.54-158.63-283.69-3.34-4.58-8.04-8.42-8.61-14.64-.31-3.42,1.33-6.15,3.08-8.87,11.63-18.05,24.11-35.34,39.72-50.34,11.77-11.32,24.87-20.48,40.29-25.26,27.87-8.62,51.15-24.2,72.69-43.38,31.52-28.07,64.02-55.03,96.23-82.32,4.26-3.61,9.2-10.55,15.73-2.27,3.29,17.15-1.66,34.04-1.65,51.11,0,5.31-1.23,10.66-.02,16,1.03,4.57.53,8.81-2.36,12.63,2.41,25.28,14.33,46.21,30.8,64.64,12.77,14.28,26.44,27.77,39.92,41.4,5.21,5.26,8.25,11.1,8.6,18.58,5.26,109.8,10.38,219.6,16.16,329.37.76,14.45-1.76,19.67-17.99,18.81-30.91-1.65-61.98-.51-92.98-.02-9.29.15-11.06-2.65-7.94-11.2,9.49-26.07,21.52-51.35,25.31-79.24.34-2.53.85-5.06.91-7.6.05-2.13-.15-6.01-.73-6.11-3.68-.61-3.38,3.12-4.09,5.15-10.03,28.64-20.38,57.19-29.55,86.11-4.08,12.87-10.74,16.3-23.51,13.11-6.96-1.74-7.72-3.82-6.25-10.24,11.82-51.55,30.65-100.8,48.41-150.42,7.42-20.73,15.56-41.25,19.87-62.97-.64-.62-1.26-.63-1.86.06Z"/><path class="cls-1" d="M1624.46,1032.8c-25.46,49.51-53.69,97.37-85,143.41-1.68,2.47-2.68,7.02-6.35,6.21-4.59-1.01-2.81-5.84-3.01-9.01-6.53-104.93-12.94-209.86-19.43-314.79-.16-2.65.96-5.91-2.39-7.65-.96,2.61-2.48,5.16-2.79,7.85-12.7,111.81-24.74,223.63-18.92,336.52,1.32,25.51-.29,51.1-3.53,76.54-.86,6.75-3.21,9.14-10.18,9.04-24.61-.33-49.23-.38-73.83.18-11.06.25-13.81-4.47-12.76-14.58,6.94-67.05,13.64-134.12,20.33-201.19,1.01-10.17,1.52-20.39,2.26-30.58-1.2-.51,0-5.2-3.37-1.93-14.98,79.37-24.52,159.56-36.12,239.44-.89,6.1-2.41,8.9-9.27,8.79-32.56-.51-65.13-.5-97.7-.75-2.76-.02-6.3.99-7.79-2.15-1.45-3.06,1.5-5.26,3.04-7.55,8.53-12.71,17.14-25.36,25.73-38.04-.25-4.52,2.57-7.74,4.79-11.2,10.48-16.36,22.46-31.68,33.23-47.84.88-1.31,2.15-2.34,3.02-3.69-.55.93-1.39,1.64-1.98,2.51-11.3,16.59-24.15,31.98-36.55,47.73-3.2,4.07-6.81,7.5-11.1,10.31-9.03,11.15-18.49,21.98-26.98,33.52-13.13,17.85-37.74,24.12-57.25,14.02-4.54-2.35-2.36-5.41-1.1-8.03,3.01-6.22,8.54-10.23,13.68-14.56,44.8-37.65,90.67-74.31,126.11-121.55,50.08-66.75,73.81-142.54,73.62-225.64-.15-63.89-1.76-127.78-2.78-191.66-.04-2.33-.28-4.57,2.11-5.84,4.02-2.13,7.27-.16,10.63,1.97,34.59,21.87,69.35,43.47,103.8,65.54,41.18,26.38,82.52,52.55,122.95,80.04,18.39,12.5,35.18,27.53,48.42,45.89,1.5,4.19-.79,7.5-2.74,10.74-19.17,31.88-33.81,65.98-49.15,99.75-2.98,6.57-4.61,14.17-11.64,18.22Z"/><path class="cls-1" d="M190.18,1664.05c-14.31,3.24-28.69,6.26-42.9,9.88-3.58.91-10.15,1.39-9.35,5.56.57,2.99,6.76.03,10.27-.78,18.62-4.31,37.38-4.59,56.24-2.41,2.99.35,7.7.1,8.1,3.59.42,3.66-4.4,3.94-7.14,5.02-34.5,13.61-68.83,27.48-99.85,48.38-22.63,15.25-42.02,33.36-54.93,57.74-2.99,5.65-5.85,11.35-6.46,17.91-.77,8.32,1.99,14.63,10.29,17.28,8.74,2.79,10.77-4.27,13.62-9.95,29.92-59.55,80.85-91.21,143.16-107.6,7.67-2.02,15.61-3.04,23.43-4.52,1.19,1.02,1.62,2.35,1.58,3.88-.47,3.22-2.73,5.12-5.38,6.25-18.4,7.85-34.31,19.47-49.52,32.21-1.46,1.22-3.2,2.1-5,2.77-6.47.69-10.57,5.21-15.26,9.04-27.64,22.58-46.81,50.99-58.9,84.38-.41,1.14-.95,2.23-1.24,3.41,1.24-.59,1.64-1.86,2.3-2.9,9.61-15.01,17.01-31.37,27.81-45.66.57-.61,1.22-1.16,1.87-1.68.31-.26.64-.5.95-.77.58-.53,1.22-1.01,1.84-1.5.28-.27.59-.51.87-.78.52-.58,1.08-1.12,1.63-1.68.25-.31.53-.59.78-.9.76-.96,1.58-1.87,2.46-2.73.64-.58,1.35-1.05,2.12-1.44,13.12-9.71,23.36-22.53,36-32.81,16.61-13.51,33.73-26.17,52.2-37.02,3.51-2.06,8.95-3.16,7.45-9.42.09-.92.43-1.72,1.04-2.41,29.22.2,57.85,4.77,86.15,11.72,1.45.36,3.89,1.13,3.96,1.87.25,2.88-2.6,1.9-4.09,2.29-19.15,5.01-38.34,9.88-57.52,14.81-.92.24-1.88.51-2.7.97-4,2.25-11.37,2.99-10.64,7.6.52,3.25,7.83.75,11.99.13,31.2-4.67,62.09-12.61,94.06-4.88,26.73,6.46,50.3,18.57,70.57,36.96,12.58,11.42,11.13,19.26-4.39,26.55-25.12,11.8-50.89,21.97-72.95,39.84-32.7,26.48-45.52,62.23-50.95,101.9-1.77,12.95-2.54,26.06-3.51,39.11-.34,4.53-1.53,8.13-6.1,9.85-4.52,3.03-9.31,1.39-13.92.54-37.91-7.05-76.03-12.9-113.92-20.11-1.85-.35-3.74-.51-5.62-.7,1.7,1.34,3.81,1.66,5.79,2.27,26,8.05,52.89,11.53,79.7,15.4,12,1.74,23.91,3.92,35.75,6.45,3.62.77,7.7,1.31,9.58,5.42,8.15,21.65,7.28,22.8-15.25,19.07-32.45-5.38-65.49-6.85-97.49-15.2-22.02-5.74-41.9-14.77-58.14-31.55-20.44-21.12-42.71-40.49-61.79-62.93-39.9-46.93-45.01-97.12-15.19-150.78,7.75-13.95,16.45-27.4,25.22-40.75,6.79-10.35,8.68-20.56,4.43-32.62-8.26-23.41-4.18-46.5,3.09-69.54,9.09-28.8,25.78-54.23,35.66-82.65,2.89-8.32,4.29-16.54,3.45-25.36-4.28-44.92,7.82-86.81,24.34-127.76,24.16-59.87,50.76-119.13,60.71-183.43,11.42-73.74,42.05-139.77,76.72-204.48,12.06-22.51,22.85-45.72,36.88-67.21,5.47-8.38,8.39-7.06,12.81.05,2.84,4.57,6.22,8.82,9.35,13.21.34,6.31-2.39,11.6-5.27,16.96-11.49,21.4-23.86,42.31-36.17,63.23-23.2,39.41-37.64,82.49-53.07,125.13-33.4,92.32-59.71,186.82-84.82,281.65-5.49,20.73-6.89,42.21-10.76,63.24-3.45,18.7-9.29,36.68-19.31,52.75-15.85,25.43-28.03,52.27-35.41,81.3-3.09,11.67-6.76,23.22-8.19,35.25-.43,3.59-2.08,8.52,1.56,10.64,3.3,1.93,6.15-2.2,8.9-4.15,27.83-19.81,58.63-26.77,92.31-21.56,3.51.54,6.96,1,9.49,3.88,3.33,6.9,1.68,12.05-5.36,15.31Z"/><path class="cls-1" d="M1015.62,122.94c-.69-30.04-1.07-60.09-2.25-90.1-.36-9.04,2.34-9.9,10.2-7.65,27.65,7.89,55.78,14.07,82.91,23.76,72.51,25.9,122.07,74.3,147.96,147.49,23.92,67.63,44.73,135.97,56.43,206.86,1.56,9.43,2.46,18.98,3.39,28.5.16,1.65-1.08,3.43-1.68,5.15-1.05-1.41-2.46-2.67-3.09-4.25-31.01-77.52-80.57-142.7-135.67-204.21-2.03-2.27-4.62-7.1-6.99-5.24-3.35,2.63.92,6.26,2.65,8.84,35.42,52.84,72.24,104.74,104.06,159.95,23.89,41.45,44.86,84.28,56.08,130.88,8.11,33.65,10.64,68.19,3.48,102.68-.56,2.68-2.13,7.26-3.33,7.29-3.82.12-3.95-4.21-5.27-6.97-.68-1.44-1.28-2.94-1.7-4.48-18.89-67.86-55.23-125.51-104.45-175.09-21.31-21.47-49.06-34.25-74.9-49.39-7.67-4.5-15.91-8.03-23.89-12-2.73.11-4.81-1.49-7.07-2.64,2.03,1.43,4.31,2.58,5.38,5.03.38.88.88,1.7,1.45,2.48,27.5,20.35,55.01,40.69,82.48,61.08,2.22,1.65,6.17,3.35,4.89,6.26-1.62,3.67-5.52,1.31-8.36.57-39.82-10.47-75.84-28.55-108.32-53.85-5.49-4.28-11.83-7.45-17.78-11.14-1.09-.22-1.49.25-1.28,1.3,5.93,8.68,11.91,17.33,17.74,26.08,1.16,1.74,1.73,3.87,2.57,5.82-2.14.13-4.32.58-6.42.32-12.04-1.46-24.05-3.17-36.09-4.62-14.08-1.69-19.66-9.99-19.43-23.62.93-54.73-6.2-109.04-8.49-163.61-2.37-2.81-3.34-6.05-3.33-9.73.02-7.99-1.29-15.95-1.49-23.85-.59-23.94-3.24-47.8-2.65-71.78.06-2.41.86-4.32,2.29-6.11Z"/><path class="cls-5" d="M482.06,1969.44c2.03.09,4.06.19,6.09.28,2.43,4.64,6.52,5.42,11.33,5.42,140.72-.1,281.45.6,422.16-.65,39.92-.35,79.87-.73,119.81-1.28,58.8-.82,117.61-1.69,176.41-1.64,61.04.05,122.12.08,183.11,2.2,38.04,1.32,76.05.46,114.06,1.5,9.67.26,22.1-2.6,26.77,7.95,5.2,11.77,1.1,25.17-5.35,35.68-11.85,19.29-28.73,29.64-53.12,29.6-314.06-.53-628.12-.42-942.18-.51-27.54,0-53-4.33-67.6-32.09-10.72-20.38-9.27-29.73,8.53-46.44Z"/><path class="cls-6" d="M1529.36,1327.56c-43.89,6.58-88.12,3.49-132.14,3.55-288.77.36-577.53-.13-866.3-.33-46.51-.03-52.48,5.96-52.46,52.42.08,185.16.16,370.32.33,555.47,0,8.94.84,17.87,1.29,26.81-4.49-1.78-13.34,6.71-13.32-5.67.02-3.19.14-6.38-.15-9.56-3-140.22-.96-280.46-1.66-420.68-.27-54.29.13-108.59-.36-162.87-.25-28.08,8.1-50.17,36.62-60.45,1.33.04,2.77.44,3.59-1.13l.41-.08c1.38-.89,2.94-.61,4.45-.67,1.15,0,2.29-.02,3.32-.63,114.45.17,228.9.34,343.35.51,10.3.07,20.6.47,30.89-.21,82.88-1.72,165.76-.97,248.65-.04,1.56.8,1.99-.96,3.04-1.34,1.26-.21,2.49-.28,3.57.6,1.23.17,2.46.35,3.69.52,1.38-.31,2.73-.24,4.07.19,104.05-.24,208.09-.37,312.14-.8,21.8-.09,43.57-1.22,61.62,14.37,3.13,2.71,7.06,4.83,5.39,10.04Z"/><path class="cls-5" d="M1213.41,877.27c11.89-2.66,19.15-12.13,27.77-19.38,16.36-13.74,30.64-29.91,48.27-42.2,2.71-1.89,6-6.16,8.91-3.81,2.38,1.93,3.28,6.92,3.17,10.5-.79,25.24-11.36,46.86-25.76,66.91-16.37,22.78-36.54,40.73-63.22,50.92-10.35,3.95-14.86,2.13-16.5-9.52-2.78-19.71-12.4-27.62-29.7-26.61-7.81.46-13.91,3.81-18.58,10.23-11.39,15.66-18.06,32.87-18.82,52.39-.42,10.99-5.56,19.72-15.5,24.77-30.79,15.64-61.69,31.06-92.61,46.46-3.21,1.6-7.38,4.84-10.08.13-2.14-3.73-1.26-8.02,2.87-10.96,38.18-27.11,65.63-64.15,92.55-101.44,27.69-38.37,61.26-71.96,88.35-110.77,13.06-18.71,24.14-38.37,32.92-59.39,2.7-6.46,5.92-16.09,12.81-14.78,8.15,1.56,3.83,11.61,3.47,17.52-1.04,17.16-2.74,34.35-7.8,50.95-.91,2.99-3.07,7.11-.09,8.82,3.6,2.07,5.05-2.58,6.85-4.95,6-7.87,11.83-15.88,17.87-23.72,1.45-1.88,2.79-5.23,5.64-3.87.96.46.71,4.75.08,7.03-6.01,21.84-20.11,38.96-33.29,56.62-6.84,9.16-15.13,17.32-19.56,28.16l-.02-.02Z"/><path class="cls-5" d="M808.48,941.21c-.95,3.68,2.42,9.46-1.83,11.19-4.04,1.65-6.61-4.02-9.39-6.81-24.59-24.69-44.57-52.55-57.39-85.17-1.06-2.68-4.07-6.3-.78-8.68,2.47-1.79,5.17,1.37,7.57,2.84.27.17.51.4.79.54,6.67,3.37,11.58,9.79,19.4,11.18-1.61-8.81-9.26-13.08-14.48-19.14-13.44-15.61-30.07-29.12-33.43-51.28-.34-2.26-2.17-5.12.99-6.54.45-.2,2.6,3.03,3.77,4.8,5.43,8.26,10.59,16.69,16.28,24.77,1.67,2.38,3.98,6.5,7.27,5.01,3.59-1.62,1.03-5.58.57-8.56-1.68-10.99-5.96-21.67-4.34-33.05.34-2.36,1.31-5.94,2.88-6.51,2.84-1.03,3.83,2.61,5.15,4.62,44.45,67.49,103.97,120.63,164.31,173.05,24.09,20.93,47.81,42.28,71.6,63.55,7.52,6.72,9.3,15.41,5.58,24.43-3.91,9.47-12.88,11.78-21.71,10-12.27-2.47-25.06-1.02-36.88-8.15-13.9-8.37-20.66-20.59-27.22-34.46-8.27-17.48-24.61-29.72-32.57-47.96-5.97-13.68-14.67-26.15-22.03-39.23-4.95-8.81-10.62-16.8-22.4-13.23-11.75,3.57-20.35,10.69-21.66,23.97-.28,2.85-.04,5.75-.04,8.84Z"/><path class="cls-1" d="M377.19,1881.6c-20.41,24.96-24.93,55.4-29.4,85.8-2.04,13.91-6.69,24.64-23.53,24.51-4.9-.04-7.08-1.1-7.24-6.1-1.91-58.72,16.51-126.77,88.64-156.75,5.3-2.2,10.27-5.2,15.62-7.25,12.95-4.97,20.04-.25,19.55,13.73-.38,10.82-2.33,21.58-3.47,32.38-.53,5.02-3,5.48-7.18,3.82-3.23-1.28-6.69-2.27-10.13-2.69-3.16-.39-5.49,1.68-6.6,4.58-1.25,3.26.91,4.92,3.63,5.44,9.58,1.8,6.43,6.73,3.49,12.25-12.89,24.24-26.92,47.96-34.82,74.54-8.16,27.45-8.82,54.75,1.61,81.79,2.04,5.29,2.31,8.61-4.31,10.84-28.76,9.69-64.84-10.54-70.9-40.11-1.08-5.25-1.44-10.51,3.83-13.7,5.77-3.49,12.35-3.88,18.47-1.42,5.79,2.32,2.14,7.59,2.71,11.67.91,6.51,3.35,12.81,5.28,19.16.2.65,1.28,1.04,1.95,1.55.57-1.04,1.49-2.02,1.65-3.11,2.9-19.73,12.53-37.69,11.41-58.82-1.68-31.68,5.69-62.19,21.63-90.14.84-2.06-1.18-1.38-1.88-1.96Z"/><path class="cls-1" d="M1340.58,786.28c-2,61.62-30.7,109.68-76.81,148.37-22.04,18.49-45.03,35.98-72.63,45.84-2.48.88-5.69,3.6-7.88,1.01-2.46-2.91-.98-6.77.74-9.89,3.46-6.26,9.67-9.05,15.73-12,32.53-15.84,62.32-35.52,85.25-63.96,37.3-46.27,53.05-97.67,36.03-156.65-19.36-67.09-42.99-132.4-78.07-193.15-12.39-21.46-29.17-37.43-51.76-48.01-46.9-21.95-95.84-35.34-147.71-37.27-8-.3-13.77-1.56-12.51-11.97,1.13-9.27.49-16.63,14.76-14.37,43.33,6.87,86.08,15.8,128.12,28.35,57.45,17.15,92.5,54.78,107.18,113,14.14,56.09,34.85,110.21,52.19,165.35,4.64,14.76,7.55,29.72,7.37,45.35Z"/><path class="cls-1" d="M1689.84,1978.07c1.4,24.96-6.2,48.52-25.19,68.07-3.81,3.92-8.9,8.18-13.09,4.86-3.94-3.12,1.34-7.85,3.81-11.06,16.58-21.63,21.85-44.56,11.88-71.03-6.16-16.37-8.83-34.01-14.34-50.67-11.1-33.54-33.46-56.88-66.5-69.71-2.47-.96-4.94-3.23-7.94-1.19,1.89,2.02,3.48,4.51,5.73,6,13.86,9.22,27.54,18.56,38.96,30.92,22.57,24.42,25.54,53.3,19.88,84.29-3.44,18.81-2.05,38.42-9.1,56.62-3.02,7.8-7.03,15.07-14.09,20.11-3.91-7.34-.24-14.61.35-21.85,4.13-50.22-10.94-94.08-44.11-131.62-7.73-8.75-9.87-17.75-8.94-28.95,1.08-13,.85-26.14.61-39.21-.14-7.3,2.38-7.56,8.42-5.41,71.37,25.44,112,81.78,113.67,159.83Z"/><path class="cls-6" d="M88.88,1624.34c2.75-23.67,12.11-45.55,24.61-64.82,19.75-30.45,28.63-63.34,33.88-98.56,9.3-62.41,30.03-122.08,47.43-182.48,18.93-65.69,41.43-130.21,65.79-194.12,19.48-51.12,50.46-95.99,75.73-143.94,3.39,5.07,6.78,10.15,10.18,15.22-53.65,69.24-80.18,151.41-109.66,231.98-30.87,84.39-53.64,171.18-71.25,259.3-2.25,11.24-5.37,22.31-8.08,33.47-1.35,1.55.01,4.01-1.8,5.4l.07-.22c-4.62,15.25-9.74,30.3-17.47,44.32-10.73,24.2-21.32,48.46-32.27,72.56-3.82,8.4-.19,10.93,7.45,11.53,14.63,1.15,29.48-1.29,43.93,2.37,4.98,1.26,11.15,1.08,13.3,7.58-2.95,4.46-7.62,3.94-11.99,4.02-17.08.3-34.17-.16-51.25.29-3.54-.09-7.04-1.01-10.62-.65-3.09-.02-5.94-.62-7.98-3.23Z"/><path class="cls-1" d="M1149.32,1149.79c-3.84-73.28-7.66-128.47-2.81-183.74,1.07-12.14,2.85-23.96,10.49-34.23,3.5-4.7,6.57-8.89,13.12-6.62,6.61,2.3,6.06,8.05,4.79,12.88-9.68,36.65-10.22,73.87-7.37,111.29,4.54,59.56,10.12,119.08,8.93,178.92-.29,14.69-1.27,29.37-1.84,44.05-.58,15.1-11.97,7.08-18.62,8.43-7.67,1.55-6.67-4.35-6.34-9.23,3.16-46.65,1.38-93.25-.36-121.75Z"/><path class="cls-1" d="M827.44,1090.25c4.16-47.74,2.75-95.54,1.81-143.34-.09-4.81-2.16-12.07,4.02-13.24,6.54-1.23,6.63,6.45,8.2,10.97,14.64,42.3,14.24,86.13,12.43,129.96-2.67,64.5-5.99,128.98-9.1,193.47-.35,7.29.18,14.6-11.38,14.23-10.01-.32-13.54-3.83-13.54-13.68,0-40.92-.31-81.83,3.5-122.65.53-5.7.26-11.48.35-17.22-3.72-5.7-2.5-10.72,2.12-15.26-.04-2.6-.07-5.21-.11-7.81-3.22-5.56-2.66-10.7,1.68-15.43Z"/><path class="cls-1" d="M1309.56,792.64c-14.87-66.38-36.17-130.35-66.51-191.54-22.73-45.86-58.48-74.75-105.15-92.53-31.83-12.13-65.54-17.06-98.02-26.62-3.36-.99-8.71-.59-7.82-6.29.88-5.59,5.8-5.08,9.95-4.89,52.1,2.38,101.81,13.42,148.02,38.77,19.1,10.48,33.74,24.48,45.13,42.98,39.08,63.47,59.59,134.09,79.76,204.85,3.32,11.66,1.54,23.49-2.13,34.97-.93,1.72-2.03,1.57-3.24.31Z"/><path class="cls-1" d="M344.77,929.76c-17.11-11.82-17.66-25.49-.69-40.7,30.52-27.35,63.28-51.9,96.92-75.25,59.64-41.39,121.3-79.63,183.3-117.34,3.86,3.63,3.05,7.57.81,11.61-49.87,36.27-94.74,78.62-142.45,117.53-12.85,10.48-26.79,17.89-43.25,21.38-21.69,4.6-38.76,17.64-53.44,33.66-12.94,14.13-24.54,29.4-35.68,45-1.33,1.87-2.01,5.01-5.52,4.09Z"/><path class="cls-5" d="M722.29,882.43c-1.52,1.51-3.05,3.03-4.57,4.54-17.62-12.73-35.12-25.55-47.38-44.08-20.15-30.46-18.01-62.13-4.76-94.14,7.72-18.65,18.04-35.95,29.84-52.35,1.43-1.99,2.7-5.13,5.7-3.97,2.94,1.13,1.93,4.48,1.79,6.85-1.21,21.31-3.04,42.6-3.79,63.92-1.45,41.46,6.25,81.27,23.17,119.22Z"/><path class="cls-6" d="M1011.56,327.94c-3.71,18.24-17.16,28.51-31.35,38.1-38.37,25.94-81.82,40.19-125.29,54.38-1.52.49-3.04.96-4.56,1.45-1.44-.32-2.8-.83-4.1-1.53,39.43-20.47,78.79-41.1,118.34-61.34,16.77-8.58,27.65-21.44,27.86-40.44,1.06-98.46,1.56-196.94,2.25-295.4,5.23,2.33,3.01,7.17,3.28,10.86,1.03,14.28,1.56,28.6,2.27,42.9.08,1.27.12,2.55.14,3.83,1.27,19.83,2.55,39.67,3.82,59.5,2.77,2.5,4.09,5.63,3.93,9.34-.74,16.86,3.14,33.55,2.04,50.4-.75,11.47,3.21,22.7,1.41,34.18,2.51,28.43,1.76,57,3.51,85.46.2,3.24-.44,6.36-3.55,8.31Z"/><path class="cls-6" d="M344.77,929.76c24.22-37.1,48.35-74.7,95.08-86.54,15.42-3.91,28.46-10.52,40.59-20.37,44.43-36.08,85.92-75.71,132.21-109.54,3.32-2.43,7.09-4.24,10.66-6.33,4.06,7.67,2.46,13.76-5.05,18.22-39.5,33.44-79.08,66.78-118.45,100.37-14.76,12.59-30.61,23.71-49.21,29.06-35.99,10.34-60.78,33.95-80.91,63.96-5.12,7.64-10.71,14.96-16.09,22.43-2.94-3.75-5.88-7.5-8.82-11.24Z"/><path class="cls-1" d="M1677.5,1411.29c3.97-20.95,7.79-42.29,12.17-63.51,1.36-6.57,6.31-8.17,12.63-6.02,17.3,5.88,38.26,35.52,38.03,54.09-.02,1.52-.31,3.39-1.21,4.5-12.94,15.96-28.7,29.91-48.6,33.6-13.78,2.55-10.23-13.45-13.02-22.66Z"/><path class="cls-2" d="M1565.24,1984.7c.03-5.04.06-10.09.09-15.13.2-1.33.51-2.66.2-4.02.83-16.56,1.64-33.11,2.53-49.67.08-1.52.7-3.01,1.07-4.52,1.51.98,3.55,1.6,4.44,2.98,17.05,26.37,33.29,59.4,6.87,88.46-1.95,2.15-3.92,4.94-.74,7.42,3.85,3.01,7.64,2.11,11.17-1.14,3.49-3.21,6.72-11.43,10.03-8.99,4.72,3.47-.51,10.46-1.47,15.94-.27,1.56-.8,3.09-1.25,4.62-12.45,42.48-5.3,36.2-49.07,36.85-2.32.03-5.89,1.55-6.7-1.42-.48-1.75,1.78-4.44,3.16-6.47,4.14-6.06,8.32-12.11,12.75-17.95,10.43-13.75,13.76-28.53,7.02-44.92.28-.69.25-1.37-.1-2.04Z"/><path class="cls-2" d="M471.77,2053.73c-18.56,4.28-37.28-.1-55.93.88-5.27.28-8.82-4.63-11.27-9.35-10.91-21.02-10.6-42.94-5.06-65.22.31-1.23,1.63-2.22,2.48-3.32.65,1.3,1.81,2.58,1.86,3.91.32,7.65.29,15.31.59,22.96.07,1.76.96,3.49,1.47,5.24,1.61-1.36,4.48-2.59,4.62-4.1,1.4-14.31,13.27-16.13,23.3-20.56,6.15-2.72,7.87-.64,8.36,5.23,2.03,24.48,7.55,47.4,29.21,62.77-.09.57.04,1.09.38,1.56Z"/><path class="cls-5" d="M352.84,1512.62c-13.32-20.21-26.7-40.39-39.89-60.69-1.37-2.11-4.72-4.59-1.91-7.28.8-.76,4.64,1.03,6.68,2.29,24.14,14.92,48.04,30.2,74.41,41.13,9.3,3.85,18.71,6.2,28.78,5.77-1.22,21.22-7.04,25.87-28.51,22.14-13.11-2.28-26.21-4.1-39.56-3.36Z"/><path class="cls-1" d="M271.72,2057.62c-16.9-.41-33.91.7-50.54-3.51-13.17-3.34-23.93-10.43-32.18-21.19-2.42-3.16-3.69-6.91-1.33-10.7,2.07-3.33,5.34-2.69,8.6-2.12,31.76,5.55,63.52,11.06,95.29,16.51,4.78.82,9.55,1.54,12.98,5.38,3.51,3.93,6.78,8.87,5.09,13.78-1.75,5.1-7.3,1.6-11.09,1.75-8.93.36-17.89.12-26.83.1Z"/><path class="cls-5" d="M1656.67,1644.96c1.4,6.22-2.3,11.74-2.48,17.67-.27,9.29,3.18,15.26,13.97,12.97.91,6.31,7.36,7.48,10.78,11.52,5.68,6.71,5.62,12.79-2.58,16.01-18.34,7.22-36.89,14.07-55.75,19.75-8.39,2.53-13.6-4.06-11.19-11.74,8.46-27.05,23.55-49.8,47.25-66.18Z"/><path class="cls-1" d="M1750.81,2057.32c-5.73,0-15.61.26-25.46-.12-4.03-.16-8.38-.97-11.94-2.76-5.21-2.63-10.62-7.4-9.49-13.08.91-4.57,7.82-2.32,12.04-2.66,29.47-2.43,57.64-11.13,86.29-17.55,5.05-1.13,11.34-4.53,14.64,1.93,2.84,5.56-1.63,10.36-5.09,14.48-14.99,17.86-35.81,19.13-61,19.77Z"/><path class="cls-1" d="M1006.34,1072.53c.7-10.28,6.34-16.74,14.84-20.08,34.29-13.5,65.42-33.31,98.56-49.08,2.41-1.15,4.77-2.31,7.11-.32,2.48,2.11,3.01,5.27,1.67,7.89-1.55,3.03-3.56,6.54-6.35,8.11-33.05,18.68-63.28,42.37-99.15,56.02-3.27,1.25-6.66,2.26-10.07,3.05-5.01,1.16-7.31-.95-6.61-5.59Z"/><path class="cls-5" d="M995.98,1249.46c-2.26-.61-6.76,1.58-7.32-2.88-.4-3.21,3.49-4.03,6.15-5.01,34.39-12.69,69.06-24.72,101.6-41.88,3.94-2.08,7.69-4.55,11.72-6.46,3.23-1.53,7.15-6.23,9.82-3.12,2.46,2.87-2.24,6.71-4.41,9.6-24.02,31.93-57.78,44.57-96.08,48.01-6.97.63-13.94,1.13-21.47,1.74Z"/><path class="cls-1" d="M976.73,1083.92c-13.02-.36-23.49-3.91-33.15-9.97-20.02-12.56-40.05-25.12-60.06-37.7-1.35-.85-2.75-1.66-3.96-2.69-5.33-4.55-11.24-11.18-6.64-16.95,4.84-6.07,9.89,1.91,14.08,5.11,21.29,16.25,41.64,34.33,69.34,38.72,9.35,1.48,19.08.63,28.64.79,3.44.06,8.82-3,8.93,3.22.1,6.12,2.72,14.11-5.51,17.46-4.03,1.64-8.76,1.55-11.66,2.01Z"/><path class="cls-5" d="M190.18,1664.05c2.96-4.55,5.52-9.21,3.79-14.95,6.33-5.04,13.38-2.16,20.01-1.41,15.98,1.81,31.84,4.65,47.81,6.64,22.32,5.23,44.63,10.47,66.95,15.7,3.63,2.55,9.01,5.42,6.51,10.15-2.93,5.53-9.59,5.61-15.4,4.42-30.54-6.26-61.07-12.57-91.56-19.07-12.66-2.7-25.43-.53-38.11-1.48Z"/><path class="cls-5" d="M1666.48,1589.05c.25,10.49-5.98,17.94-12.34,25.06-10.14,11.36-22.67,20.62-29.9,34.54-2.08,4-5.84,5.19-9.79,3.47-4.25-1.86-6.85-6.38-5.07-10.23,12.75-27.52,27.51-53.69,53.12-71.74,7.29,5.75,8.26,10.37,3.97,18.91Z"/><path class="cls-5" d="M827.44,1090.25c.48,5.26.65,10.48-1.68,15.43-35.51-11.61-71.78-22.06-90.3-59.47l.06-.05c27.77,8.24,53.82,20.2,78.1,36.04,4.46,2.91,9.21,5.38,13.83,8.05Z"/><path class="cls-6" d="M1630.12,1048.17c20.37-42.7,40.81-85.37,60.99-128.16,1.42-3.01,1.84-6.1,5.97-6.05,3.97,6.27,10.15,11.18,11.63,18.98-6.4.09-8.22,5.38-10.73,9.68-20.58,35.28-41.07,70.6-61.59,105.91-2.08,3.59-3.91,7.38-8.1,9.09.61-3.15,1.21-6.3,1.82-9.46Z"/><path class="cls-1" d="M775.86,1280.14c-8.92,0-17.85-.04-26.77.02-4.5.03-5.92-1.61-3.44-5.71.66-1.09,1.24-2.23,1.87-3.34,6.73-11.93,13.17-27.86,27.34-28.06,14.83-.21,20.25,17.46,28.89,28.07,4.09,5.03,4.49,10.04-4.94,9.47-7.62-.46-15.3-.09-22.95-.09,0-.11,0-.23,0-.34Z"/><path class="cls-2" d="M445.2,1942.99c.07,13.57-5.12,17.3-16.21,13.11-18.92-7.16-20.2-10.64-10.66-28.22,6.25-11.51,12.29-23.13,18.59-34.61.81-1.47,2.64-2.37,4-3.53.6,1.67,1.7,3.33,1.73,5.01.35,16.59-.1,33.22,2.54,48.24Z"/><path class="cls-5" d="M443.8,1219.91c1.35-9.29,2.69-18.59,4.04-27.88,21.53,23.38,33.47,50.51,32.34,82.74-.06,1.81-.01,4.64-2.49,4.15-1.73-.34-3.49-2.58-4.47-4.39-9.9-18.16-19.63-36.4-29.42-54.62Z"/><path class="cls-5" d="M869.8,1121.15c.36-17.58,1.59-18.66,14.86-10.76,17.51,10.43,36.53,18.48,52.03,32.15,1.5,1.32,4.85,1.7,3.61,4.6-.31.73-3.58.6-5.37.25-17.19-3.44-34.32-7.24-51.55-10.46-9.98-1.87-16.35-5.84-13.59-15.78Z"/><path class="cls-5" d="M825.87,1113.49c-.71,5.09-1.42,10.17-2.12,15.26-28.42-4.96-54.04-16.58-77.65-32.88-1.9-1.31-5.08-3.01-3.44-5.95,1.47-2.62,4.58-1.32,7-.84,21.07,4.23,40.54,13.22,60.61,20.44,5.09,1.83,9.96,4.37,15.6,3.96Z"/><path class="cls-5" d="M862.25,1261.72c.61-9.28,1.28-19.73,1.99-30.18.15-2.21.13-4.82,2.67-5.59,2.76-.84,3.64,2.03,5.06,3.55,10.4,11.2,16.25,24.97,21.64,38.95,2.94,7.63-1.36,11.7-8.11,13.18-16.08,3.52-23.32-2.5-23.25-19.91Z"/><path class="cls-1" d="M1666.48,1589.05c-.11-6.56-1.08-12.93-3.97-18.91,2.22-6.54,3.46-14.27,10.78-16.87,5.79-2.06,10.06,2.83,13.76,6.67,7.88,8.17.34,14.01-3.96,19.58-4,5.17-9.09,9.84-16.6,9.53Z"/><path class="cls-5" d="M1274.77,1230.37c18.33-23.61,36.64-47.23,55.03-70.79.87-1.11,3.35-2.56,3.56-2.34,1.78,1.81.18,3.54-.83,4.99-16.35,23.47-32.77,46.89-49.17,70.33-2.86-.73-5.73-1.46-8.59-2.19Z"/><path class="cls-5" d="M1713.24,1714.77c-1.28,4.36,1.85,7.08,3.81,10.23-8.96,2.24-17.61-1.46-26.47-1.47-1.16,0-2.31-1.46-3.47-2.25,1.25-.89,2.4-2.3,3.78-2.57,7.42-1.47,14.9-2.66,22.36-3.95Z"/><path class="cls-5" d="M1309.56,792.64c1.08-.1,2.16-.21,3.24-.31,1.19,8.13,3.54,16.25.23,24.41-.75,1.85-.46,5.27-3.52,4.5-2.58-.65-1.82-3.71-1.68-5.84.51-7.59,1.14-15.18,1.73-22.76Z"/><path class="cls-5" d="M418.51,1361.68c3.17-.39,6.33-.78,9.5-1.17-.34,4.17,2.47,10.99-1.74,11.76-3.78.69-6.03-6.2-7.76-10.59Z"/><path class="cls-8" d="M887.2,1304.02c-10.28,2.49-20.58,1.56-30.89.21,10.29-1.7,20.58-1.72,30.89-.21Z"/><path class="cls-5" d="M1405.48,1032.81c.23-4.25-.61-8.7,2.33-12.45,2.17,4.66,1.92,9.5,1.05,14.38-1.12-.64-2.25-1.29-3.37-1.93Z"/><path class="cls-5" d="M284.39,1558.69c-1.04-1.47-2.07-2.95-3.11-4.42,2.7-1.69,3.9.62,5.44,2.04-.77.79-1.55,1.59-2.32,2.38Z"/><path class="cls-5" d="M725.22,896.29c.84,1.36,1.68,2.72,2.52,4.08l.12-.13c-2.64-.07-4.69-1.2-6.12-3.44,1.16-.17,2.32-.34,3.48-.51Z"/><path class="cls-3" d="M1000.39,80.74c-.05-1.28-.1-2.55-.14-3.83.05,1.28.1,2.55.14,3.83Z"/><path class="cls-5" d="M1150.22,1303.95c-1.42,1.17-2.78,1.2-4.07-.19,1.45-1.8,2.8-1.71,4.07.19Z"/><path class="cls-5" d="M1142.45,1303.24c-1.28.12-2.56.23-3.85.35-1.05.65-1.77.39-2.14-.8,2.13-1.66,4.14-1.68,5.99.45Z"/><path class="cls-7" d="M510.64,1304.78c-1.82.08-3.63.16-5.45.24,1.86-.56,3.73-1.12,5.59-1.69.66.39.86.73.6,1.03-.24.28-.48.41-.74.42Z"/><path class="cls-7" d="M504.78,1305.1c-1.2.38-2.39.75-3.59,1.13,1.2-.38,2.39-.75,3.59-1.13Z"/><path class="cls-7" d="M424.9,1313.05c.9-2.92,2.12-1.77,3.36-.27-1.12.09-2.24.18-3.36.27Z"/><path class="cls-8" d="M1136.47,1302.79c.71.27,1.43.53,2.14.8-.92.13-1.84.26-2.76.4-.11-.56.1-.96.62-1.19Z"/><path class="cls-8" d="M510.64,1304.78c.02-.48.07-.97.14-1.44.73.13,1.46.26,2.18.38-.77.35-1.55.71-2.32,1.06Z"/><path class="cls-5" d="M735.47,1046.21c-.19-.11-.39-.22-.58-.33.21.09.43.19.64.28,0,0-.06.05-.06.05Z"/><path class="cls-4" d="M1833.92,1903.42c-4.68,20.57,7.45,31.66,21.77,41.48,3.98,2.73,8.22,3.32,12.4.17,1.61-1.22,3.2-4.3,5.24-1.36.97,1.4.62,4.39-.16,6.22-5.25,12.22-18.9,14.67-28.08,5.5-17.99-17.97-28.55-38.03-26.15-64.99,2.01-22.53-9.29-41.38-25.22-56.97-24.06-23.54-54.14-38.33-82.22-56.02-3.97-2.5-7.58-5.6-11.35-8.42,5.34-2,9.68,1.46,14.19,3.01,31.08,10.66,60.84,23.91,83.86,48.4,22.01,23.42,34.58,51.07,35.72,82.98Z"/><path class="cls-4" d="M1823.6,1725.3c23.26,4.98,39.63,20.26,50.93,39.96,22.24,38.78,42.14,78.83,58.06,120.72,1.24,3.26,4.71,8.1,1.11,10.09-2.49,1.38-4.49-4.43-6.11-7.36-19.99-36.02-40.37-71.82-59.56-108.26-10.85-20.6-23.55-38.66-45.23-48.91-2.04-.97-5.16-1.87-4.8-5.02.06-.56,3.27-.74,5.61-1.22Z"/><path class="cls-4" d="M1866.59,1639.04c15.69.79,29.82,4.84,43.75,9.5,5.6,1.87,7.71.61,7.58-5.26-.04-1.9-1.62-4.94,1.32-5.54.92-.19,3.03,2.94,3.8,4.87,1.76,4.4,3.69,8.89,4.36,13.52,1.25,8.72,1.31,19.73-5.13,24.23-5.56,3.89-11.59-6.21-17.28-10.14-12.62-8.73-25.08-17.61-39.19-23.88-3.08-1.37-5.89-3.36-8.82-5.06,2.74-4.45,7.17-.53,9.62-2.24Z"/><path class="cls-4" d="M1760.51,1568.34c.08-.27.12-.58.27-.8.07-.1.38-.03.58-.04-.34.22-.68.44-1.02.66,0,0,.16.19.16.19Z"/><path class="cls-4" d="M1816.06,1349.44c-.4.42-.81.85-1.21,1.27-.64-1.73.4-1.39,1.38-1.13,0,0-.17-.13-.17-.13Z"/><path class="cls-4" d="M1816.23,1349.57c.19-.38.38-.75.56-1.13,0,.19.1.47,0,.55-.2.19-.49.3-.75.44,0,0,.18.14.18.14Z"/><path class="cls-6" d="M773.76,418.44c.79,5.01-2.1,8.75-5.09,11.85-36.81,37.99-61.79,83.51-83.9,130.9-1.26,2.71-2.25,8.17-5,7-2.82-1.2.7-5.42,1.7-8.16,18-49.35,40-96.28,80.62-131.79,3.82-3.34,7.85-6.45,11.78-9.66l-.11-.14Z"/><path class="cls-6" d="M971.63,285.37c-4.02,9.79-10.26,17.04-18.4,22.4-22.82,15.03-48.01,25.29-73.13,35.65-9.45,3.9-18.88,7.86-28.38,11.64-1.86.74-4.64,3.1-5.83.64-1.07-2.22,2.21-3.43,4.11-4.43,23.17-12.24,46.41-24.36,69.56-36.64,16.06-8.52,32.82-15.96,45.82-29.33,1.23-1.26,3.27-1.74,4.93-2.58.5,1,1,2,1.33,2.65Z"/><path class="cls-8" d="M846.26,420.34c1.37.51,2.74,1.01,4.1,1.52-3,.86-5.96,4.18-8.94,1.32-.69-.67,2.68-2.59,4.84-2.84Z"/><path class="cls-4" d="M672.19,499.24c.14-.27.28-.55.42-.82-.19.22-.37.45-.56.67,0,0,.14.16.14.16Z"/><polygon class="cls-4" points="814.13 522.17 813.61 522.65 814.27 522.3 814.13 522.17"/><path class="cls-4" d="M816.05,520.23c-.64.65-1.28,1.29-1.92,1.94,0,0,.14.13.14.13.66-.64,1.31-1.28,1.97-1.92l-.19-.15Z"/><path class="cls-4" d="M816.24,520.38c.24-1,.47-1.99.7-2.99.48.45.96.9,1.45,1.35-.78.5-1.56,1-2.34,1.49,0,0,.19.15.19.15Z"/><path class="cls-6" d="M773.87,418.58c.17-.18.34-.35.51-.53-.2.13-.41.26-.61.39,0,0,.1.14.1.14Z"/><polygon class="cls-5" points="727.74 900.36 728.31 900.79 727.86 900.24 727.74 900.36"/><path class="cls-4" d="M261.79,1654.33c-15.1,5.89-29.64-1.61-44.49-1.98-7.8-.2-15.55-2.11-23.33-3.24-39.77-5.86-76.39.34-107.51,27.89-4.79,4.24-7.4,2.65-7.48-3.47-.22-17.09,2.44-33.62,9.88-49.18,2.5.05,4.99.1,7.48.15,3.2.42,6.4,1.02,9.53-.36,21.61-.07,43.22-.14,64.82-.21,21.27,6.31,42.65,12.32,63.79,19.08,9.35,2.99,18.21,7.5,27.29,11.32Z"/><path class="cls-6" d="M318.62,1251.24c-.17.4-.51,2.25-1.06,2.32-2.65.32-2.77-2.22-3.35-3.84-6.88-19.27-13.66-38.58-20.45-57.88-4.14-11.76-8.32-23.51-12.28-35.33-.5-1.49.2-3.39.35-5.1.89.78,2.16,1.38,2.6,2.35,14.05,31.27,25.81,63.35,34.2,97.49Z"/><path class="cls-1" d="M267.98,1407.07c.05,3.92-2.28,3.8-3.86,3.05-2.24-1.05-4.28-2.7-6.1-4.42-3.65-3.46-7.1-7.15-10.62-10.74.77-.21,1.83-.85,2.26-.56,6.29,4.24,12.49,8.6,18.33,12.67Z"/><path class="cls-4" d="M363.31,1105.5c-.23.05-.47.11-.7.16.2,0,.4,0,.6,0,0,0,.1-.16.1-.15Z"/><path class="cls-4" d="M1587.6,1005.64c-15.49-36.5-8.38-74.89-9.37-112.6-.25-9.57.11-19.15.37-28.73.04-1.59-.98-4.08,1.81-4.46.27-.04,1.08,2.72,1.37,4.24,7.19,38.41,9.85,77.2,9.94,116.22.01,5.71-.58,11.54,2.35,16.86,1.6,3.26.39,5.78-2.12,7.94-1.38.75-2.84.82-4.34.52Z"/><path class="cls-6" d="M1591.45,1003.87c.87-2.23,1.74-4.46,2.62-6.69,2.74.46,5.44-4.13,7.62-.97,1.34,1.94,1.28,5.81.34,8.22-13.89,35.63-28.01,71.16-42.18,106.68-.47,1.19-2.75,2.92-3,2.74-2.45-1.77-.76-3.99-.08-5.9,8.71-24.63,17.6-49.21,26.21-73.88,2.09-5.99,3.34-12.27,4.98-18.42,1.43-3.85.52-8.39,3.5-11.78Z"/><path class="cls-3" d="M1591.45,1003.87c.16,4.32-1.15,8.21-3.5,11.79-.12-3.35-.23-6.69-.35-10.02,1.28-.58,2.57-1.17,3.85-1.76Z"/><path class="cls-6" d="M142.24,1788.81c10.93-14.02,21.87-28.04,32.8-42.05,14.7-8.11,25.39-21.9,41.05-28.7,6.34-2.75,12.34-6.32,18.49-9.52,2-.51,3.99-1.02,5.98-1.53,2.34,1.91,8.16,3.51,1.69,6.96-36.51,19.45-67.15,46.41-96.81,74.7-.58.56-2.12.12-3.21.15Z"/><path class="cls-6" d="M275.06,1920.28c-5.84-36.55,18.52-55.34,43.38-73.8.87-.64,2.81-1.2,3.29-.76,1.69,1.59-.3,2.67-1.09,3.87-.34.52-.83.98-1.33,1.37-28.13,21.83-38.91,50.92-36.47,85.83.21,3.02,2.19,9.31-3.35,9.19-5.18-.11-2.83-6.09-3.32-9.47-.77-5.35-.78-10.81-1.1-16.23Z"/><path class="cls-4" d="M1070.93,394.04c-.35-.48-.71-.97-1.06-1.45.78.05,1.56.1,2.34.15-.41.44-.84.87-1.28,1.3Z"/><path class="cls-4" d="M1213.41,877.27c-.09.2-.18.4-.27.6.1-.19.2-.39.3-.58,0,0-.02-.02-.02-.02Z"/><path class="cls-4" d="M771.99,869.57c-.22-.09-.43-.18-.65-.27.2.11.39.22.59.32l.06-.06Z"/><polygon class="cls-4" points="773.86 871.57 774.3 871.97 773.93 871.5 773.86 871.57"/><path class="cls-4" d="M771.93,869.63c.64.65,1.28,1.29,1.93,1.94,0,0,.07-.07.07-.07-.65-.64-1.29-1.29-1.94-1.93,0,0-.06.06-.06.06Z"/><path class="cls-4" d="M377.19,1881.6c.88-.6,2.38-1.85,2.53-1.7,1.42,1.39.48,2.58-.65,3.66-.63-.65-1.25-1.3-1.88-1.96Z"/><polygon class="cls-4" points="1575.39 1845.96 1575.17 1845.51 1575.68 1845.55 1575.39 1845.96"/><path class="cls-1" d="M105.89,1624.13c-3.1,2.08-6.31,1.51-9.53.36,3.18-.12,6.36-.24,9.53-.36Z"/></svg>