<?xml version="1.0" encoding="UTF-8"?>
<svg width="875px" height="560px" viewBox="0 0 875 560" version="1.1" xmlns="http://www.w3.org/2000/svg" xmlns:xlink="http://www.w3.org/1999/xlink">
    <title>Group 2</title>
    <g id="Page-1" stroke="none" stroke-width="1" fill="none" fill-rule="evenodd">
        <g id="Desktop-HD" transform="translate(-287.000000, -89.000000)">
            <g id="Group-2" transform="translate(287.000000, 89.000000)">
                <g id="Asset-1" transform="translate(78.000000, 0.000000)" fill-rule="nonzero">
                    <path d="M629,279.977042 C629,379.805433 576.843813,467.428317 498.331043,517 L200.668957,517 C122.158337,467.428317 70,379.805433 70,279.977042 C70,125.350958 195.137859,0 349.501075,0 C503.864291,0 629,125.350958 629,279.977042 Z" id="Path" fill="#37DBFF"></path>
                    <path d="M485.970215,443.642003 C486.314145,450.926402 483.667633,458.034228 478.64679,463.310774 C473.625948,468.587319 466.668846,471.572203 459.395104,471.570541 L459.395104,500 L402.501967,498.55985 L373.458859,497.808468 L257,494.848281 L265.937335,444.456001 L287.888722,444.456001 L316.979209,382.55332 C321.891642,371.646129 330.721767,362.994369 341.710861,358.321239 L379.973422,342.045605 C382.113873,344.906931 384.977759,347.143141 388.268992,348.52304 C388.85073,348.770604 389.445246,348.986826 390.049998,349.170783 C390.971173,349.452699 391.911026,349.66915 392.862567,349.818527 L392.877642,349.818527 C393.523714,349.928643 394.169787,349.991258 394.815859,350.034441 C395.246574,350.064669 395.677289,350.081942 396.108004,350.081942 C396.341138,350.107094 396.575643,350.117191 396.810069,350.11217 C398.168975,350.159671 399.545109,350.159671 400.901861,350.11217 C401.547934,350.097056 402.194006,350.081942 402.855154,350.034441 C403.516301,349.98694 404.166681,349.924325 404.808446,349.818527 C405.755649,349.668659 406.691171,349.452211 407.608093,349.170783 C408.213434,348.986478 408.808649,348.770263 409.391253,348.52304 C414.848182,346.243294 419.018054,341.657853 420.779356,336 L465.461724,361.564274 C476.070202,367.633353 482.847882,378.718432 483.428997,390.950234 L485.970215,443.642003 Z" id="Path" fill="#2ECC71"></path>
                    <g id="Group" opacity="0.55" transform="translate(264.000000, 342.000000)" fill="#FFFFFF">
                        <path d="M125.831712,7.3046875 L83.8676712,24.0904297 C72.8578948,28.7396705 64.0113056,37.348749 59.0905479,48.2023437 L32.4665753,104.474219 C30.9283542,107.724875 27.64361,109.798047 24.0349315,109.798047 L0.114349315,109.798047 L1.49085616,102.098047 L23.4826027,102.098047 L52.6265753,40.5023437 C57.5480405,29.649242 66.3944009,21.0403862 77.4036986,16.3904297 L115.73661,0.195507812 C117.880996,3.04264372 120.750147,5.26776424 124.047432,6.64082031 C124.629848,6.89370809 125.225463,7.1153153 125.831712,7.3046875 L125.831712,7.3046875 Z" id="Path"></path>
                    </g>
                    <path d="M422,313 L422,330.684754 C422.007665,332.734641 421.695498,334.773062 421.074747,336.725628 C419.302847,342.4341 415.107883,347.060565 409.618118,349.360707 C409.032009,349.610142 408.433212,349.828292 407.824228,350.014246 C406.901789,350.298192 405.960638,350.516577 405.007735,350.667785 C404.357775,350.778886 403.707815,350.842062 403.042689,350.885631 C402.377563,350.9292 401.742769,350.948806 401.077643,350.964055 C399.710561,351.011982 398.326146,351.011982 396.96123,350.964055 C396.725077,350.964055 396.491092,350.948806 396.25494,350.933557 C395.821633,350.933557 395.388326,350.916129 394.95502,350.885631 C394.30506,350.837705 393.655099,350.774529 393.005139,350.667785 C392.989974,350.652535 392.989974,350.667785 392.989974,350.667785 C392.032707,350.517071 391.087198,350.298684 390.160481,350.014246 C389.562518,349.822541 388.966721,349.602517 388.368758,349.360707 C385.05772,347.968463 382.176601,345.712246 380.023271,342.825322 C377.406832,339.338326 375.994174,335.087726 376,330.719609 C385.886633,332.064446 395.772525,330.09439 405.657695,324.809442 C406.112667,324.57199 406.55464,324.319288 407.009612,324.051337 C407.464584,323.783386 407.841561,323.576432 408.266201,323.323731 C408.864165,322.977355 409.444796,322.628802 410.027593,322.249749 L411.394676,321.347866 C415.134446,318.838701 418.679664,316.048084 422,313 Z" id="Path" fill="#FBD6A2"></path>
                    <g id="Group" opacity="0.3" transform="translate(396.000000, 313.000000)" fill="#1E276A">
                        <path d="M25.8419763,0.0195428571 L25.8419763,17.6472 C25.8496418,19.6904691 25.5374552,21.7223095 24.9166667,23.6685714 C23.1446573,29.358613 18.9494359,33.9701412 13.4593333,36.2628571 C12.8731879,36.5114869 12.2743547,36.7289323 11.6653333,36.9142857 C10.7428376,37.1973149 9.80162832,37.4149944 8.84866667,37.5657143 C8.19866667,37.6764571 7.54866667,37.7394286 6.8835,37.7828571 C6.21833333,37.8262857 5.5835,37.8458286 4.91833333,37.8610286 C3.55116667,37.9088 2.16666667,37.9088 0.801666667,37.8610286 C0.5655,37.8610286 0.3315,37.8458286 0.0953333333,37.8306286 C5.94785767,34.1568201 9.49969583,27.7210683 9.49433333,20.8001143 L9.49433333,11.7582857 C9.94933333,11.5216 10.3913333,11.2697143 10.8463333,11.0026286 C11.2796667,10.7854857 11.6783333,10.5292571 12.103,10.2773714 C12.701,9.93211429 13.2816667,9.58468571 13.8645,9.20685714 C14.3195,8.9224 14.7766667,8.62274286 15.2316667,8.30788571 C18.9720422,5.81743152 22.5189017,3.04673163 25.8419763,0.0195428571 L25.8419763,0.0195428571 Z" id="Path"></path>
                    </g>
                    <path d="M294,264.996256 C272.080703,265.454196 263.288804,223.740797 293.202472,227.204372 L293.202472,258.466847 C293.39337,260.689899 293.654263,262.869952 294,264.996256 Z" id="Path" fill="#FBD6A2"></path>
                    <g id="Group" opacity="0.55" transform="translate(273.000000, 227.000000)" fill="#FFFFFF">
                        <path d="M20.79875,37.8655056 C-1.806875,38.3202247 -10.8740625,-3.09977528 19.97625,0.339438202 L19.97625,0.619101124 C2.629375,4.31876404 6.6325,28.6323596 20.5121875,35.8438202 C20.584375,36.5226966 20.6915625,37.201573 20.79875,37.8655056 Z" id="Path"></path>
                    </g>
                    <path d="M293.857002,269 C285.61617,269 278.059189,264.131561 273.594683,255.902357 C268.93541,247.329908 268.794745,237.510478 273.235445,230.88888 C275.566164,227.412976 281.33994,221.797217 293.828868,223.228856 C295.74163,223.448629 297.185749,225.074045 297.185363,227.006729 L297.185363,258.420216 C297.375802,260.579621 297.633328,262.649957 297.949284,264.574739 C298.128475,265.663114 297.827904,266.775957 297.125593,267.624404 C296.423281,268.47285 295.388488,268.973228 294.289818,268.995655 L293.857002,269 Z M289.611069,230.608635 C285.854219,230.667291 281.835515,231.681821 279.517781,235.136001 C276.728277,239.296224 277.02692,246.339275 280.244913,252.261348 C282.566975,256.532365 285.973244,259.506436 289.801508,260.749072 C289.736586,260.142237 289.678155,259.531057 289.626217,258.915532 C289.615397,258.804738 289.611069,258.698288 289.611069,258.587494 L289.611069,230.608635 Z" id="Shape" fill="#1E276A"></path>
                    <path d="M448,270 C448.904959,266.142998 449.581769,262.235241 450.026854,258.297372 L450.026854,231.365093 C455.903883,227.538988 461.085506,226.451613 465.332147,227.242042 C484.036025,230.664388 484.954045,270 448,270 Z" id="Path" fill="#FBD6A2"></path>
                    <path d="M447.687067,270 L447,270 L447.158721,269.340828 C448.084009,265.51087 448.774489,261.629941 449.226445,257.718918 L449.226445,230.594729 L449.474311,230.439002 C455.175228,226.825288 460.739166,225.376816 465.563854,226.245046 C474.106532,227.768181 479.842237,236.648873 478.898607,246.901241 C477.922363,257.556792 469.160085,270 447.687067,270 Z M450.311402,231.174971 L450.311402,257.789315 C449.880746,261.538338 449.233953,265.260411 448.374134,268.937645 C468.614345,268.675256 476.891763,256.908286 477.817999,246.813778 C478.707272,237.113921 473.356412,228.726008 465.368171,227.303134 C460.884841,226.488235 455.686179,227.830045 450.311402,231.177104 L450.311402,231.174971 Z" id="Shape" fill="#1E276A"></path>
                    <path d="M447.76356,274 C446.610526,273.998828 445.521518,273.468138 444.807999,272.559713 C444.094481,271.651287 443.835031,270.465168 444.103853,269.340595 C444.972164,265.659704 445.624852,261.930981 446.058567,258.173567 L446.058567,231.184425 C446.057945,229.90176 446.706526,228.706471 447.780782,228.010502 C454.129298,223.908153 460.441217,222.267213 466.04918,223.301437 C476.15643,225.143176 482.969944,235.625759 481.887101,247.682348 C480.793494,259.816666 471.202909,274 447.76356,274 Z M453.591106,233.302533 L453.591106,258.402435 C453.590997,258.546762 453.582371,258.690957 453.565273,258.834261 C453.276802,261.34749 452.906525,263.815377 452.463055,266.212013 C467.388202,264.642325 473.611857,255.554541 474.380395,246.995744 C475.000393,240.086524 471.816448,232.024328 464.692935,230.72669 C461.463782,230.12861 457.651228,231.018172 453.591106,233.302533 L453.591106,233.302533 Z" id="Shape" fill="#1E276A"></path>
                    <path d="M449,216.148463 L449,254.397358 C449.004707,257.370622 448.712295,260.3369 448.127078,263.251847 C445.474084,276.465768 441.013012,287.662509 434.883607,297.00138 C431.039382,302.910392 426.36471,308.23375 421.003762,312.807278 C392.695844,336.968214 350.880016,335.125413 322.804289,310.667389 C311.194753,300.549203 302.358607,287.201809 296.383996,269.873877 C296.196953,269.342134 296.02496,268.812544 295.870166,268.265732 L295.852967,268.250662 C293.955604,262.136859 292.993722,255.770608 293,249.368405 L293,163 L444.274432,165.109749 L449,216.148463 Z" id="Path" fill="#FBD6A2"></path>
                    <path d="M435,296.859339 C431.156146,302.793786 426.481926,308.140059 421.121497,312.733273 C392.816316,336.998208 351.004531,335.147475 322.931519,310.584173 C311.323105,300.422434 302.487813,287.017587 296.51378,269.615068 C296.326755,269.081036 296.154779,268.549166 296,268 C319.646768,286.226268 375.006001,287.60567 420.543226,270.86907 C419.187478,286.258699 424.006403,294.922122 435,296.859339 Z" id="Path" fill="#70DABF"></path>
                    <g id="Group" opacity="0.55" transform="translate(293.000000, 163.000000)" fill="#FFFFFF">
                        <path d="M39.3841702,149.56951 C48.9837009,157.94346 60.4761487,163.859559 72.8716028,166.808219 C56.9774928,165.017443 42.0063119,158.430061 29.9515461,147.923213 C18.3089929,137.795471 9.44771631,124.435471 3.45611348,107.091174 C1.1971833,100.484165 0.0504239292,93.5484241 0.0624300473,86.5663355 L0.0624300473,0.120670968 L151.767149,2.2324129 L151.907291,3.76450323 L9.48652482,1.77774194 L9.48652482,88.2277161 C9.47658979,95.2098058 10.6240385,102.145309 12.8822695,108.752555 C18.8781844,126.105471 27.7308369,139.439613 39.3841702,149.56951 Z" id="Path"></path>
                    </g>
                    <g id="Group" opacity="0.3" transform="translate(314.000000, 165.000000)" fill="#1E276A">
                        <path d="M134.978526,51.2273438 L134.978526,89.3986328 C134.98324,92.3658639 134.690394,95.3261231 134.104306,98.2351563 C129.729187,119.947266 120.466507,136.187305 106.94067,147.690039 C78.5906699,171.801953 36.7126794,169.962891 8.59521531,145.554492 C5.5964435,142.948925 2.79010569,140.130727 0.198086124,137.121875 C27.6287081,154.455469 63.6157895,153.581055 88.8739234,132.088086 C102.401914,120.585352 111.664593,104.345312 116.03756,82.6332031 C116.625529,79.7244509 116.918394,76.7640024 116.911722,73.7966797 L116.911722,35.6404297 L113.600239,0.0580078125 L130.252392,0.2921875 L134.978526,51.2273438 Z" id="Path"></path>
                    </g>
                    <path d="M373.952971,334 C373.204065,334 372.455158,333.989266 371.706251,333.967798 C352.878651,333.435385 334.583623,326.271433 320.186934,313.787651 C307.739415,303.002007 298.718036,289.172166 292.601006,271.508097 C290.198266,264.530068 288.981306,257.201881 289,249.825174 L289,199.756942 C289,197.68204 290.689573,196 292.773499,196 C294.857426,196 296.546782,197.68204 296.546782,199.756942 L296.546782,249.840202 C296.529496,256.381084 297.60725,262.879097 299.735744,269.067158 C305.408604,285.45172 313.71845,298.22747 325.139636,308.126476 C352.236115,331.606291 392.459304,332.512251 418.701943,310.234657 C431.835121,299.0862 440.563262,283.184674 444.647031,262.940122 C445.183433,260.275388 445.453551,257.564324 445.453436,254.846595 L445.453436,216.712559 C445.453436,214.637657 447.142792,212.955617 449.226718,212.955617 C451.310644,212.955617 453,214.637657 453,216.712559 L453,254.846595 C453,258.06167 452.680603,261.268862 452.046977,264.421431 C447.620378,286.344799 438.049178,303.68255 423.585648,315.945209 C409.833651,327.634667 392.282498,334 373.952971,334 Z" id="Path" fill="#1E276A"></path>
                    <g id="Group" opacity="0.3" transform="translate(448.000000, 238.000000)" fill="#1E276A">
                        <path d="M29.5369565,0.197465753 C24.3543478,15.2430822 14.7934783,20.2582877 0.854347826,15.2430822 L0.113043478,30.8683562 L16.4065217,26.9615068 C16.4065217,26.9615068 32.0043478,15.9671233 29.5369565,0.197465753 Z" id="Path"></path>
                    </g>
                    <g id="Group" opacity="0.55" transform="translate(281.000000, 161.000000)">
                        <path d="M1.01813842,2.03925287 C19.1341289,24.3923563 48.3164678,31.8731609 86.6556086,29.5383333 C86.6556086,29.5383333 54.3866348,42.5287356 31.0446301,32.8109195 C7.7026253,23.0931034 2.99212411,11.6018391 1.01813842,2.03925287 Z" id="Path" fill="#FFFFFF"></path>
                        <path d="M51.1625298,36.9191954 C44.2653938,36.9191954 37.200716,35.9537931 30.8362768,33.3042529 C7.78639618,23.7055172 2.56038186,12.1695977 0.491885442,2.15195402 L0.0472553699,0 L1.43699284,1.71390805 C18.3221957,22.5529885 46.1878282,31.484023 86.623389,29.0152299 L89.8947494,28.8153448 L86.8596659,30.038046 C86.623389,30.1252299 69.4568019,36.9191954 51.1625298,36.9191954 Z M2.03627685,4.08701149 C4.45274463,13.6687356 10.2952267,23.5949425 31.2486874,32.3197126 C49.7212411,40.0110345 74.1673031,33.2234483 83.0470167,30.2613218 C45.302864,31.9497126 18.7453461,23.3716667 2.03627685,4.08701149 Z" id="Shape" fill="#1E276A"></path>
                    </g>
                    <path d="M464.71945,226.842433 C460.398367,226.06262 455.139507,227.156943 449.179465,231 C436.259232,227.219415 431.71876,206.76117 431.297191,178.177359 C378.525769,196.446957 318.450016,206.136458 293.1107,185.335698 L293.1107,213.986289 C200.93977,145.313193 299.148172,18.3673827 431.000372,98.8518453 C425.025275,73.0016887 455.700882,67.3297335 445.824119,99.3666943 C445.824119,99.3666943 445.981132,99.2266726 446.275801,98.9358583 L446.869439,98.3886967 C447.041508,98.248675 447.243689,98.0612613 447.463077,97.8738477 C458.978797,88.0917176 468.870616,91.9821662 469.870767,98.5308725 C470.711754,103.797842 465.797033,110.781693 451.373346,113.737227 C492.697875,105.820617 499.298874,189.915484 464.71945,226.842433 Z" id="Path" fill="#5D5D5D"></path>
                    <path d="M282,161 C283.203575,165.359588 285.029222,169.522046 287.420377,173.358409 C289.759698,177.062755 292.716075,180.347741 296,182.253922 L291.325585,188 C289.533206,186.114399 288.014422,183.98544 286.813887,181.675714 C285.67799,179.506361 284.753071,177.232461 284.051925,174.885472 C282.703477,170.380364 282.012346,165.703444 282,161 Z" id="Path" fill="#1E276A"></path>
                    <g id="Group" opacity="0.55" transform="translate(257.000000, 73.000000)" fill="#FFFFFF">
                        <path d="M175.873059,28.7948518 C118.19149,-4.02374415 67.4751693,2.50595944 37.0445147,25.8346334 C38.297009,37.7056474 27.4729571,51.9642122 16.1509255,49.5745086 C1.043386,76.1884867 3.62382619,110.331108 32.2587359,137.866521 C-53.1458578,68.6146334 44.3007901,-53.309766 174.482596,25.9293604 C169.806761,5.78049922 187.49474,-2.10552262 190.795203,10.6072699 C185.946907,10.8225585 180.544582,16.3856162 180.663149,25.9056786 C180.69333,28.4180967 178.065463,30.03922 175.873059,28.7948518 Z" id="Path"></path>
                    </g>
                    <g id="Group" opacity="0.55" transform="translate(444.000000, 92.000000)" fill="#FFFFFF">
                        <path d="M25.805,6.78125 C19.7686667,5.5584375 12.8353333,8.1615625 5.3235,13.1446875 C1.39316667,15.5246875 -1.71816667,12.6371875 1.58166667,7.62125 C1.58166667,7.62125 1.73983333,7.4790625 2.03666667,7.18375 C2.19483333,7.0415625 2.3985,6.8665625 2.63466667,6.628125 C2.808,6.4859375 3.01166667,6.295625 3.23266667,6.1053125 C14.833,-3.8303125 24.7975,0.1203125 25.805,6.78125 Z" id="Path"></path>
                    </g>
                    <path d="M449.573455,235 C449.216582,235 448.861601,234.947842 448.519198,234.84666 C435.6942,231.073627 429.156091,214.702943 428.088952,183.47122 C400.560188,192.632756 332.082897,212.09832 297.541502,192.555006 L297.541502,214.152214 C297.537873,215.579133 296.735598,216.882358 295.467286,217.521593 C294.198973,218.160829 292.68086,218.02709 291.542331,217.175824 C246.816946,183.70015 246.857742,138.816831 266.738315,109.174662 C280.71634,88.335515 304.577752,74.1180725 332.200991,70.167943 C361.986422,65.9132928 394.586783,73.3297743 426.890835,91.6506865 C427.058314,83.4329486 430.830878,77.8889451 434.717241,75.3534328 C438.771083,72.7077747 443.462632,72.7142539 446.956064,75.3707106 C448.940042,76.8825152 452.624572,81.0119015 451.825828,90.5211525 C458.325287,87.2146198 464.064651,87.5817724 467.860834,89.5363198 C472.226014,91.7802698 474.632983,96.3070447 473.988834,101.06707 C473.462779,104.971845 471.100901,108.472752 467.257481,111.301987 C473.559402,113.893652 478.933748,119.007871 483.011209,126.456748 C496.868993,151.768677 493.248877,202.34718 467.817891,229.617976 C466.943596,230.556247 465.654792,230.982665 464.397461,230.749669 C460.725814,230.073677 456.306955,231.326315 451.615406,234.375841 C451.008616,234.777131 450.299625,234.993847 449.573455,235 Z M431.719803,174.467343 C433.773424,174.467115 435.446825,176.125297 435.477336,178.190702 C435.893886,206.584552 440.497401,222.998431 449.165494,227.039269 C454.140469,224.138764 459.0725,222.788938 463.592276,223.069702 C473.443455,211.783001 480.374494,195.043004 482.702018,176.789043 C484.984451,158.919513 482.635456,141.473287 476.421569,130.121795 C470.716559,119.696822 462.660407,115.405456 452.469976,117.366483 C450.442585,117.754447 448.483551,116.425127 448.081991,114.388975 C447.68043,112.352823 448.986652,110.37199 451.007759,109.952161 C461.784365,107.729808 466.10875,103.237589 466.536035,100.067119 C466.750751,98.4624462 465.986361,97.0845443 464.431816,96.2854475 C461.526706,94.7909207 455.692867,95.3870036 448.804771,101.982791 C447.566422,103.169442 445.687591,103.365186 444.233733,102.45902 C442.779875,101.552853 442.117854,99.7734368 442.623091,98.1298492 C445.876042,87.5472169 444.023041,82.6424908 442.408375,81.4200887 C441.085723,80.4158185 439.440997,81.2905055 438.792554,81.7138108 C435.571811,83.8173789 433.169137,89.6270281 435.067228,97.8706827 C435.410044,99.3529619 434.835028,100.897401 433.60855,101.788556 C432.382072,102.67971 430.743702,102.743508 429.4524,101.950395 C396.553583,81.774283 363.272572,73.3816076 333.248806,77.672973 C307.725491,81.3207416 285.760024,94.3503376 272.958644,113.422833 C255.996064,138.706685 255.293942,176.486682 290.015699,206.321066 L290.015699,185.432246 C290.015635,183.970927 290.85309,182.640505 292.166368,182.015589 C293.479647,181.390674 295.033408,181.58325 296.156582,182.510144 C320.621346,202.679777 381.592159,191.688958 430.491626,174.674676 C430.886812,174.537762 431.301832,174.467701 431.719803,174.467343 L431.719803,174.467343 Z" id="Shape" fill="#1E276A"></path>
                    <g id="Group" opacity="0.3" transform="translate(265.000000, 116.000000)" fill="#1E276A">
                        <path d="M199.696944,110.819944 C195.40294,110.027434 190.149226,111.119288 184.197737,114.976311 C171.296402,111.190356 166.766228,90.7294007 166.345416,62.153839 C113.666576,80.4289326 53.7051064,90.1134831 28.4091296,69.3187266 L28.4091296,97.9610487 C14.6296712,87.677809 5.44909091,76.0399813 0.182495164,63.9606742 L0.182495164,63.9606742 C10.2948743,72.5878277 15.6774081,68.2074906 17.2211025,48.5390449 C29.8884139,100.700375 124.953366,83.1531835 157.270039,37.7174157 C161.778743,31.3945693 172.700542,36.6061798 176.163656,43.5535581 C195.999807,83.3728464 233.784894,40.2198502 202.859478,0.0990636704 C202.876654,0.0990636704 202.89383,0.116292135 202.930329,0.116292135 C203.192263,0.31011236 204.036035,0.837734082 205.352147,1.6840824 C228.655706,18.7359551 227.977253,80.5882959 199.696944,110.819944 Z" id="Path"></path>
                    </g>
                    <g id="Group" opacity="0.15" transform="translate(322.000000, 95.000000)" fill="#FFFFFF">
                        <ellipse id="Oval" transform="translate(26.943808, 16.558761) rotate(-10.270000) translate(-26.943808, -16.558761) " cx="26.9438083" cy="16.558761" rx="25.1092414" ry="12.1907372"></ellipse>
                    </g>
                    <path d="M334.286733,213.965905 C331.444914,213.57082 328.845741,213.133022 326.338382,212.821224 C323.94005,212.509862 321.52193,212.367121 319.102671,212.394105 C316.769257,212.419407 314.448945,212.738826 312.199235,213.344446 C309.818664,213.839905 307.595487,214.946145 304.836735,215.94347 L304.777713,215.964826 C304.559132,216.043984 304.313267,215.986898 304.154515,215.820129 C303.995762,215.653359 303.955301,215.409659 304.051956,215.202417 C305.273938,212.577766 307.25884,210.115421 309.976057,208.58206 C312.666479,206.939093 315.766227,206.047603 318.93872,206.004393 C322.01484,205.941693 325.066465,206.550929 327.870779,207.787618 C330.592368,209.019858 333.062565,210.685625 334.885702,213.096717 C334.977421,213.217319 335.016288,213.368602 334.993735,213.517223 C334.971182,213.665845 334.889061,213.799605 334.765471,213.889024 C334.640034,213.979925 334.482734,214.018343 334.328268,213.995804 L334.286733,213.965905 Z" id="Path" fill="#1E276A"></path>
                    <path d="M376.095138,211.426363 C377.717468,208.892982 380.027336,207.104451 382.632174,205.80877 C385.329216,204.478774 388.307554,203.865378 391.294721,204.024699 C392.828377,204.113394 394.343508,204.41342 395.799506,204.916734 C397.237242,205.443427 398.596498,206.173756 399.83798,207.08661 C402.256293,208.937584 404.086836,211.395141 404.971743,214.209513 C405.0195,214.362109 405.00634,214.527962 404.935158,214.670579 C404.863975,214.813197 404.740603,214.920894 404.592188,214.969974 C404.44939,215.018358 404.293914,215.007966 404.158409,214.940982 L404.158409,214.940982 C401.642497,213.714434 399.462762,212.635071 397.315561,211.912522 C395.257645,211.216518 393.117988,210.808466 390.954205,210.699354 C388.706967,210.604176 386.455995,210.725127 384.230646,211.060628 C381.879569,211.377301 379.420047,211.86792 376.730623,212.327319 L376.674232,212.327319 C376.447241,212.366191 376.219404,212.263182 376.093827,212.064907 C375.96825,211.866633 375.968765,211.610721 376.095138,211.412982 L376.095138,211.426363 Z" id="Path" fill="#1E276A"></path>
                    <path d="M435.321329,300 C435.166115,300 435.011176,299.986989 434.858077,299.961563 C426.830512,298.565028 417.700578,293.128363 417.998689,275.511517 C381.300944,287.896693 337.334852,289.344478 309.726292,278.859785 C308.342821,278.334392 307.64907,276.791821 308.176755,275.414358 C308.70444,274.036894 310.253738,273.346155 311.637208,273.871549 C339.106364,284.304992 383.65581,282.366072 419.969657,269.163047 C420.831036,268.84858 421.794135,268.994911 422.522109,269.550861 C423.250082,270.106811 423.641651,270.995032 423.559864,271.904868 C421.936336,290.15165 429.755866,293.653665 435.784582,294.702134 C437.15184,294.942192 438.108809,296.181855 437.990052,297.559114 C437.871296,298.936374 436.71611,299.995491 435.327764,300 L435.321329,300 Z" id="Path" fill="#1E276A"></path>
                    <path d="M420.68923,274 C419.682681,273.999201 418.760701,273.432303 418.299354,272.530533 C417.838008,271.628764 417.914414,270.542865 418.497408,269.715761 L447.113821,229.141386 C447.975329,227.919971 449.655995,227.633808 450.867694,228.502224 C452.079393,229.370639 452.363279,231.064783 451.501772,232.286199 L422.885358,272.858403 C422.380354,273.575491 421.561637,274.001078 420.68923,274 Z" id="Path" fill="#1E276A"></path>
                    <ellipse id="Oval" fill="#1E276A" transform="translate(322.999167, 248.931941) rotate(-0.150000) translate(-322.999167, -248.931941) " cx="322.999167" cy="248.931941" rx="12.7901894" ry="16.8926153"></ellipse>
                    <ellipse id="Oval" fill="#FFFFFF" transform="translate(326.256889, 245.003417) rotate(-0.150000) translate(-326.256889, -245.003417) " cx="326.256889" cy="245.003417" rx="3.86394956" ry="5.67323073"></ellipse>
                    <ellipse id="Oval" fill="#1E276A" transform="translate(386.461420, 248.905298) rotate(-89.850000) translate(-386.461420, -248.905298) " cx="386.46142" cy="248.905298" rx="16.8926153" ry="12.7901894"></ellipse>
                    <ellipse id="Oval" fill="#FFFFFF" transform="translate(383.202111, 244.979310) rotate(-89.850000) translate(-383.202111, -244.979310) " cx="383.202111" cy="244.97931" rx="5.67323073" ry="3.86394956"></ellipse>
                    <path d="M420.565361,340 C420.192636,339.999244 419.822269,339.937462 419.467413,339.816849 C417.597636,339.176322 416.570713,337.055836 417.171706,335.076458 C417.640611,333.520297 417.876362,331.89609 417.870399,330.262807 L417.870399,312.770765 C417.870399,310.688229 419.466398,309 421.435163,309 C423.403928,309 425,310.688229 425,312.770765 L425,330.262807 C425.005839,332.682449 424.653937,335.088182 423.956979,337.392785 C423.47852,338.946326 422.109999,339.998339 420.565361,340 L420.565361,340 Z" id="Path" fill="#1E276A"></path>
                    <path d="M380.083654,346 C378.84922,346.001391 377.686543,345.42876 376.947015,344.455171 C373.723507,340.256887 371.985833,335.133583 372,329.869799 C371.995756,327.736838 373.747647,326.004274 375.913044,326 C378.078442,325.995742 379.837354,327.72139 379.841685,329.854351 C379.829413,333.447506 381.013915,336.945455 383.213572,339.811863 C384.106446,340.981736 384.250779,342.548411 383.586284,343.857494 C382.921789,345.166577 381.562788,345.992845 380.076933,345.99117 L380.083654,346 Z" id="Path" fill="#1E276A"></path>
                    <path d="M384,444.3779 L349.570064,435.624217 C345.090955,434.484235 340.35194,434.914569 336.156365,436.84227 L322.061164,443.320682 C317.507458,445.413563 313.911398,449.123366 311.983582,453.717021 L308.627994,461.748021 C307.576294,464.25687 307.858099,467.120583 309.379092,469.380701 C310.900085,471.640819 313.459319,472.998748 316.200243,473 L338.339337,473 C339.408724,473 340.469582,472.811425 341.472084,472.44244 L352.910508,468.224289 C354.787327,467.696388 356.785906,467.782878 358.609166,468.470902 L363.740988,470.400915 C366.297668,471.368126 369.027124,471.806017 371.761082,471.687591 L383.995673,471.145042" id="Path" fill="#FDBD91"></path>
                    <g id="Group" opacity="0.55" transform="translate(308.000000, 437.000000)" fill="#FFFFFF">
                        <path d="M75.9417045,9.555 L75.9417045,16.7528571 L43.8619318,8.58214286 C39.390729,7.4461774 34.6612684,7.87998468 30.4755682,9.81 L16.4198864,16.2728571 C11.8751635,18.3676176 8.28456068,22.0741651 6.35420455,26.6635714 L3.02272727,34.6907143 C2.85890466,35.0772971 2.72958277,35.4774035 2.63625,35.8864286 C0.177866243,33.5786409 -0.583958687,30.0012613 0.723295455,26.9035714 L4.085,18.8914286 C6.00795562,14.302964 9.5929594,10.5958349 14.1334091,8.50071429 L28.2042045,2.02285714 C32.3934148,0.104227196 37.1205646,-0.324071145 41.5905682,0.81 L75.9417045,9.555 Z" id="Path"></path>
                    </g>
                    <path d="M337.896294,476.999891 L315.908904,476.999891 C311.929153,476.999891 308.212329,474.994023 306.003166,471.653416 C303.794004,468.312809 303.384572,464.079308 304.911987,460.370678 L308.251027,452.261038 C310.521174,446.734038 314.76911,442.271482 320.150389,439.760482 L334.149005,433.212056 C339.10094,430.899265 344.691969,430.381531 349.978293,431.746249 L384.174452,440.597466 C385.841543,441.028398 387.005568,442.547004 386.99998,444.283667 L386.99998,471.333871 C387.000811,473.363233 385.418469,475.033649 383.409524,475.124152 L371.256619,475.674914 C368.028972,475.826261 364.805155,475.302862 361.787409,474.137552 L356.690753,472.186034 C355.676727,471.799766 354.569492,471.73769 353.519309,472.008229 L342.318267,476.212665 C340.902731,476.739608 339.405052,477.006195 337.896294,476.999891 Z M344.101667,438.580873 C341.75329,438.583496 339.43356,439.101411 337.30326,440.098745 L323.306792,446.647171 C319.636323,448.361189 316.738688,451.405332 315.189098,455.175304 L311.850058,463.284944 C311.286965,464.651569 311.437741,466.211746 312.251876,467.442826 C313.066012,468.673906 314.435833,469.413073 315.902458,469.412714 L337.889848,469.412714 C338.504455,469.413442 339.114243,469.303292 339.690437,469.087457 L351.065522,464.813633 C351.160064,464.776771 351.256754,464.746414 351.351296,464.718226 C353.994514,463.968858 356.805991,464.092711 359.374448,465.071667 L364.471104,467.023185 C366.529666,467.817313 368.72856,468.173864 370.930021,468.0705 L379.490341,467.682364 L379.490341,447.206607 L348.119689,439.086124 C346.808852,438.748245 345.461031,438.578498 344.108113,438.580873 L344.101667,438.580873 Z" id="Shape" fill="#1E276A"></path>
                    <path d="M459.679883,503.995695 L459.585341,503.995695 L257.663692,498.85186 C256.568407,498.82368 255.539866,498.318396 254.847096,497.46817 C254.154326,496.617944 253.866236,495.507348 254.058179,494.426871 L262.973122,444.198076 C263.292697,442.400638 264.852608,441.091167 266.675327,441.090253 L286.191942,441.090253 L314.200207,381.546597 C319.477581,369.823932 328.982039,360.531385 340.80967,355.530414 L378.98342,339.306888 C380.579379,338.629049 382.431147,339.13119 383.467751,340.522899 C385.199385,342.839679 387.51859,344.64994 390.184577,345.765737 C390.650208,345.968032 391.126491,346.144776 391.611312,346.295186 C392.309984,346.510917 393.02201,346.680589 393.74282,346.803113 C393.850254,346.816026 393.957689,346.833244 394.060827,346.854767 C394.469079,346.919333 394.920306,346.968835 395.528387,347.011879 C396.044074,347.05062 396.54472,347.011879 397.049664,347.082903 C397.092638,347.082903 397.174289,347.082903 397.264534,347.082903 L397.395604,347.082903 C398.663336,347.1281 399.952554,347.125948 401.220285,347.082903 C401.864894,347.067838 402.436447,347.054924 403.027339,347.011879 C403.558494,346.980332 404.087736,346.922148 404.613078,346.837549 C405.39913,346.712853 406.175334,346.532328 406.935819,346.297338 C407.411665,346.15114 407.879323,345.979432 408.336769,345.782955 C412.777234,343.954381 416.173519,340.239303 417.601951,335.648094 C417.939828,334.558063 418.753209,333.680454 419.81337,333.262052 C420.873531,332.84365 422.06596,332.929647 423.055344,333.495861 L467.638657,358.97829 C479.363356,365.642911 486.847679,377.873411 487.456089,391.362928 L489.965767,443.877393 L489.965767,443.877393 C490.712378,459.716689 479.163415,473.463609 463.455144,475.433422 L463.455144,500.233593 C463.455714,501.232681 463.059733,502.191013 462.354431,502.897476 C461.649129,503.603938 460.692371,504 459.694924,504 L459.679883,503.995695 Z M262.214632,491.439572 L455.913218,496.366032 L455.913218,471.884391 C455.914403,469.804754 457.597216,468.119172 459.673437,468.117984 C465.901908,468.12022 471.859569,465.56743 476.159443,461.053917 C480.459318,456.540403 482.726232,450.459982 482.432435,444.228207 L479.922757,391.713742 C479.430395,380.799311 473.374136,370.903799 463.887032,365.512467 L422.975842,342.130617 C420.395751,346.90072 416.256582,350.637117 411.252551,352.713143 C410.56065,353.010942 409.853449,353.27173 409.133936,353.494403 C408.049376,353.828296 406.943009,354.086465 405.822794,354.267054 C405.067633,354.390614 404.306752,354.476094 403.543026,354.52317 C402.833956,354.574823 402.139927,354.594193 401.428709,354.611411 C400.036353,354.65876 398.598875,354.65876 397.178586,354.611411 C396.948675,354.611411 396.66075,354.611411 396.334148,354.579128 C395.880773,354.579128 395.435993,354.555453 394.97832,354.52317 C394.136031,354.462907 393.474232,354.389731 392.829623,354.284272 L392.711445,354.267054 C391.587577,354.085162 390.477628,353.825556 389.38956,353.490098 C388.659585,353.263455 387.942315,352.997629 387.240863,352.693772 C384.288729,351.449262 381.6187,349.61897 379.391673,347.313192 L343.740493,362.464907 C333.6377,366.740205 325.522367,374.683606 321.02232,384.701769 L291.971937,446.470833 C291.348453,447.786189 290.024239,448.624087 288.570549,448.623065 L269.818871,448.623065 L262.214632,491.439572 Z" id="Shape" fill="#1E276A"></path>
                    <path d="M438.841788,404 C440.391828,411.485411 441.174394,418.972964 441.847012,426.458375 C441.995764,428.328656 442.142361,430.20108 442.250152,432.071362 L442.334229,433.474608 L442.355788,433.825956 C442.355788,433.952355 442.355788,434.188015 442.355788,434.365831 C442.352424,434.748089 442.322168,435.129646 442.265243,435.507709 C442.025881,437.04598 441.399261,438.499205 440.443568,439.732446 C438.967264,441.614176 436.818933,442.859221 434.443898,443.209499 L433.853201,443.280197 L433.458684,443.316617 L432.755884,443.378745 C430.878158,443.54585 429.002587,443.715096 427.122705,443.839353 C419.611799,444.42636 412.085802,444.758426 404.557649,445.034791 C397.029497,445.311155 389.501344,445.596089 381.979659,445.998853 L385.551867,442.249721 L385.551867,471.250868 L381.779167,467.501735 L459.2273,467.501735 C461.310905,467.501735 463,469.180279 463,471.250868 C463,473.321456 461.310905,475 459.2273,475 L381.7727,475 C379.689095,475 378,473.321456 378,471.250868 L378,442.249721 C378.006813,440.259141 379.570383,438.617138 381.570052,438.500588 C389.091737,438.072116 396.604799,437.54081 404.11786,437.000935 C411.630922,436.46106 419.150451,435.97046 426.68076,435.739085 C428.562798,435.657675 430.444836,435.623397 432.32903,435.584834 L433.456528,435.561269 C433.602507,435.559235 433.74754,435.537616 433.887694,435.496998 C434.511984,435.318424 435.006834,434.844315 435.209217,434.230862 C435.235838,434.148681 435.257435,434.064977 435.273892,433.980206 C435.289902,433.927819 435.300733,433.874005 435.306229,433.819529 L435.327787,433.468181 L435.41402,432.064935 C435.521812,430.192511 435.670564,428.322229 435.819316,426.449805 C436.496246,418.970822 437.287435,411.485411 438.841788,404 Z" id="Path" fill="#1E276A"></path>
                    <path d="M346,398 L342.392142,434.55892 C342.279893,435.910414 341.458291,437.095573 340.242575,437.659664 C339.02686,438.223755 337.605836,438.079172 336.524737,437.281391 C335.443639,436.483609 334.870363,435.156527 335.024871,433.809333 C335.051391,433.555088 335.102147,433.304051 335.176426,433.059746 L346,398 Z" id="Path" fill="#1E276A"></path>
                    <g id="Group" opacity="0.3" transform="translate(372.000000, 336.000000)" fill="#1E276A">
                        <path d="M113.91,107.560263 C114.252217,114.840444 111.618876,121.944156 106.623021,127.217646 C101.627165,132.491137 94.7046862,135.474292 87.4671429,135.472632 L87.4671429,159.785632 L30.8571429,162.446316 L0,163.885632 L1.95857143,161.695368 L6.45857143,156.654526 L1.935,136.694 L12.15,134.814474 L12.5378571,121.681526 L78.2142857,117.044211 C85.5596475,116.524963 91.1240405,110.152913 90.6964286,102.750316 L88.2771429,60.9540526 C87.7752231,52.2824998 82.9951762,44.4399594 75.5442857,40.0634737 L31.23,14.0392632 C31.8728571,13.9917895 32.535,13.9292105 33.1735714,13.8234737 C34.116061,13.6736932 35.0469273,13.4573704 35.9592857,13.1761053 C36.5616145,12.9919071 37.1538672,12.7758169 37.7335714,12.5287368 C43.1633432,10.2503107 47.3124632,5.66752464 49.065,0.0129473684 L93.525,25.5624211 C104.080683,31.6279866 110.824634,42.7066477 111.402857,54.9313684 L113.91,107.560263 Z" id="Path"></path>
                    </g>
                    <path d="M378,483 C378,486.447992 376.655256,489.75493 374.260133,492.193028 C371.865011,494.631127 368.616364,496.000579 365.22915,496 L282.443991,496 C275.519795,495.817232 270,490.050807 270,483 C270,475.949192 275.519795,470.182768 282.443991,470 L365.22915,470 C372.281314,470.002412 377.997631,475.821297 378,483 L378,483 Z" id="Path" fill="#D0D0D0"></path>
                    <path d="M365.450065,500 L282.549935,500 C273.409658,500 266,492.612698 266,483.5 C266,474.387302 273.409658,467 282.549935,467 L365.450065,467 C374.590342,467 382,474.387302 382,483.5 C382,492.612698 374.590342,500 365.450065,500 L365.450065,500 Z M282.549935,474.5 C277.56433,474.5 273.522698,478.529437 273.522698,483.5 C273.522698,488.470563 277.56433,492.5 282.549935,492.5 L365.450065,492.5 C370.43567,492.5 374.477302,488.470563 374.477302,483.5 C374.477302,478.529437 370.43567,474.5 365.450065,474.5 L282.549935,474.5 Z" id="Shape" fill="#1E276A"></path>
                    <path d="M282,496 L101.468938,496 C94.5308603,495.817232 89,490.050808 89,483 C89,475.949192 94.5308603,470.182768 101.468938,470 L282,470 C275.061923,470.182768 269.531062,475.949192 269.531062,483 C269.531062,490.050808 275.061923,495.817232 282,496 Z" id="Path" fill="#D0D0D0"></path>
                    <g id="Group" opacity="0.55" transform="translate(90.000000, 470.000000)" fill="#FFFFFF">
                        <path d="M19.9247312,25.9675 L12.5634409,25.9675 C5.62577207,25.7862548 0.0952375263,20.0678841 0.0952375263,13.0758333 C0.0952375263,6.08378255 5.62577207,0.365411912 12.5634409,0.184166667 L19.9247312,0.184166667 C15.2741675,0.0626715976 10.9243198,2.49289093 8.56352819,6.53156467 C6.20273663,10.5702384 6.20273663,15.5814283 8.56352819,19.620102 C10.9243198,23.6587757 15.2741675,26.0889951 19.9247312,25.9675 Z" id="Path"></path>
                    </g>
                    <path d="M365.450065,500 L282.549935,500 C273.409658,500 266,492.612698 266,483.5 C266,474.387302 273.409658,467 282.549935,467 L365.450065,467 C374.590342,467 382,474.387302 382,483.5 C382,492.612698 374.590342,500 365.450065,500 L365.450065,500 Z M282.549935,474.5 C277.56433,474.5 273.522698,478.529437 273.522698,483.5 C273.522698,488.470563 277.56433,492.5 282.549935,492.5 L365.450065,492.5 C370.43567,492.5 374.477302,488.470563 374.477302,483.5 C374.477302,478.529437 370.43567,474.5 365.450065,474.5 L282.549935,474.5 Z" id="Shape" fill="#1E276A"></path>
                    <path d="M282.233617,500 L101.572083,500 C92.4195744,500 85,492.612698 85,483.5 C85,474.387302 92.4195744,467 101.572083,467 L282.233617,467 C284.313733,467 286,468.678932 286,470.75 C286,472.821068 284.313733,474.5 282.233617,474.5 C277.24134,474.5 273.194299,478.529437 273.194299,483.5 C273.194299,488.470563 277.24134,492.5 282.233617,492.5 C284.313733,492.5 286,494.178932 286,496.25 C286,498.321068 284.313733,500 282.233617,500 Z M101.572083,474.5 C96.5798057,474.5 92.5327651,478.529437 92.5327651,483.5 C92.5327651,488.470563 96.5798057,492.5 101.572083,492.5 L268.349655,492.5 C264.773188,487.028337 264.773188,479.971663 268.349655,474.5 L101.572083,474.5 Z" id="Shape" fill="#1E276A"></path>
                    <path d="M264.129839,481.581477 C263.16907,481.841837 262.179461,481.980193 261.184267,481.993292 L88.494964,481.993292 C88.1507043,482.008385 87.8064445,481.993292 87.4707912,481.993292 C82.2712307,481.731284 77.8306511,478.145666 76.4695403,473.110154 L36.4127654,325.208052 C35.4418412,321.5867 36.2050426,317.718844 38.4782542,314.740288 C40.7514658,311.761733 44.276647,310.010583 48.0186226,310 C48.1825702,309.996776 48.3466006,310.005427 48.5091928,310.026941 L220.520734,310.009692 C220.649831,310.009692 220.78108,310.009692 220.912329,310.009692 C226.341843,310.012572 231.096727,313.659033 232.518187,318.91008 L272.577113,466.8014 C274.315985,473.22013 270.534551,479.836453 264.129839,481.581477 Z" id="Path" fill="#B8C5D3"></path>
                    <g id="Group" opacity="0.55" transform="translate(53.000000, 306.000000)">
                        <path d="M1.4,4.01945946 L0.26,4.01945946 C0.496,4.00216216 0.732,3.99351351 0.96,3.99351351 C1.10707523,3.98921621 1.25422968,3.99789362 1.4,4.01945946 L1.4,4.01945946 Z" id="Path" fill="#FFFFFF"></path>
                        <path d="M1.4,7.80324324 L0.258,7.80324324 L0.034,0.235675676 C0.346,0.211891892 0.656,0.201081081 0.958,0.201081081 C1.27979805,0.196043484 1.60146233,0.218455335 1.92,0.268108108 L1.4,7.80324324 Z" id="Path" fill="#1E276A"></path>
                    </g>
                    <g id="Group" opacity="0.6" transform="translate(38.000000, 310.000000)" fill="#FFFFFF">
                        <path d="M177.877464,0.111939925 L174.345411,6.66042553 L173.700483,6.66042553 L171.297053,12.9376721 L7.60369565,12.9376721 C7.02520462,12.9324009 6.47668973,13.1948882 6.1173993,13.648927 C5.75810888,14.1029658 5.62829726,14.6976864 5.76565217,15.2604255 L5.76565217,15.2841051 L45.7898551,162.945782 C47.1615351,168.009233 51.6501275,171.599954 56.8847585,171.821327 L52.4885024,171.821327 C46.9105164,172.016296 41.9326942,168.33981 40.4713527,162.945782 L0.485845411,15.4347935 L0.445,15.2841051 C-1.27846503,8.87561369 2.49510371,2.27753462 8.88710145,0.52310388 C9.91599654,0.243367879 10.9768195,0.0986444414 12.0429469,0.0917699979 C12.2066203,0.0892231925 12.3703391,0.0964136371 12.5330918,0.114092616 L17.8429952,0.114092616 L177.877464,0.111939925 Z" id="Path"></path>
                    </g>
                    <path d="M261.104038,484.999964 C253.935987,485.015246 247.657045,480.229426 245.813003,473.345072 L205.548052,325.90751 C203.277975,317.505392 208.265568,308.859422 216.708129,306.56157 C218.308768,306.096051 219.980062,305.917717 221.643651,306.03493 C228.517239,306.347885 234.39535,311.049031 236.173378,317.655392 L276.442655,465.101552 C278.736146,473.504668 273.743171,482.165003 265.289066,484.447493 L265.269601,484.447493 C264.100134,484.757693 262.899636,484.937926 261.690158,484.98488 C261.493343,484.997777 261.29869,484.999964 261.104038,484.999964 Z M220.867204,313.526108 C218.283647,313.534532 215.850454,314.734668 214.281268,316.774524 C212.712082,318.81438 212.184777,321.462728 212.854009,323.942822 L253.123285,471.386833 C254.112413,475.095833 257.55763,477.626845 261.415482,477.478655 C262.058673,477.451387 262.696913,477.354075 263.318751,477.188466 C267.727123,475.988454 270.329248,471.471538 269.13886,467.085586 L228.867421,319.626528 C227.938888,316.148568 224.83341,313.681507 221.215415,313.547604 L220.955879,313.528258 L220.867204,313.526108 Z" id="Shape" fill="#1E276A"></path>
                    <g id="Group" opacity="0.3" transform="translate(209.000000, 311.000000)" fill="#1E276A">
                        <path d="M55.1106355,171.412315 C54.2227673,171.652432 53.310953,171.79179 52.3922408,171.827785 C46.8389136,172.024852 41.8835428,168.345539 40.4355853,162.950088 L0.582207358,15.2841051 C-0.384474598,11.6681844 0.374392938,7.80579526 2.63591437,4.83140396 C4.89743581,1.85701265 8.40482725,0.108345647 12.127893,0.0981341111 C12.2908617,0.0954509025 12.4538878,0.102642002 12.6159197,0.120550688 C17.8277505,0.333570457 22.2993086,3.92340017 23.6607358,8.98748436 L63.5141137,156.647009 C64.3486188,159.725808 63.9318369,163.011962 62.3555889,165.781504 C60.7793408,168.551046 58.1729532,170.576743 55.1106355,171.412315 L55.1106355,171.412315 Z" id="Path"></path>
                    </g>
                    <path d="M87.9191896,484.999966 C80.7763814,485.014791 74.5193261,480.231062 72.67982,473.348921 L32.5452402,325.903451 C31.2650945,321.164182 32.2671121,316.100818 35.2567582,312.201692 C38.2464044,308.302566 42.8839279,306.010786 47.8061679,306 C47.9807879,306 48.220082,306 48.504648,306.025796 L220.550642,306.008599 C220.714483,306.008599 220.878324,306.008599 221.040009,306.008599 C228.182281,306.018172 234.435806,310.789958 236.311716,317.661758 L276.446296,465.107228 C278.726898,473.51174 273.755935,482.171364 265.333132,484.466822 L265.307263,484.466822 C264.04127,484.805839 262.737583,484.984944 261.426818,484.999966 L88.4322706,484.999966 C88.2619622,484.997781 88.089498,484.999966 87.9191896,484.999966 Z M47.881621,313.523715 C45.2952817,313.509097 42.8503287,314.699096 41.2708311,316.741295 C39.6913335,318.783494 39.1583407,321.443808 39.8296977,323.934387 L79.9664332,471.379857 C80.9505768,475.092068 84.3883905,477.624622 88.2360926,477.471917 L88.3719082,477.471917 L261.398792,477.471917 C262.066774,477.460269 262.730756,477.366408 263.375664,477.192464 C267.774654,475.98665 270.367478,471.460752 269.174773,467.069843 L229.038037,319.617924 C228.058297,316.022747 224.787026,313.525912 221.050788,313.521565 L220.891259,313.521565 L220.658432,313.521565 L48.3106257,313.538763 C48.1674573,313.54138 48.024251,313.536357 47.881621,313.523715 Z" id="Shape" fill="#1E276A"></path>
                    <ellipse id="Oval" fill="#1E276A" transform="translate(138.339616, 403.857768) rotate(-20.500000) translate(-138.339616, -403.857768) " cx="138.339616" cy="403.857768" rx="9.59450893" ry="16.8708997"></ellipse>
                    <g id="Group" opacity="0.3" transform="translate(103.000000, 363.000000)" fill="#1E276A">
                        <path d="M116.622845,0.143916968 C128.023707,84.3933394 81.5344828,117.129079 0.157327586,118.821715 L149.987069,118.821715 L147.321121,113.795361 L116.622845,0.143916968 Z" id="Path"></path>
                    </g>
                    <path d="M346.0159,480 L356.986299,480 C357.546151,480 358,480.432154 358,480.965243 L358,484.032663 C358,484.566909 357.545166,485 356.9841,485 L346.013701,485 C345.453849,485 345,484.567846 345,484.034757 L345,480.967337 C345,480.434248 345.453849,480.002094 346.013701,480.002094 L346.0159,480 Z" id="Path" fill="#1E276A" transform="translate(351.500000, 482.500000) rotate(180.000000) translate(-351.500000, -482.500000) "></path>
                    <path d="M328.0159,480 L338.986299,480 C339.546151,480 340,480.432154 340,480.965243 L340,484.032663 C340,484.566909 339.545166,485 338.9841,485 L328.013701,485 C327.453849,485 327,484.567846 327,484.034757 L327,480.967337 C327,480.434248 327.453849,480.002094 328.013701,480.002094 L328.0159,480 Z" id="Path" fill="#1E276A" transform="translate(333.500000, 482.500000) rotate(180.000000) translate(-333.500000, -482.500000) "></path>
                    <g id="Group" opacity="0.3" transform="translate(270.000000, 469.000000)" fill="#1E276A">
                        <path d="M108.000001,13.078 C108.001137,16.497435 106.658203,19.777149 104.266867,22.1950549 C101.875532,24.6129607 98.6318588,25.9708166 95.25,25.9696674 L12.6,25.9696674 C5.6871086,25.7884214 0.176325964,20.0700508 0.176325964,13.078 C0.176325964,6.08594921 5.6871086,0.367578579 12.6,0.186333333 L95.25,0.186333333 C102.29114,0.187529565 107.998817,5.95862465 108.000001,13.078 Z" id="Path"></path>
                    </g>
                    <g id="Group" opacity="0.32" transform="translate(68.000000, 353.000000)" fill="#FFFFFF">
                        <path d="M2.81991525,25.5424424 C-0.358050847,12.7636406 -2.09745763,2.1940553 5.04661017,0.340046083 C12.190678,-1.51396313 20.5508475,7.34456221 23.7288136,20.1211982 C26.9067797,32.8978341 23.6800847,44.7582949 16.5381356,46.6101382 C9.39618644,48.4619816 5.99152542,38.3190783 2.81991525,25.5424424 Z" id="Path"></path>
                    </g>
                    <g id="Group" opacity="0.32" transform="translate(82.000000, 412.000000)" fill="#FFFFFF">
                        <path d="M0.966666667,11.3978022 C-0.308333333,6.1010989 -0.804166667,1.66373626 3.84166667,0.421978022 C8.4875,-0.81978022 13.2854167,2.46373626 14.5583333,7.75824176 C15.83125,13.0527473 13.1,18.356044 8.45416667,19.5978022 C3.80833333,20.8395604 2.23958333,16.7032967 0.966666667,11.3978022 Z" id="Path"></path>
                    </g>
                    <rect id="Rectangle" fill="#E87552" x="27" y="496" width="628" height="23" rx="11.5"></rect>
                    <g id="Group" opacity="0.55" transform="translate(27.000000, 496.000000)" fill="#FFFFFF">
                        <path d="M628.827837,11.7555556 C628.827837,13.1860764 628.578564,14.6049393 628.080825,15.94 C626.393702,11.4164641 622.183162,8.4318404 617.487707,8.43111111 L11.34654,8.43111111 C6.65013561,8.42868179 2.43803085,11.4144153 0.753422313,15.94 C0.253477673,14.6053729 -1.16006756e-05,13.1864961 -1.16006756e-05,11.7555556 C-1.16006756e-05,8.65177528 1.19509725,5.67527987 3.32208515,3.48161806 C5.44907305,1.28795625 8.33349552,0.0570513203 11.3400821,0.0599947144 L617.487707,0.0599947144 C623.746952,0.0587713313 628.827837,5.29397319 628.827837,11.7555556 L628.827837,11.7555556 Z" id="Path"></path>
                    </g>
                    <path d="M643.905397,523 L38.0946031,523 C29.758084,523 23,516.284271 23,508 C23,499.715729 29.758084,493 38.0946031,493 L643.905397,493 C652.241916,493 659,499.715729 659,508 C659,516.284271 652.241916,523 643.905397,523 Z M38.0946031,500.482896 C33.9168378,500.482896 30.5300899,503.848418 30.5300899,508 C30.5300899,512.151582 33.9168378,515.517104 38.0946031,515.517104 L643.905397,515.517104 C648.083162,515.517104 651.46991,512.151582 651.46991,508 C651.46991,503.848418 648.083162,500.482896 643.905397,500.482896 L38.0946031,500.482896 Z" id="Shape" fill="#1E276A"></path>
                    <path d="M504.476951,473.5 L504.476951,473.5 C504.476951,466.850097 509.892953,461.459286 516.573929,461.459286 L618.746996,461.459286 C620.140354,461.459854 621.476808,460.909171 622.462062,459.928501 C623.447315,458.94783 624,457.617592 624,456.230714 L624,456.230714 C624,454.84364 623.447383,453.513182 622.462192,452.532171 C621.477001,451.55116 620.140552,451 618.746996,451 L515.605137,451 C503.120665,451 493,461.073593 493,473.5 L493,473.5 C493,485.926407 503.120665,496 515.605137,496 L618.74269,496 C620.136247,496 621.472695,495.44884 622.457886,494.467829 C623.443077,493.486818 623.996265,492.15636 623.995694,490.769286 L623.995694,490.769286 C623.996265,489.382408 623.443009,488.05217 622.457756,487.071499 C621.472503,486.090829 620.136049,485.540146 618.74269,485.540714 L516.569623,485.540714 C509.890328,485.538348 504.476951,480.14823 504.476951,473.5 L504.476951,473.5 Z" id="Path" fill="#FF5722"></path>
                    <path d="M618.953189,498.99891 L516.201569,498.99891 C502.283127,498.99891 491,487.582659 491,473.5 C491,459.417341 502.283127,448.00109 516.201569,448.00109 L618.953189,448.00109 C621.812158,447.953471 624.474325,449.469445 625.917568,451.966962 C627.360811,454.464478 627.360811,457.555357 625.917568,460.052874 C624.474325,462.55039 621.812158,464.066364 618.953189,464.018746 L517.162445,464.018746 C511.987154,464.018746 507.791752,468.263648 507.791752,473.5 C507.791752,478.736352 511.987154,482.981254 517.162445,482.981254 L618.953189,482.981254 C621.812158,482.933636 624.474325,484.44961 625.917568,486.947126 C627.360811,489.444643 627.360811,492.535522 625.917568,495.033038 C624.474325,497.530555 621.812158,499.046529 618.953189,498.99891 L618.953189,498.99891 Z M516.201569,453.42639 C505.244497,453.42639 496.362036,462.413651 496.362036,473.5 C496.362036,484.586349 505.244497,493.57361 516.201569,493.57361 L618.953189,493.57361 C619.883078,493.600882 620.754101,493.114515 621.227,492.303949 C621.6999,491.493382 621.6999,490.486783 621.227,489.676216 C620.754101,488.865649 619.883078,488.379283 618.953189,488.406554 L517.162445,488.406554 C509.025784,488.406554 502.429717,481.732662 502.429717,473.5 C502.429717,465.267338 509.025784,458.593446 517.162445,458.593446 L618.953189,458.593446 C619.883078,458.620717 620.754101,458.134351 621.227,457.323784 C621.6999,456.513217 621.6999,455.506618 621.227,454.696051 C620.754101,453.885485 619.883078,453.399118 618.953189,453.42639 L516.201569,453.42639 Z" id="Shape" fill="#1E276A"></path>
                    <g id="Group" opacity="0.5" transform="translate(507.000000, 485.000000)" fill="#FFFFFF">
                        <path d="M111.372203,3.9 L9.48282486,3.9 C6.02761269,3.90027414 2.68566517,2.57547656 0.0579661017,0.163846154 C2.8211925,3.6743407 6.88153299,5.70000153 11.159548,5.70230769 L113.048927,5.70230769 C113.35141,5.70626057 113.65113,5.76476583 113.935593,5.87538462 C113.560291,4.69684316 112.531073,3.90371261 111.372203,3.9 L111.372203,3.9 Z" id="Path"></path>
                    </g>
                    <g id="Group" opacity="0.5" transform="translate(496.000000, 454.000000)" fill="#FFFFFF">
                        <path d="M1.76830769,21.7277439 C1.78136313,10.7374204 10.7697658,1.83122871 21.8615385,1.81829268 L125.045846,1.81829268 C125.349309,1.82194829 125.65,1.87605376 125.935385,1.97835366 C125.558317,0.888848042 124.526104,0.155604678 123.363692,0.151520001 L20.1793846,0.151520001 C11.8347309,0.146053668 4.35632434,5.25478188 1.39382738,12.984513 C-1.56866958,20.7142441 0.602233135,29.4538263 6.84707692,34.9381098 C3.57278203,31.3029973 1.76473608,26.6000963 1.76830769,21.7277439 Z" id="Path"></path>
                    </g>
                    <path d="M515.381466,462 C509.095405,462 504,467.373198 504,474 L504,474 C504,480.620395 509.095405,486 515.381466,486 L617,486 L617,462 L515.381466,462 Z" id="Path" fill="#FFFFFF"></path>
                    <path d="M617.470842,488 L515.902808,488 C508.235421,488 502,481.495287 502,473.5 C502,465.504713 508.235421,459 515.902808,459 L617.470842,459 C618.867658,459 620,460.119585 620,461.500663 L620,485.499337 C620,486.880415 618.867658,488 617.470842,488 L617.470842,488 Z M515.902808,464.001325 C511.025918,464.001325 507.047516,468.272312 507.047516,473.5 C507.047516,478.727688 511.017279,482.998675 515.902808,482.998675 L614.941685,482.998675 L614.941685,463.992784 L515.902808,464.001325 Z" id="Shape" fill="#1E276A"></path>
                    <path d="M537.818972,490.706575 L533.881047,487.694271 C533.072204,487.077861 531.925577,487.077861 531.116735,487.694271 L527.181028,490.706575 C526.780763,491.024301 526.223774,491.089882 525.754951,490.874482 C525.286128,490.659083 524.991339,490.202155 525.000194,489.704597 L525.000194,474.390458 C524.999605,474.021881 525.152211,473.668207 525.424377,473.407384 C525.696543,473.146562 526.06593,473 526.451125,473 L538.546656,473 C538.932055,473 539.30167,473.146494 539.574188,473.407256 C539.846707,473.668017 539.999806,474.021685 539.999806,474.390458 L539.999806,489.704597 C540.008661,490.202155 539.713872,490.659083 539.245049,490.874482 C538.776226,491.089882 538.219237,491.024301 537.818972,490.706575 Z" id="Path" fill="#FFEB3B"></path>
                    <path d="M526.491668,494 C525.965996,494 525.447111,493.8798 524.973582,493.648721 C523.763075,493.066554 522.994011,491.828546 523.000035,490.47184 L523.000035,474.633543 C523.002458,472.628651 524.606674,471.003628 526.587091,471 L538.410811,471 C540.392075,471.002419 541.99761,472.627796 542,474.633543 L542,490.47184 C542,491.826579 541.232821,493.061363 540.02661,493.648042 C538.8204,494.234721 537.388762,494.069401 536.344046,493.222795 L536.344046,493.222795 L532.496782,490.105193 L528.653856,493.222795 C528.041034,493.722579 527.278601,493.996638 526.491668,494 L526.491668,494 Z M532.514132,485.709813 C533.498978,485.710631 534.453956,486.052257 535.220662,486.678026 L537.677793,488.667144 L537.677793,475.390989 L527.35264,475.390989 L527.35264,488.667144 L529.80977,486.678026 C530.573492,486.054457 531.524303,485.712953 532.505457,485.709813 L532.514132,485.709813 Z" id="Shape" fill="#1E276A"></path>
                    <g id="Group" opacity="0.5" transform="translate(527.000000, 475.000000)" fill="#FFFFFF">
                        <polygon id="Path" points="1.84666667 0.208888889 0.111111111 0.208888889 0.111111111 13.8111111 1.84666667 12.4244444"></polygon>
                    </g>
                    <g id="Group" opacity="0.5" transform="translate(533.000000, 485.000000)" fill="#FFFFFF">
                        <path d="M3.97142857,0.956 C2.89472506,0.210535055 1.47021238,-0.0784751322 0.107142857,0.172 C0.840117242,0.295679203 1.5273932,0.564451445 2.11190476,0.956 L4.90238095,2.83 L4.90238095,1.582 L3.97142857,0.956 Z" id="Path"></path>
                    </g>
                    <line x1="540" y1="473" x2="583" y2="473" id="Path" fill="#FFF176"></line>
                    <path d="M539.763756,471.00144 L583,472.501087 L539.763756,473.998814 C539.158158,474.02008 538.58573,473.754083 538.2621,473.301021 C537.938471,472.847959 537.912806,472.276662 538.194774,471.802334 C538.476743,471.328005 539.023506,471.022706 539.629104,471.00144 C539.67254,470.99952 539.72032,470.99952 539.763756,471.00144 Z" id="Path" fill="#1E276A"></path>
                    <g id="Group" opacity="0.3" transform="translate(505.000000, 462.000000)" fill="#1E276A">
                        <polygon id="Path" points="112.961257 6.73074074 0.043047619 16.8446914 3.03270476 4.65506173 7.93582857 0.176296296 17.1781524 0.176296296 112.961257 0.176296296"></polygon>
                    </g>
                    <path d="M540.638319,68 L655.363835,68 C663.99945,68 671,75.0174255 671,83.6738583 L671,168.191792 C671,176.848574 663.999799,183.866617 655.363835,183.867809 L585.759209,183.867809 L560.92872,210.828573 C554.898243,217.380936 543.980926,213.10193 543.980926,204.187693 L543.980926,183.781452 C533.261615,182.910069 525.004068,173.937584 525,163.157159 L525,83.6738583 C525,79.5165186 526.647673,75.5294842 529.580488,72.5900036 C532.513304,69.6505229 536.490977,68 540.638319,68 L540.638319,68 Z" id="Path" fill="#FFFFFF"></path>
                    <path d="M553.918518,217 C552.291325,216.998115 550.678876,216.690786 549.164559,216.093906 C544.184289,214.165652 540.906557,209.358264 540.923505,204.00691 L540.923505,186.440304 C530.101485,184.152469 522,174.422179 522,163.092773 L522,83.8557997 C522.011833,73.4469459 530.427257,65.0118606 540.811849,65 L655.188151,65 C665.572743,65.0118606 673.988167,73.4469459 674,83.8557997 L674,168.111803 C673.988165,178.520308 665.572396,186.954776 655.188151,186.965451 L587.20482,186.965451 L563.409259,212.807431 C560.971391,215.47598 557.528391,216.996938 553.918518,217 Z M540.820438,71.4567286 C533.992015,71.4650298 528.45855,77.0114233 528.450268,83.8557997 L528.450268,163.092773 C528.450268,172.095605 535.460961,179.712392 544.410601,180.435546 C546.083964,180.570159 547.373558,181.970483 547.373773,183.653149 L547.373773,204.00691 C547.373773,207.295537 549.520999,209.305732 551.517919,210.0913 C553.51484,210.876869 556.45654,210.857499 558.685361,208.438378 L583.436438,181.559017 C584.044888,180.897815 584.900967,180.52104 585.798387,180.519483 L655.192445,180.519483 C662.020521,180.512368 667.554331,174.966592 667.562616,168.122565 L667.562616,83.8557997 C667.555515,77.0109323 662.021358,71.4638463 655.192445,71.4567286 L540.820438,71.4567286 Z" id="Shape" fill="#1E276A"></path>
                    <g id="Group" opacity="0.2" transform="translate(551.000000, 71.000000)" fill="#1E276A">
                        <path d="M111.548092,0.0905882353 C109.090848,31.2464706 52.3371378,82.6984314 29.5494346,102.177059 C23.1820565,107.625088 17.7094219,114.040135 13.3316254,121.187647 L0.0323321555,142.879216 L8.04855124,140.787059 L33.0714841,112.803922 L109.614629,111.397647 L121.812473,100.734118 L121.812473,9.3327451 L111.548092,0.0905882353 Z" id="Path"></path>
                    </g>
                    <path d="M547.15585,84 L648.835517,84 C651.687782,84 654,86.3097339 654,89.1589351 L654,160.213403 C654,163.961537 650.958269,167 647.206105,167 L548.793895,167 C545.041731,167 542,163.961537 542,160.213403 L542,89.1567792 C542.001186,86.311784 544.307799,84.0047553 547.15585,84 Z" id="Path" fill="#3C4A59"></path>
                    <path d="M647.151885,169 L548.839491,169 C543.960038,168.994068 540.00594,165.045157 540,160.172103 L540,89.2022719 C540.004752,85.2265344 543.230772,82.0047457 547.211731,82 L648.788269,82 C652.769228,82.0047457 655.995248,85.2265344 656,89.2022719 L656,160.16995 C655.995241,165.047204 652.035547,168.998814 647.151885,169 L647.151885,169 Z M547.203108,86.1038955 C545.489117,86.1062642 544.099911,87.4926851 544.09635,89.2044251 L544.09635,160.16995 C544.09635,162.786079 546.219927,164.90687 548.839491,164.90687 L647.151885,164.90687 C649.771449,164.90687 651.895026,162.786079 651.895026,160.16995 L651.895026,89.2022719 C651.891465,87.490532 650.502259,86.1041111 648.788269,86.1017423 L547.203108,86.1038955 Z" id="Shape" fill="#1E276A"></path>
                    <g id="Group" opacity="0.4" transform="translate(544.000000, 86.000000)" fill="#FFFFFF">
                        <path d="M2.1525,74.113624 L2.1525,3.16430518 C2.15490984,1.45335616 3.56380221,0.0669490378 5.3025,0.0645776567 L3.22,0.0645776567 C1.48094633,0.0669458271 0.0714263345,1.45300802 0.0678125,3.16430518 L0.0678125,74.113624 C0.0678125,76.729076 2.22244214,78.8493188 4.8803125,78.8493188 L6.9628125,78.8493188 C4.30579645,78.8481303 2.15249973,76.7282356 2.1525,74.113624 L2.1525,74.113624 Z" id="Path"></path>
                    </g>
                    <path d="M654,88.8916419 C654,86.1902874 651.669364,84 648.797071,84 L547.202929,84 C544.330636,84 542,86.1902874 542,88.8916419 L542,97 L654,97 L654,88.8916419 Z" id="Path" fill="#E0E0E0"></path>
                    <path d="M653.947513,99 L542.052487,99 C540.91893,99 540,98.0896063 540,96.9665787 L540,88.9012439 C540,85.0949868 543.253364,82 547.250539,82 L648.749461,82 C652.746636,82 656,85.0949868 656,88.9012439 L656,96.9665787 C656,98.0896063 655.08107,99 653.947513,99 Z M544.104974,94.9417012 L651.90365,94.9417012 L651.90365,88.9012439 C651.90365,87.3398668 650.491488,86.0689785 648.758085,86.0689785 L547.250539,86.0689785 C545.52576,86.0689785 544.104974,87.3398668 544.104974,88.9012439 L544.104974,94.9417012 Z" id="Shape" fill="#1E276A"></path>
                    <path d="M594.366019,108 L553.631805,108 C552.730584,108 552,107.328427 552,106.5 C552,105.671573 552.730584,105 553.631805,105 L594.368195,105 C595.269416,105 596,105.671573 596,106.5 C596,107.328427 595.269416,108 594.368195,108 L594.366019,108 Z" id="Path" fill="#FFEB3B"></path>
                    <line x1="554" y1="117" x2="578" y2="117" id="Path" fill="#FFFFFF"></line>
                    <path d="M578.361412,118 L553.636406,118 C552.732644,118 552,117.328427 552,116.5 C552,115.671573 552.732644,115 553.636406,115 L578.363594,115 C579.267356,115 580,115.671573 580,116.5 C580,117.328427 579.267356,118 578.363594,118 L578.361412,118 Z" id="Path" fill="#F75C4C"></path>
                    <path d="M636.377087,118 L586.622913,118 C585.726603,118 585,117.328427 585,116.5 C585,115.671573 585.726603,115 586.622913,115 L636.377087,115 C637.273397,115 638,115.671573 638,116.5 C638,117.328427 637.273397,118 636.377087,118 Z" id="Path" fill="#BA68C8"></path>
                    <path d="M602.383944,128 L553.613904,128 C552.72257,128 552,127.328427 552,126.5 C552,125.671573 552.72257,125 553.613904,125 L602.386096,125 C603.27743,125 604,125.671573 604,126.5 C604,127.328427 603.27743,128 602.386096,128 L602.383944,128 Z" id="Path" fill="#2ECC71"></path>
                    <path d="M626.366949,128 L610.633051,128 C609.731142,128 609,127.328427 609,126.5 C609,125.671573 609.731142,125 610.633051,125 L626.366949,125 C627.268858,125 628,125.671573 628,126.5 C628,127.328427 627.268858,128 626.366949,128 Z" id="Path" fill="#FFEB3B"></path>
                    <path d="M619.383132,137 L553.614715,137 C552.722933,137 552,136.328427 552,135.5 C552,134.671573 552.722933,134 553.614715,134 L619.385285,134 C620.277067,134 621,134.671573 621,135.5 C621,136.328427 620.277067,137 619.385285,137 L619.383132,137 Z" id="Path" fill="#F75C4C"></path>
                    <path d="M577.356807,146 L553.641005,146 C552.734703,146 552,145.328427 552,144.5 C552,143.671573 552.734703,143 553.641005,143 L577.358995,143 C578.265297,143 579,143.671573 579,144.5 C579,145.328427 578.265297,146 577.358995,146 L577.356807,146 Z" id="Path" fill="#BA68C8"></path>
                    <path d="M630.377721,146 L585.622279,146 C584.726319,146 584,145.328427 584,144.5 C584,143.671573 584.726319,143 585.622279,143 L630.377721,143 C631.273681,143 632,143.671573 632,144.5 C632,145.328427 631.273681,146 630.377721,146 Z" id="Path" fill="#2ECC71"></path>
                    <path d="M608.374277,157 L553.623558,157 C552.726892,157 552,156.328427 552,155.5 C552,154.671573 552.726892,154 553.623558,154 L608.376442,154 C609.273108,154 610,154.671573 610,155.5 C610,156.328427 609.273108,157 608.376442,157 L608.374277,157 Z" id="Path" fill="#F75C4C"></path>
                    <circle id="Oval" fill="#1E276A" cx="553.5" cy="90.5" r="1.5"></circle>
                    <circle id="Oval" fill="#1E276A" cx="559.5" cy="90.5" r="1.5"></circle>
                    <circle id="Oval" fill="#1E276A" cx="566.5" cy="90.5" r="1.5"></circle>
                    <g id="Group" transform="translate(574.000000, 60.000000)" fill="#FFFFFF" opacity="0.5">
                        <g id="Rectangle">
                            <polygon transform="translate(22.251188, 25.515052) rotate(38.590000) translate(-22.251188, -25.515052) " points="13.835136 0.920863334 30.8219739 0.867561425 30.6672406 50.1092409 13.6804027 50.1625428"></polygon>
                        </g>
                        <g transform="translate(30.931034, 1.859649)" id="Rectangle">
                            <polygon transform="translate(19.008527, 22.131312) rotate(38.590000) translate(-19.008527, -22.131312) " points="14.6886912 -2.47573015 23.4830963 -2.50332555 23.328363 46.7383539 14.5339579 46.7659493"></polygon>
                        </g>
                    </g>
                    <g id="Group" opacity="0.2" transform="translate(543.000000, 84.000000)" fill="#1E276A">
                        <path d="M108.192857,0.028025974 C108.192857,0.028025974 68.6485714,80.0874545 0.192857143,77.1404156 L3.675,82.8361558 L105.578571,82.8361558 L110.805,78.0178442 L110.785714,4.90454545 L108.192857,0.028025974 Z" id="Path"></path>
                    </g>
                    <polygon id="Path" fill="#FEF5E7" points="591.304679 450 535.695321 450 527 355 600 355"></polygon>
                    <path d="M590.496912,453 L535.503088,453 C534.001876,453 532.748219,451.846475 532.611042,450.339777 L524.011968,355.19313 C523.938,354.374034 524.209286,353.561355 524.759462,352.953902 C525.309637,352.346449 526.087956,352 526.904014,352 L599.095986,352 C599.912044,352 600.690363,352.346449 601.240538,352.953902 C601.790714,353.561355 602.062,354.374034 601.988032,355.19313 L593.386818,450.339777 C593.250685,451.846137 591.997695,453 590.496912,453 L590.496912,453 Z M538.153238,447.148805 L587.844622,447.148805 L595.91709,357.851195 L530.08291,357.851195 L538.153238,447.148805 Z" id="Shape" fill="#1E276A"></path>
                    <g id="Group" opacity="0.4" transform="translate(530.000000, 358.000000)" fill="#FFFFFF">
                        <polygon id="Path" points="0.193030303 0.117951807 8.19 88.8799036 13.9448485 88.8799036 5.94787879 0.117951807"></polygon>
                    </g>
                    <g id="Group" transform="translate(521.000000, 374.000000)">
                        <rect id="Rectangle" fill="#BE8C6B" x="2.33521951" y="2.16542857" width="83.4583415" height="48.4874286"></rect>
                        <path d="M85.793561,52.8161224 L2.33736585,52.8161224 C1.1519742,52.8161224 0.19102439,51.8475956 0.19102439,50.6528571 L0.19102439,2.16326531 C0.19102439,0.968526868 1.1519742,9.83739167e-14 2.33736585,9.83739167e-14 L85.793561,9.83739167e-14 C86.9789526,9.83739167e-14 87.9399035,0.968526868 87.9399035,2.16326531 L87.9399035,50.6506939 C87.9399035,51.2248022 87.7145918,51.7755931 87.3120129,52.1817521 C86.9094341,52.587911 86.3631782,52.8161224 85.793561,52.8161224 Z M4.48370732,48.4895918 L83.6472195,48.4895918 L83.6472195,4.32653061 L4.48370732,4.32653061 L4.48370732,48.4895918 Z" id="Shape" fill="#1E276A"></path>
                        <g opacity="0.5" transform="translate(10.517073, 4.542857)" fill="#FFFFFF" id="Path">
                            <polygon points="4.05658537 43.6655102 9.87960976 43.6655102 5.93892683 0.0670612245 0.115902439 0.0670612245"></polygon>
                        </g>
                        <path d="M32.0663415,33.4505714 C32.0942439,33.4505714 32.1178537,33.422449 32.1457561,33.4202857 C32.3603902,33.3943265 33.4850732,32.7994286 34.5947317,31.9535918 C35.8090007,31.0559949 36.9339511,30.0417145 37.9537561,28.9250204 C38.2876008,28.5496409 38.5979872,28.153722 38.883122,27.739551 C39.7652683,26.4221224 40.1043902,24.983551 40.5400976,23.3091837 C40.9758049,21.6348163 41.5317073,19.7635918 43.0341463,17.9010204 C43.0963902,17.8231429 43.1715122,17.7322857 43.2487805,17.6349388 C44.4679024,16.2655918 45.8780488,15.7009796 47.1121951,15.1428571 C47.6444878,14.8962449 48.1553171,14.6539592 48.657561,14.3640816 C47.4652792,13.7993314 46.1488135,13.5534813 44.8349268,13.6502041 C41.5832195,13.8384082 37.8807805,15.7247755 34.9617561,19.0194286 C30.724878,23.8110612 29.5959024,29.9114694 32.0663415,33.4613878 L32.0663415,33.4505714 Z" id="Path" fill="#1E276A"></path>
                        <path d="M52.7570732,26.9088571 C52.9622412,26.2990993 53.1264498,25.6761127 53.2485854,25.0441224 C53.403307,24.2666319 53.4752592,23.4747189 53.4632195,22.6818367 C53.4181463,20.7002857 52.8,18.9350612 51.5765854,17.637102 C50.7413026,18.209931 49.8519878,18.6983097 48.921561,19.0951429 C47.6187317,19.6727347 46.6657561,20.1032245 45.9166829,20.9490612 C45.8801951,20.9923265 45.8372683,21.0485714 45.7814634,21.1177959 C44.6310244,22.5433878 44.1931707,23.9624898 43.7660488,25.5741224 C43.3389268,27.1857551 42.9654634,28.9639592 41.7592195,30.7659592 C41.4084137,31.278749 41.0248373,31.7679617 40.6109268,32.2304898 C39.476229,33.4885131 38.2177442,34.627181 36.8548293,35.6289796 C36.1904549,36.1287219 35.4942601,36.5839857 34.7707317,36.9918367 C36.0585366,37.9025714 37.6682927,38.2897959 39.4046829,38.1859592 C42.6241951,38.0020816 46.2965854,36.1438367 49.2027317,32.8946122 C49.2284878,32.8664898 49.2542439,32.8383673 49.2778537,32.8167347 C50.8154669,31.0999956 51.9995361,29.0926036 52.7613659,26.9110204 L52.7570732,26.9088571 Z" id="Path" fill="#1E276A"></path>
                    </g>
                    <path d="M530.862965,348 L596.145679,348 C601.58807,348 606,352.327888 606,357.666603 L606,359 L521,359 L521,357.666603 C521,355.101392 522.039406,352.641368 523.889319,350.828285 C525.739233,349.015202 528.247939,347.997754 530.862965,348 Z" id="Path" fill="#707070"></path>
                    <path d="M605.103611,362 L520.904952,362 C519.301427,362 518.001182,360.694092 518,359.082395 L518,357.729022 C518.00826,350.701579 523.674808,345.007114 530.666619,345 L595.333381,345 C602.325192,345.007114 607.99174,350.701579 608,357.729022 L608,359.082395 C607.998828,360.690737 606.703791,361.99526 605.103611,362 L605.103611,362 Z M523.996147,356.162638 L602.020979,356.162638 C601.293762,353.044886 598.52799,350.839702 595.341944,350.837362 L530.675182,350.837362 C527.489136,350.839702 524.723363,353.044886 523.996147,356.162638 Z" id="Shape" fill="#1E276A"></path>
                    <g id="Group" opacity="0.5" transform="translate(524.000000, 351.000000)" fill="#FFFFFF">
                        <path d="M8.78958449,2.16692308 L74.061108,2.16692308 C75.4289776,2.17260275 76.7639437,2.61545485 77.8941274,3.43846154 C76.6198685,1.34643094 74.4424574,0.0833790135 72.1057064,0.0807692308 L6.83634349,0.0807692308 C3.62088504,0.0841262056 0.829772257,2.44889397 0.0950692521,5.79230769 L2.85207756,5.79230769 C4.09387484,3.5497735 6.3501991,2.17208361 8.78958449,2.16692308 Z" id="Path"></path>
                    </g>
                    <path d="M531,348 L595,348 L595,344.16173 C595,341.013521 592.521708,338.424059 589.378349,338.289284 L537.130952,336.005674 C535.52988,335.935263 533.969591,336.522598 532.811887,337.631489 C531.654183,338.74038 531,340.274502 531,341.87812 L531,348 Z" id="Path" fill="#707070"></path>
                    <path d="M595.082945,351 L530.921333,351 C529.307577,350.998802 528,349.680264 528,348.054179 L528,341.88033 C528.001325,339.458762 528.983465,337.142647 530.719197,335.467827 C532.45493,333.793008 534.793863,332.904598 537.194875,333.008135 L589.569898,335.307047 C594.287713,335.505142 598.00869,339.42127 597.999985,344.179242 L597.999985,348.054179 C597.999985,349.678571 596.695018,350.996409 595.082945,351 L595.082945,351 Z M533.844821,345.11053 L592.155157,345.11053 L592.155157,344.179242 C592.158785,342.576578 590.904878,341.257491 589.315682,341.192176 L536.93635,338.893263 C536.127791,338.857729 535.339926,339.156608 534.755372,339.720623 C534.170819,340.284639 533.840512,341.06482 533.840512,341.88033 L533.844821,345.11053 Z" id="Shape" fill="#1E276A"></path>
                    <g id="Group" opacity="0.5" transform="translate(534.000000, 339.000000)" fill="#FFFFFF">
                        <path d="M2.03,3.772 C2.02713886,3.01994844 2.35986771,2.30006628 2.94977612,1.782 C3.53313836,1.25593243 4.32818057,0.979593218 5.14208955,1.02 L57.7597761,3.138 C57.8052239,3.138 57.8485075,3.152 57.891791,3.156 C57.3600191,2.59932393 56.6061031,2.26648557 55.8033582,2.234 L3.18350746,0.116 C2.37029498,0.0759136509 1.57605478,0.352246888 0.993358209,0.878 C0.4034498,1.39606628 0.0707209482,2.11594844 0.0735637885,2.868 L0.0735637885,5.844 L2.02134328,5.844 L2.03,3.772 Z" id="Path"></path>
                    </g>
                    <g id="Group" opacity="0.3" transform="translate(530.000000, 360.000000)" fill="#1E276A">
                        <path d="M0.195436242,0.114133663 L0.463892617,3.07299505 L42.6008054,4.53089109 C46.0350275,4.64916798 49.2511928,6.248076 51.4240386,8.91733796 C53.5968845,11.5865999 54.5149096,15.0663944 53.9425503,18.4638119 C50.1991946,40.732797 39.0271141,83.0354703 7.97208054,85.6993069 L8.07731544,86.8794059 L55.9892617,86.8794059 L63.8711409,0.114133663 L0.195436242,0.114133663 Z" id="Path"></path>
                    </g>
                    <g id="Group" opacity="0.3" transform="translate(0.000000, 520.000000)" fill="#1E276A">
                        <rect id="Rectangle" x="0" y="0" width="682" height="40" rx="20"></rect>
                    </g>
                    <path d="M174.002141,284 C170.480852,284.01907 167.223393,282.131309 165.482514,279.062533 L157.628784,265.422728 L137.591922,265.422728 C129.539065,265.373355 123,259.321953 123,251.931043 L123,215.493832 C123,208.053549 129.581888,202 137.669004,202 L210.333137,202 C218.420253,202 225,208.053549 225,215.493832 L225,251.935336 C225,259.37562 218.420253,265.429168 210.333137,265.429168 L190.375499,265.429168 L182.519627,279.068972 C180.778467,282.13559 177.521687,284.02097 174.002141,284 Z" id="Path" fill="#BA68C8"></path>
                    <path d="M209.899831,204.838619 C216.133428,204.838619 221.189377,209.356109 221.189377,214.949191 L221.189377,251.467718 C221.189377,257.060801 216.133428,261.578291 209.899831,261.578291 L187.938521,261.578291 L185.834199,265.235306 L179.085783,276.948512 C177.934068,278.949721 175.805107,280.182592 173.501073,280.182592 C171.197038,280.182592 169.068077,278.949721 167.916362,276.948512 L161.170091,265.226702 L159.063624,261.569686 L137.027237,261.569686 C130.827961,261.533116 125.812768,257.024231 125.812768,251.459114 L125.812768,214.94704 C125.812768,209.364714 130.866572,204.836468 137.102314,204.836468 L209.899831,204.836468 M209.899831,198 L137.102314,198 C127.121266,198 119,205.597988 119,214.938436 L119,251.456962 C119,260.735026 127.069784,268.333014 136.98648,268.391096 L155.131696,268.391096 L155.271126,268.629877 L162.017397,280.351688 C164.386374,284.465733 168.763831,287 173.501073,287 C178.238314,287 182.615771,284.465733 184.984748,280.351688 L191.733164,268.629877 L191.870449,268.391096 L209.899831,268.391096 C219.880879,268.391096 228,260.793108 228,251.45266 L228,214.94704 C228,205.606592 219.880879,198.008605 209.899831,198.008605 L209.899831,198 Z" id="Shape" fill="#1E276A"></path>
                    <path d="M162.896197,245 C162.347977,245.001623 161.820915,244.784553 161.427842,244.39525 L150.635434,233.695815 C150.229196,233.293477 150,232.740842 150,232.163661 C150,231.58648 150.229196,231.033845 150.635434,230.631507 L160.744008,220.62229 C161.279109,220.079802 162.059089,219.872073 162.786351,220.07836 C163.513614,220.284647 164.075968,220.873128 164.258853,221.619273 C164.441737,222.365417 164.21694,223.154121 163.670229,223.684461 L155.118112,232.163661 L164.366649,241.333079 C164.978102,241.940396 165.167105,242.864705 164.844549,243.670222 C164.521992,244.47574 163.752275,245.001645 162.898294,245 L162.896197,245 Z" id="Path" fill="#FFFFFF"></path>
                    <path d="M185.103471,245 C184.248773,245.001653 183.478409,244.475054 183.155582,243.668475 C182.832755,242.861895 183.021916,241.936368 183.633883,241.32825 L192.888087,232.146745 L184.330887,223.656367 C183.515439,222.829266 183.505004,221.487343 184.307489,220.647175 C185.109974,219.807006 186.426426,219.78158 187.259566,220.590159 L197.364032,230.612571 C197.770612,231.015439 198,231.568803 198,232.146745 C198,232.724687 197.770612,233.27805 197.364032,233.680918 L186.562562,244.394458 C186.171762,244.781691 185.648519,244.998843 185.103471,245 Z" id="Path" fill="#FFFFFF"></path>
                    <path d="M169.171417,251 C168.983747,251 168.796898,250.975307 168.615745,250.926433 C167.457355,250.620806 166.766549,249.437271 167.072455,248.282364 L175.71792,215.662078 C175.900662,214.897853 176.484606,214.292415 177.243484,214.080361 C178.002362,213.868307 178.816922,214.082959 179.371536,214.641144 C179.92615,215.199329 180.133666,216.013331 179.913673,216.76774 L171.268208,249.385863 C171.017898,250.336002 170.156891,250.998817 169.171417,251 L169.171417,251 Z" id="Path" fill="#FFFFFF"></path>
                    <g id="Group" opacity="0.6" transform="translate(520.000000, 275.000000)" fill="#FFFAFA">
                        <path d="M43.0154321,42.9208458 C42.1205263,42.9208458 41.3950617,42.2024967 41.3950617,41.3163682 L41.3950617,39.0786567 C41.3938735,37.017907 39.7083197,35.3469713 37.6271605,35.3434328 L18.0682099,35.3434328 C13.8669252,35.3434328 10.4611111,31.9710233 10.4611111,27.8109453 C10.4611111,23.6508673 13.8669252,20.2784577 18.0682099,20.2784577 L63.4753086,20.2784577 C65.3158962,20.2324647 66.7838183,18.7417967 66.7838183,16.9186816 C66.7838183,15.0955665 65.3158962,13.6048984 63.4753086,13.5589055 L25.720679,13.5589055 C24.8257732,13.5589055 24.1003086,12.8405564 24.1003086,11.9544279 C24.1003086,11.0682993 24.8257732,10.3499502 25.720679,10.3499502 L63.4753086,10.3499502 C67.0923906,10.4145887 69.9904628,13.3364931 69.9904628,16.9186816 C69.9904628,20.5008701 67.0923906,23.4227745 63.4753086,23.4874129 L18.0682099,23.4874129 C15.6567369,23.4874129 13.7018519,25.4231243 13.7018519,27.8109453 C13.7018519,30.1987662 15.6567369,32.1344776 18.0682099,32.1344776 L37.6271605,32.1344776 C41.4976377,32.1391967 44.6334221,35.2461394 44.6358025,39.0786567 L44.6358025,41.3163682 C44.6358025,41.7419021 44.4650854,42.1500072 44.161207,42.4509052 C43.8573286,42.7518031 43.445181,42.9208458 43.0154321,42.9208458 Z" id="Path"></path>
                        <path d="M17.7592593,13.5589055 L12.057716,13.5589055 C11.1628102,13.5589055 10.4373457,12.8405564 10.4373457,11.9544279 C10.4373457,11.0682993 11.1628102,10.3499502 12.057716,10.3499502 L17.7592593,10.3499502 C18.6541651,10.3499502 19.3796296,11.0682993 19.3796296,11.9544279 C19.3796296,12.8405564 18.6541651,13.5589055 17.7592593,13.5589055 L17.7592593,13.5589055 Z" id="Path"></path>
                        <path d="M28.5941358,3.39507463 L1.70246914,3.39507463 C0.807563291,3.39507463 0.0820987654,2.67672553 0.0820987654,1.79059701 C0.0820987654,0.904468498 0.807563291,0.186119403 1.70246914,0.186119403 L28.5941358,0.186119403 C29.4890416,0.186119403 30.2145062,0.904468498 30.2145062,1.79059701 C30.2145062,2.67672553 29.4890416,3.39507463 28.5941358,3.39507463 L28.5941358,3.39507463 Z" id="Path"></path>
                    </g>
                    <g id="Group" opacity="0.2" transform="translate(170.000000, 205.000000)" fill="#1E276A">
                        <path d="M40.5643154,0.170568182 L33.0124481,0.170568182 C39.2826556,0.170568182 44.3682988,4.70465909 44.3682988,10.3182955 L44.3682988,23.1735227 C41.2116183,48.5795455 22.720332,51.4014773 14.4564315,55.4886364 C12.1040413,56.6442299 10.1466194,58.4714532 8.83136929,60.7395455 L8.8033195,60.7870455 L2.01742739,72.5454545 C1.55729196,73.3486052 0.929532443,74.0430545 0.176929461,74.5814773 C1.66604795,75.6458575 3.53501638,76.0317117 5.32352921,75.6440082 C7.11204203,75.2563047 8.65387585,74.1310765 9.56929461,72.5454545 L15.8610788,61.6420455 L43.9108714,58.8352273 L45.5722822,56.0651136 C49.3309544,54.41125 51.9244813,50.9653409 51.9244813,46.9688636 L51.9244813,10.3161364 C51.9223237,4.71329545 46.8366805,0.170568182 40.5643154,0.170568182 Z" id="Path"></path>
                    </g>
                </g>
                <text id="developer" font-family="SFCompactDisplay-Bold, SF Compact Display" font-size="60" font-weight="bold" letter-spacing="1.28571434" fill="#1E276A">
                    <tspan x="0" y="140">developer</tspan>
                </text>
                <text id="designer" font-family="SFCompactDisplay-Bold, SF Compact Display" font-size="72" font-weight="bold" letter-spacing="1.5428572" fill="#CB5152">
                    <tspan x="568" y="263">designer</tspan>
                </text>
            </g>
        </g>
    </g>
</svg>