<?xml version="1.0" encoding="UTF-8"?>
<svg width="2006px" height="2081px" viewBox="0 0 2006 2081" version="1.1" xmlns="http://www.w3.org/2000/svg" xmlns:xlink="http://www.w3.org/1999/xlink">
    <title>Group 14</title>
    <g id="Page-1" stroke="none" stroke-width="1" fill="none" fill-rule="evenodd">
        <g id="Group-14">
            <g id="hero-copy" fill-rule="nonzero">
                <path d="M1011.82519,2078.82094 C696.445186,2078.82094 381.075186,2078.82094 65.6951858,2078.85094 C56.7851858,2078.85094 47.8951858,2078.45094 38.9751858,2080.38094 C31.6351858,2081.97094 25.6551858,2080.09094 25.2351858,2070.53094 C24.8051858,2060.77094 29.4951858,2055.27094 38.7151858,2056.14094 C76.0651858,2059.64094 113.465186,2056.63094 150.815186,2057.72094 C154.005186,2057.81094 157.225186,2057.68094 160.395186,2058.01094 C165.565186,2058.55094 172.365186,2062.73094 175.255186,2056.84094 C177.985186,2051.25094 172.045186,2045.80094 167.995186,2042.45094 C148.125186,2025.97094 127.705186,2010.16094 107.455186,1994.15094 C71.4951858,1965.74094 36.3651858,1936.49094 16.3351858,1893.74094 C-7.18481419,1843.57094 -5.48481419,1794.24094 22.5951858,1746.17094 C28.3951858,1736.25094 34.5951858,1726.56094 40.2751858,1716.57094 C46.0351858,1706.43094 49.1751858,1696.21094 46.8951858,1683.76094 C40.3651858,1648.12094 44.9951858,1613.67094 62.8151858,1581.74094 C83.2951858,1545.03094 91.4051858,1505.66094 90.7051858,1463.94094 C90.1751858,1432.64094 98.2251858,1402.65094 112.735186,1375.56094 C147.195186,1311.24094 161.215186,1240.79094 179.275186,1171.24094 C201.195186,1086.83094 232.655186,1005.94094 279.445186,931.660938 C313.835186,877.070938 360.065186,835.090938 414.245186,800.680938 C477.885186,760.260938 540.475186,718.180938 603.875186,677.380938 C621.965186,665.740938 616.485186,649.180938 613.935186,634.300938 C601.285186,560.450938 605.815186,488.390938 631.095186,417.470938 C653.515186,354.580938 670.505186,289.770938 696.995186,228.310938 C718.235186,179.020938 739.315186,129.490938 777.825186,90.2809377 C801.835186,65.8409377 829.855186,47.0109377 861.165186,33.4009377 C903.855186,14.8209377 948.015186,1.55093773 995.045186,0.120937727 C1055.20519,-1.70906227 1109.27519,17.3709377 1160.18519,47.7309377 C1201.87519,72.6009377 1239.29519,101.790938 1261.12519,146.730938 C1276.66519,178.720938 1287.63519,212.510938 1298.16519,246.360938 C1312.20519,291.460938 1326.20519,336.650938 1333.15519,383.540938 C1342.30519,445.260938 1353.80519,506.630938 1359.71519,568.860938 C1361.24519,584.960938 1360.72519,600.670938 1359.19519,616.490938 C1356.47519,644.650938 1370.85519,661.830938 1393.90519,674.960938 C1481.03519,724.630938 1567.02519,776.010938 1648.81519,834.380938 C1700.01519,870.920938 1736.00519,918.390938 1763.83519,973.770938 C1786.34519,1018.56094 1812.37519,1061.57094 1828.64519,1109.39094 C1840.05519,1142.95094 1840.63519,1178.39094 1847.97519,1212.66094 C1858.59519,1262.24094 1876.49519,1309.42094 1892.76519,1357.20094 C1903.33519,1388.25094 1920.62519,1418.84094 1918.75519,1451.75094 C1916.23519,1495.87094 1923.37519,1535.47094 1943.36519,1575.16094 C1961.37519,1610.91094 1969.75519,1650.30094 1960.39519,1691.43094 C1956.82519,1707.14094 1965.96519,1719.82094 1974.79519,1731.70094 C2014.07519,1784.55094 2016.29519,1856.70094 1979.45519,1909.31094 C1966.38519,1927.98094 1947.79519,1941.58094 1932.08519,1957.85094 C1907.24519,1983.57094 1882.66519,2009.62094 1849.82519,2025.94094 C1840.53519,2030.55094 1837.81519,2041.30094 1834.35519,2050.58094 C1832.86519,2054.58094 1835.64519,2055.52094 1838.92519,2055.82094 C1845.26519,2056.40094 1851.58519,2057.46094 1857.92519,2057.65094 C1897.51519,2058.85094 1937.16519,2055.58094 1976.73519,2059.54094 C1983.25519,2060.19094 1986.97519,2062.64094 1986.86519,2069.48094 C1986.75519,2076.48094 1982.61519,2078.94094 1976.21519,2078.83094 C1973.33519,2078.78094 1970.45519,2078.83094 1967.57519,2078.83094 C1648.99519,2078.83094 1330.41519,2078.83094 1011.83519,2078.83094 L1011.82519,2078.82094 Z" id="Path" fill="#0B082D"></path>
                <path d="M1529.34519,1327.56094 C1541.07519,1341.24094 1544.11519,1357.69094 1544.01755,1374.95094 C1543.52519,1463.21094 1542.44519,1551.48094 1542.43519,1639.74094 C1542.41519,1743.68094 1543.11519,1847.62094 1543.97519,1951.56094 C1544.06519,1962.15094 1541.97519,1965.67094 1530.53519,1965.66094 C1191.50519,1965.41094 852.475186,1965.51094 513.435186,1965.80094 C505.005186,1965.80094 495.395186,1961.12094 488.135186,1969.72094 C486.025186,1971.40094 484.005186,1971.19094 482.045186,1969.44094 C481.385186,1968.12094 480.715186,1966.79094 480.055186,1965.47094 C475.205186,1960.85094 475.405186,1954.49094 474.455186,1948.60094 C473.895186,1945.15094 474.175186,1941.58094 474.165186,1938.06094 C474.135186,1749.41094 474.165186,1560.76094 474.103919,1372.10094 C474.103919,1361.70094 474.835186,1351.59094 480.775186,1342.69094 C488.585186,1330.99094 500.325186,1326.90094 513.725186,1326.31094 C519.795186,1326.04094 525.875186,1326.12094 531.945186,1326.12094 C628.185186,1326.12094 724.435186,1326.57094 820.675186,1326.02094 C1008.97519,1324.94094 1197.24519,1329.62094 1385.53519,1327.68094 C1426.08519,1327.26094 1466.65519,1326.39094 1507.22519,1326.10094 C1514.60519,1326.05094 1522.35519,1321.36094 1529.33519,1327.55094 L1529.34519,1327.56094 Z" id="Path" fill="#5CA2A6"></path>
                <path d="M1822.05519,1661.91094 C1782.68519,1657.10094 1748.10519,1672.35094 1713.47519,1687.65094 C1709.82519,1689.26094 1704.64519,1694.04094 1701.80519,1689.28094 C1699.49519,1685.40094 1705.03519,1681.61094 1708.18519,1678.54094 C1729.74519,1657.54094 1756.76519,1647.21094 1785.00519,1639.21094 C1792.05519,1637.21094 1798.96519,1634.69094 1805.86519,1632.21094 C1807.12519,1631.76094 1808.04519,1630.36094 1809.11519,1629.40094 C1807.76519,1628.83094 1806.41519,1627.78094 1805.05519,1627.75094 C1792.28519,1627.48094 1779.50519,1627.27094 1766.73519,1627.28094 C1750.04519,1627.30094 1744.84519,1620.59094 1748.83519,1604.41094 C1751.88519,1592.06094 1759.13519,1581.07094 1760.31519,1568.15094 L1760.47519,1568.34094 C1726.80519,1601.60094 1696.28519,1637.58094 1668.12519,1675.59094 C1666.30519,1679.71094 1663.04519,1679.98094 1659.49519,1678.45094 C1654.15519,1676.16094 1650.99519,1671.85094 1650.43519,1666.15094 C1649.66519,1658.35094 1651.93519,1651.25094 1656.62519,1644.95094 C1675.64519,1608.69094 1704.30519,1579.34094 1727.54519,1546.11094 C1728.27519,1545.07094 1729.29519,1544.23094 1730.00519,1543.17094 C1732.07519,1540.09094 1736.51519,1536.32094 1733.98519,1533.45094 C1731.70519,1530.86094 1728.16519,1535.63094 1725.45519,1537.39094 C1719.58519,1541.20094 1713.53519,1545.03094 1708.59519,1549.89094 C1700.93519,1557.43094 1695.94519,1555.35094 1691.81519,1546.79094 C1687.55519,1537.95094 1689.70519,1529.67094 1693.31519,1520.99094 C1718.54519,1460.29094 1757.29519,1409.20094 1804.05519,1363.68094 C1807.41519,1360.41094 1809.86519,1356.21094 1812.73519,1352.44094 C1806.82519,1351.36094 1803.81519,1356.34094 1799.87519,1358.97094 C1786.05519,1368.21094 1772.50519,1377.85094 1758.93519,1387.47094 C1752.74519,1391.86094 1749.41519,1391.15094 1748.17519,1383.00094 C1744.31519,1357.58094 1731.72519,1336.89094 1712.76519,1319.91094 C1701.65519,1309.97094 1700.18519,1298.67094 1706.21519,1285.31094 C1720.66519,1253.27094 1736.84519,1221.99094 1749.03519,1188.95094 C1749.87519,1186.67094 1749.89519,1184.08094 1750.29519,1181.63094 C1748.22519,1182.87094 1745.78519,1183.75094 1744.13519,1185.42094 C1730.62519,1199.03094 1717.46519,1212.99094 1703.81519,1226.46094 C1685.61519,1244.43094 1665.18519,1259.00094 1640.07519,1265.87094 C1633.43519,1267.69094 1626.77519,1269.00094 1621.31519,1263.12094 C1616.24519,1257.65094 1618.87519,1251.78094 1620.70519,1245.98094 C1634.46519,1202.39094 1648.25519,1158.82094 1661.86519,1115.19094 C1662.94519,1111.72094 1665.72519,1106.66094 1662.59519,1104.52094 C1659.22519,1102.22094 1655.92519,1106.99094 1653.13519,1109.29094 C1618.98519,1137.52094 1594.92519,1173.56094 1574.14519,1212.08094 C1567.01519,1225.30094 1560.29519,1238.75094 1553.39519,1252.10094 C1551.02519,1256.69094 1548.25519,1262.63094 1542.96519,1261.98094 C1538.03519,1261.37094 1535.66519,1255.41094 1534.00519,1250.42094 C1527.00519,1229.43094 1531.10519,1209.99094 1542.64519,1191.83094 C1571.09519,1147.04094 1599.71519,1102.35094 1628.26519,1057.62094 C1638.44519,1040.67094 1647.07519,1022.86094 1657.30519,1005.93094 C1670.03519,984.850938 1681.89519,963.250938 1694.61519,942.160938 C1697.55519,937.290938 1699.71519,929.410938 1708.67519,932.930938 C1724.46519,951.710938 1734.60519,973.920938 1746.07519,995.250938 C1768.06519,1036.14094 1785.10519,1079.26094 1803.05519,1122.03094 C1816.79519,1154.77094 1817.07519,1189.23094 1822.81519,1223.05094 C1833.02519,1283.11094 1857.10519,1338.76094 1878.73519,1395.14094 C1890.51519,1425.83094 1896.41519,1456.81094 1891.68519,1489.93094 C1888.17519,1514.51094 1895.87519,1537.47094 1908.44519,1558.59094 C1926.17519,1588.37094 1934.57519,1620.90094 1937.53519,1655.06094 C1938.47519,1665.96094 1937.97519,1677.00094 1933.74519,1687.20094 C1929.40519,1697.65094 1930.97519,1706.94094 1936.09519,1716.54094 C1947.08519,1737.13094 1957.97519,1757.79094 1968.38519,1778.68094 C1989.43519,1820.92094 1978.43519,1881.98094 1942.46519,1912.60094 C1920.45519,1931.33094 1900.29519,1951.72094 1880.01519,1972.12094 C1870.52519,1981.67094 1860.19519,1990.19094 1849.07519,1997.84094 C1838.67519,2004.99094 1831.49519,2003.39094 1824.83519,1992.28094 C1797.68519,1946.94094 1769.06519,1902.60094 1730.98519,1865.32094 C1726.27519,1860.71094 1722.36519,1854.94094 1715.57519,1852.83094 C1715.28519,1860.01094 1720.36519,1864.93094 1723.33519,1870.65094 C1734.70519,1892.50094 1746.93519,1913.95094 1751.66519,1938.54094 C1754.88519,1955.28094 1754.30519,1971.71094 1746.37519,1987.20094 C1742.54519,1994.69094 1736.91519,2000.92094 1727.70519,1999.61094 C1718.15519,1998.25094 1711.55519,1992.75094 1709.62519,1982.47094 C1705.72519,1961.76094 1702.59519,1940.81094 1697.18519,1920.48094 C1683.84519,1870.32094 1653.22519,1834.71094 1604.80519,1814.85094 C1595.05519,1810.85094 1585.68519,1805.91094 1576.03519,1801.66094 C1567.55519,1797.92094 1568.25519,1792.28094 1574.28519,1787.92094 C1593.93519,1773.73094 1612.44519,1757.81094 1634.18519,1746.66094 C1647.23519,1739.97094 1661.02519,1736.54094 1675.81519,1737.48094 C1694.95519,1738.70094 1714.15519,1739.25094 1733.24519,1740.94094 C1759.78519,1743.29094 1783.72519,1752.08094 1802.77519,1771.68094 C1804.02519,1772.96094 1806.87519,1774.84094 1807.13519,1774.59094 C1809.36519,1772.35094 1806.88519,1770.67094 1805.91519,1768.86094 C1790.90519,1741.02094 1766.36519,1729.39094 1735.93519,1727.55094 C1729.60519,1727.17094 1723.32519,1725.87094 1717.02519,1724.99094 C1712.65519,1722.73094 1707.77519,1720.67094 1713.21519,1714.76094 C1741.87519,1708.29094 1770.47519,1701.31094 1800.19519,1702.64094 C1822.61519,1703.64094 1842.60519,1711.87094 1860.44519,1724.98094 C1894.17519,1749.79094 1921.39519,1780.26094 1939.67519,1818.30094 C1942.34519,1823.85094 1944.53519,1831.43094 1953.01519,1829.24094 C1961.38519,1827.08094 1962.20519,1819.57094 1962.44519,1812.27094 C1962.72519,1803.59094 1959.55519,1795.85094 1955.08519,1788.81094 C1916.24519,1727.53094 1861.57519,1690.60094 1789.02519,1681.36094 C1786.02519,1680.98094 1781.25519,1682.24094 1780.80519,1678.63094 C1780.34519,1674.99094 1785.15519,1674.71094 1788.10519,1673.94094 C1799.23519,1671.07094 1810.41519,1668.39094 1821.57519,1665.63094 C1822.52519,1664.49094 1826.76519,1663.75094 1822.04519,1661.90094 L1822.05519,1661.91094 Z" id="Path" fill="#5CA2A6"></path>
                <path d="M1015.34519,370.570938 C1015.51519,383.360938 1015.37519,396.160938 1015.96519,408.930938 C1016.26519,415.460938 1013.89519,417.860938 1007.51519,418.680938 C962.495186,424.470938 918.655186,437.060938 873.495186,442.150938 C841.375186,445.780938 816.585186,462.520938 797.135186,487.250938 C767.225186,525.270938 732.345186,558.840938 701.305186,595.810938 C687.095186,612.730938 674.095186,630.550938 664.925186,650.850938 C665.355186,654.470938 667.235186,651.940938 668.565186,651.700938 C710.325186,605.500938 753.625186,560.640938 791.735186,511.250938 C820.485186,474.010938 857.315186,453.800938 905.115186,450.520938 C938.075186,448.250938 970.595186,439.880938 1003.40519,434.800938 C1008.83519,433.960938 1018.08519,428.520938 1019.05519,439.860938 C1019.86519,449.340938 1023.82519,461.020938 1005.38519,460.770938 C954.605186,460.110938 906.035186,472.650938 858.695186,489.900938 C842.865186,495.670938 827.315186,502.860938 816.925186,517.380938 C817.465186,517.570938 817.655186,517.950938 817.515186,518.470938 C817.535186,518.440938 817.025186,518.810938 817.035186,518.810938 C817.045186,518.810938 817.295186,519.380938 817.325186,519.380938 C817.355186,519.380938 817.715186,518.850938 817.725186,518.840938 C817.725186,518.840938 818.385186,518.730938 818.385186,518.730938 C866.335186,490.820938 919.125186,479.700938 973.505186,474.240938 C982.295186,473.360938 990.635186,475.950938 998.295186,480.300938 C1000.07519,481.310938 1001.37519,483.190938 1002.89519,484.660938 C1000.92519,485.330938 998.995186,486.380938 996.965186,486.630938 C965.885186,490.400938 934.895186,494.580938 904.495186,502.470938 C859.855186,514.040938 821.215186,535.530938 788.545186,568.450938 C745.655186,611.670938 705.295186,656.890938 672.185186,708.150938 C653.185186,737.570938 638.545186,768.450938 642.935186,805.120938 C645.305186,824.940938 652.715186,841.740938 667.815186,855.350938 C684.735186,870.610938 703.515186,883.300938 721.745186,896.790938 C722.605186,897.060938 723.425186,897.440938 724.225186,897.790938 C724.205186,897.780938 725.015186,897.750938 724.985186,897.730938 C725.355186,897.290938 725.445186,896.810938 725.225186,896.280938 C722.725186,893.170938 720.225186,890.070938 717.725186,886.960938 C716.905186,883.090938 718.375186,881.520938 722.295186,882.420938 C749.085186,916.180938 775.745186,950.050938 810.525186,976.340938 C813.355186,978.480938 815.005186,982.420938 816.685186,985.790938 C818.045186,988.500938 817.805186,991.730938 815.135186,993.570938 C812.455186,995.410938 810.375186,992.850938 808.435186,991.400938 C757.105186,952.840938 709.265186,910.200938 662.425186,866.400938 C646.115186,851.150938 640.965186,829.810938 632.495186,810.310938 C629.075186,805.830938 627.875186,800.830938 627.775186,795.160938 C627.165186,759.960938 632.945186,725.390938 637.805186,690.730938 C638.385186,686.610938 640.675186,682.990938 642.965186,679.510938 C652.605186,622.530938 662.265186,565.550938 671.825186,508.560938 C672.345186,505.480938 671.995186,502.250938 672.055186,499.090938 L672.195186,499.250938 C660.045186,516.210938 655.565186,536.290938 649.505186,555.690938 C646.075186,566.660938 643.355186,577.850938 640.185186,588.910938 C639.535186,591.190938 639.695186,595.050938 636.455186,594.690938 C633.515186,594.370938 634.065186,590.650938 633.615186,588.230938 C626.925186,551.630938 630.065186,515.280938 640.155186,480.010938 C668.815186,379.820938 701.465186,281.110938 745.035186,186.040938 C786.075186,96.5109377 857.465186,50.0509377 950.525186,30.9609377 C965.165186,27.9609377 979.975186,25.7409377 994.705186,23.1709377 C996.535186,25.2809377 996.505186,27.8509377 996.525186,30.4209377 C996.785186,73.5009377 1000.38519,116.620938 998.275186,159.640938 C995.765186,211.050938 997.535186,262.430938 996.735186,313.810938 C996.415186,334.420938 988.285186,350.900938 969.965186,360.280938 C932.755186,379.340938 896.265186,399.850938 858.175186,417.160938 C856.155186,418.080938 853.965186,418.640938 851.875186,419.360938 C850.715186,419.830938 849.575186,420.390938 848.585186,421.200938 C849.655186,420.570938 850.645186,419.780938 851.875186,419.430938 C875.905186,408.980938 901.235186,401.860938 925.255186,391.560938 C949.025186,381.370938 971.705186,368.760938 992.185186,352.670938 C998.315186,347.850938 1002.57519,341.600938 1005.66519,334.360938 C1006.98519,331.260938 1007.86519,325.020938 1014.00519,329.920938 C1015.18519,343.450938 1019.56519,356.880938 1015.37519,370.590938 L1015.34519,370.570938 Z" id="Path" fill="#5CA2A6"></path>
                <path d="M424.885186,1313.05094 C425.915186,1328.87094 426.955186,1344.69094 427.985186,1360.51094 C425.205186,1364.05094 421.935186,1363.61094 418.485186,1361.68094 C403.975186,1339.51094 389.565186,1317.27094 374.875186,1295.22094 C372.035186,1290.96094 370.705186,1285.14094 364.735186,1283.50094 C363.605186,1289.37094 367.285186,1293.86094 369.375186,1298.69094 C387.955186,1341.49094 406.145186,1384.47094 425.685186,1426.83094 C436.675186,1450.66094 435.565186,1472.44094 420.885186,1493.84094 C412.585186,1499.78094 404.215186,1496.24094 396.295186,1493.35094 C381.015186,1487.79094 366.455186,1480.55094 352.465186,1472.23094 C342.065186,1466.05094 331.615186,1459.95094 321.415186,1453.43094 C320.435186,1452.80094 319.115186,1451.41094 318.215186,1452.33094 C317.325186,1453.25094 318.695186,1454.58094 319.345186,1455.58094 C329.205186,1470.82094 339.685186,1485.65094 349.025186,1501.22094 C351.125186,1504.71094 354.025186,1507.98094 352.825186,1512.60094 C371.575186,1548.01094 396.815186,1579.17094 418.335186,1612.77094 C421.225186,1617.29094 427.555186,1622.27094 422.345186,1627.86094 C417.155186,1633.43094 411.085186,1628.78094 405.895186,1625.75094 C366.145186,1602.63094 326.425186,1579.45094 286.695186,1556.29094 C284.565186,1555.76094 283.655186,1556.43094 284.375186,1558.67094 C308.905186,1590.31094 338.935186,1616.79094 366.085186,1645.98094 C374.535186,1655.07094 382.255186,1664.85094 390.145186,1674.45094 C391.575186,1676.20094 394.875186,1678.25094 392.655186,1680.62094 C391.615186,1681.73094 387.645186,1681.07094 385.545186,1680.07094 C374.325186,1674.73094 363.165186,1669.23094 352.185186,1663.41094 C342.885186,1658.48094 334.005186,1652.76094 324.655186,1647.93094 C318.905186,1644.96094 314.035186,1639.66094 306.725186,1640.32094 C308.555186,1647.10094 314.305186,1651.11094 318.175186,1656.45094 C321.535186,1661.08094 325.195186,1665.50094 328.715186,1670.01094 C326.325186,1672.82094 323.185186,1672.77094 320.005186,1672.13094 C300.235186,1668.12094 280.515186,1663.90094 261.345186,1657.48094 C237.805186,1646.97094 213.165186,1639.76094 188.295186,1633.20094 C181.625186,1631.44094 174.365186,1630.97094 169.015186,1625.71094 C162.765186,1617.96094 153.465186,1619.47094 145.285186,1618.48094 C136.475186,1617.41094 127.455186,1618.56094 118.555186,1618.05094 C103.075186,1617.17094 98.6751858,1610.19094 104.915186,1596.00094 C114.775186,1573.57094 124.135186,1550.91094 135.075186,1528.97094 C145.735186,1517.17094 149.465186,1502.37094 152.975186,1487.47094 C152.975186,1486.52094 153.075186,1485.59094 153.225186,1484.66094 C153.765186,1482.34094 154.235186,1480.01094 154.495186,1477.64094 C169.785186,1412.33094 182.715186,1346.44094 202.145186,1282.14094 C227.975186,1196.68094 258.035186,1112.79094 295.245186,1031.59094 C306.165186,1007.75094 319.575186,985.160938 335.635186,964.290938 C338.495186,960.570938 340.895186,956.060938 346.455186,955.610938 C353.385186,959.730938 356.035186,967.270938 360.295186,973.420938 C390.125186,1016.48094 420.965186,1058.98094 439.525186,1108.64094 C441.155186,1113.00094 445.525186,1120.19094 442.805186,1121.54094 C438.645186,1123.60094 436.175186,1116.38094 433.005186,1113.18094 C427.845186,1107.97094 423.285186,1102.16094 418.365186,1096.71094 C417.135186,1095.34094 414.495186,1093.13094 414.185186,1093.37094 C411.885186,1095.25094 414.045186,1097.30094 414.715186,1099.13094 C424.815186,1126.71094 435.045186,1154.25094 445.145186,1181.83094 C446.345186,1185.10094 446.915186,1188.60094 447.785186,1191.99094 C449.225186,1201.69094 453.395186,1211.78094 443.745186,1219.87094 C420.035186,1185.71094 396.355186,1151.53094 372.585186,1117.41094 C369.715186,1113.29094 366.315186,1109.54094 363.155186,1105.61094 L363.255186,1105.46094 C361.135186,1110.27094 364.295186,1114.12094 365.855186,1118.09094 C389.975186,1179.18094 414.225186,1240.21094 438.455186,1301.25094 C438.925186,1302.44094 439.545186,1303.58094 439.855186,1304.81094 C441.595186,1311.70094 447.205186,1320.65094 441.825186,1324.97094 C438.525186,1327.63094 432.965186,1317.11094 428.205186,1312.74094 C427.015186,1311.89094 425.875186,1311.73094 424.845186,1313.01094 L424.885186,1313.05094 Z" id="Path" fill="#5CA2A6"></path>
                <path d="M622.365186,1057.75094 C589.525186,1117.13094 561.685186,1178.97094 532.315186,1240.06094 C530.725186,1243.36094 530.065186,1248.96094 525.935186,1248.69094 C521.855186,1248.43094 522.025186,1242.74094 520.825186,1239.34094 C484.125186,1135.72094 426.545186,1043.80094 362.195186,955.650938 C358.855186,951.070938 354.155186,947.230938 353.585186,941.010938 C353.275186,937.590938 354.915186,934.860938 356.665186,932.140938 C368.295186,914.090938 380.775186,896.800938 396.385186,881.800938 C408.155186,870.480938 421.255186,861.320938 436.675186,856.540938 C464.545186,847.920938 487.825186,832.340938 509.365186,813.160938 C540.885186,785.090938 573.385186,758.130938 605.595186,730.840938 C609.855186,727.230938 614.795186,720.290938 621.325186,728.570938 C624.615186,745.720938 619.665186,762.610938 619.675186,779.680938 C619.675186,784.990938 618.445186,790.340938 619.655186,795.680938 C620.685186,800.250938 620.185186,804.490938 617.295186,808.310938 C619.705186,833.590938 631.625186,854.520938 648.095186,872.950938 C660.865186,887.230938 674.535186,900.720938 688.015186,914.350938 C693.225186,919.610938 696.265186,925.450938 696.615186,932.930938 C701.875186,1042.73094 706.995186,1152.53094 712.775186,1262.30094 C713.535186,1276.75094 711.015186,1281.97094 694.785186,1281.11094 C663.875186,1279.46094 632.805186,1280.60094 601.805186,1281.09094 C592.515186,1281.24094 590.745186,1278.44094 593.865186,1269.89094 C603.355186,1243.82094 615.385186,1218.54094 619.175186,1190.65094 C619.515186,1188.12094 620.025186,1185.59094 620.085186,1183.05094 C620.135186,1180.92094 619.935186,1177.04094 619.355186,1176.94094 C615.675186,1176.33094 615.975186,1180.06094 615.265186,1182.09094 C605.235186,1210.73094 594.885186,1239.28094 585.715186,1268.20094 C581.635186,1281.07094 574.975186,1284.50094 562.205186,1281.31094 C555.245186,1279.57094 554.485186,1277.49094 555.955186,1271.07094 C567.775186,1219.52094 586.605186,1170.27094 604.365186,1120.65094 C611.785186,1099.92094 619.925186,1079.40094 624.235186,1057.68094 C623.595186,1057.06094 622.975186,1057.05094 622.375186,1057.74094 L622.365186,1057.75094 Z" id="Path" fill="#5CA2A6"></path>
                <path d="M1624.44519,1032.80094 C1598.98519,1082.31094 1570.75519,1130.17094 1539.44519,1176.21094 C1537.76519,1178.68094 1536.76519,1183.23094 1533.09519,1182.42094 C1528.50519,1181.41094 1530.28519,1176.58094 1530.08519,1173.41094 C1523.55519,1068.48094 1517.14519,963.550938 1510.65519,858.620938 C1510.49519,855.970938 1511.61519,852.710938 1508.26519,850.970938 C1507.30519,853.580938 1505.78519,856.130938 1505.47519,858.820938 C1492.77519,970.630938 1480.73519,1082.45094 1486.55519,1195.34094 C1487.87519,1220.85094 1486.26519,1246.44094 1483.02519,1271.88094 C1482.16519,1278.63094 1479.81519,1281.02094 1472.84519,1280.92094 C1448.23519,1280.59094 1423.61519,1280.54094 1399.01519,1281.10094 C1387.95519,1281.35094 1385.20519,1276.63094 1386.25519,1266.52094 C1393.19519,1199.47094 1399.89519,1132.40094 1406.58519,1065.33094 C1407.59519,1055.16094 1408.10519,1044.94094 1408.84519,1034.75094 C1407.64519,1034.24094 1408.84519,1029.55094 1405.47519,1032.82094 C1390.49519,1112.19094 1380.95519,1192.38094 1369.35519,1272.26094 C1368.46519,1278.36094 1366.94519,1281.16094 1360.08519,1281.05094 C1327.52519,1280.54094 1294.95519,1280.55094 1262.38519,1280.30094 C1259.62519,1280.28094 1256.08519,1281.29094 1254.59519,1278.15094 C1253.14519,1275.09094 1256.09519,1272.89094 1257.63519,1270.60094 C1266.16519,1257.89094 1274.77519,1245.24094 1283.36519,1232.56094 C1283.11519,1228.04094 1285.93519,1224.82094 1288.15519,1221.36094 C1298.63519,1205.00094 1310.61519,1189.68094 1321.38519,1173.52094 C1322.26519,1172.21094 1323.53519,1171.18094 1324.40519,1169.83094 C1323.85519,1170.76094 1323.01519,1171.47094 1322.42519,1172.34094 C1311.12519,1188.93094 1298.27519,1204.32094 1285.87519,1220.07094 C1282.67519,1224.14094 1279.06519,1227.57094 1274.77519,1230.38094 C1265.74519,1241.53094 1256.28519,1252.36094 1247.79519,1263.90094 C1234.66519,1281.75094 1210.05519,1288.02094 1190.54519,1277.92094 C1186.00519,1275.57094 1188.18519,1272.51094 1189.44519,1269.89094 C1192.45519,1263.67094 1197.98519,1259.66094 1203.12519,1255.33094 C1247.92519,1217.68094 1293.79519,1181.02094 1329.23519,1133.78094 C1379.31519,1067.03094 1403.04519,991.240938 1402.85519,908.140938 C1402.70519,844.250938 1401.09519,780.360938 1400.07519,716.480938 C1400.03519,714.150938 1399.79519,711.910938 1402.18519,710.640938 C1406.20519,708.510938 1409.45519,710.480938 1412.81519,712.610938 C1447.40519,734.480938 1482.16519,756.080938 1516.61519,778.150938 C1557.79519,804.530938 1599.13519,830.700938 1639.56519,858.190938 C1657.95519,870.690938 1674.74519,885.720938 1687.98519,904.080938 C1689.48519,908.270938 1687.19519,911.580938 1685.24519,914.820938 C1666.07519,946.700938 1651.43519,980.800938 1636.09519,1014.57094 C1633.11519,1021.14094 1631.48519,1028.74094 1624.45519,1032.79094 L1624.44519,1032.80094 Z" id="Path" fill="#5CA2A6"></path>
                <path d="M190.165186,1664.05094 C175.855186,1667.29094 161.475186,1670.31094 147.265186,1673.93094 C143.685186,1674.84094 137.115186,1675.32094 137.915186,1679.49094 C138.485186,1682.48094 144.675186,1679.52094 148.185186,1678.71094 C166.805186,1674.40094 185.565186,1674.12094 204.425186,1676.30094 C207.415186,1676.65094 212.125186,1676.40094 212.525186,1679.89094 C212.945186,1683.55094 208.125186,1683.83094 205.385186,1684.91094 C170.885186,1698.52094 136.555186,1712.39094 105.535186,1733.29094 C82.9051858,1748.54094 63.5151858,1766.65094 50.6051858,1791.03094 C47.6151858,1796.68094 44.7551858,1802.38094 44.1451858,1808.94094 C43.3751858,1817.26094 46.1351858,1823.57094 54.4351858,1826.22094 C63.1751858,1829.01094 65.2051858,1821.95094 68.0551858,1816.27094 C97.9751858,1756.72094 148.905186,1725.06094 211.215186,1708.67094 C218.885186,1706.65094 226.825186,1705.63094 234.645186,1704.15094 C235.835186,1705.17094 236.265186,1706.50094 236.225186,1708.03094 C235.755186,1711.25094 233.495186,1713.15094 230.845186,1714.28094 C212.445186,1722.13094 196.535186,1733.75094 181.325186,1746.49094 C179.865186,1747.71094 178.125186,1748.59094 176.325186,1749.26094 C169.855186,1749.95094 165.755186,1754.47094 161.065186,1758.30094 C133.425186,1780.88094 114.255186,1809.29094 102.165186,1842.68094 C101.755186,1843.82094 101.215186,1844.91094 100.925186,1846.09094 C102.165186,1845.50094 102.565186,1844.23094 103.225186,1843.19094 C112.835186,1828.18094 120.235186,1811.82094 131.035186,1797.53094 C131.605186,1796.92094 132.255186,1796.37094 132.905186,1795.85094 C133.215186,1795.59094 133.545186,1795.35094 133.855186,1795.08094 C134.435186,1794.55094 135.075186,1794.07094 135.695186,1793.58094 C135.975186,1793.31094 136.285186,1793.07094 136.565186,1792.80094 C137.085186,1792.22094 137.645186,1791.68094 138.195186,1791.12094 C138.445186,1790.81094 138.725186,1790.53094 138.975186,1790.22094 C139.735186,1789.26094 140.555186,1788.35094 141.435186,1787.49094 C142.075186,1786.91094 142.785186,1786.44094 143.555186,1786.05094 C156.675186,1776.34094 166.915186,1763.52094 179.555186,1753.24094 C196.165186,1739.73094 213.285186,1727.07094 231.755186,1716.22094 C235.265186,1714.16094 240.705186,1713.06094 239.205186,1706.80094 C239.295186,1705.88094 239.635186,1705.08094 240.245186,1704.39094 C269.465186,1704.59094 298.095186,1709.16094 326.395186,1716.11094 C327.845186,1716.47094 330.285186,1717.24094 330.355186,1717.98094 C330.605186,1720.86094 327.755186,1719.88094 326.265186,1720.27094 C307.115186,1725.28094 287.925186,1730.15094 268.745186,1735.08094 C267.825186,1735.32094 266.865186,1735.59094 266.045186,1736.05094 C262.045186,1738.30094 254.675186,1739.04094 255.405186,1743.65094 C255.925186,1746.90094 263.235186,1744.40094 267.395186,1743.78094 C298.595186,1739.11094 329.485186,1731.17094 361.455186,1738.90094 C388.185186,1745.36094 411.755186,1757.47094 432.025186,1775.86094 C444.605186,1787.28094 443.155186,1795.12094 427.635186,1802.41094 C402.515186,1814.21094 376.745186,1824.38094 354.685186,1842.25094 C321.985186,1868.73094 309.165186,1904.48094 303.735186,1944.15094 C301.965186,1957.10094 301.195186,1970.21094 300.225186,1983.26094 C299.885186,1987.79094 298.695186,1991.39094 294.125186,1993.11094 C289.605186,1996.14094 284.815186,1994.50094 280.205186,1993.65094 C242.295186,1986.60094 204.175186,1980.75094 166.285186,1973.54094 C164.435186,1973.19094 162.545186,1973.03094 160.665186,1972.84094 C162.365186,1974.18094 164.475186,1974.50094 166.455186,1975.11094 C192.455186,1983.16094 219.345186,1986.64094 246.155186,1990.51094 C258.155186,1992.25094 270.065186,1994.43094 281.905186,1996.96094 C285.525186,1997.73094 289.605186,1998.27094 291.485186,2002.38094 C299.635186,2024.03094 298.765186,2025.18094 276.235186,2021.45094 C243.785186,2016.07094 210.745186,2014.60094 178.745186,2006.25094 C156.725186,2000.51094 136.845186,1991.48094 120.605186,1974.70094 C100.165186,1953.58094 77.8951858,1934.21094 58.8151858,1911.77094 C18.9151858,1864.84094 13.8051858,1814.65094 43.6251858,1760.99094 C51.3751858,1747.04094 60.0751858,1733.59094 68.8451858,1720.24094 C75.6351858,1709.89094 77.5251858,1699.68094 73.2751858,1687.62094 C65.0151858,1664.21094 69.0951858,1641.12094 76.3651858,1618.08094 C85.4551858,1589.28094 102.145186,1563.85094 112.025186,1535.43094 C114.915186,1527.11094 116.315186,1518.89094 115.475186,1510.07094 C111.195186,1465.15094 123.295186,1423.26094 139.815186,1382.31094 C163.975186,1322.44094 190.575186,1263.18094 200.525186,1198.88094 C211.945186,1125.14094 242.575186,1059.11094 277.245186,994.400938 C289.305186,971.890938 300.095186,948.680938 314.125186,927.190938 C319.595186,918.810938 322.515186,920.130938 326.935186,927.240938 C329.775186,931.810938 333.155186,936.060938 336.285186,940.450938 C336.625186,946.760938 333.895186,952.050938 331.015186,957.410938 C319.525186,978.810938 307.155186,999.720938 294.845186,1020.64094 C271.645186,1060.05094 257.205186,1103.13094 241.775186,1145.77094 C208.375186,1238.09094 182.065186,1332.59094 156.955186,1427.42094 C151.465186,1448.15094 150.065186,1469.63094 146.195186,1490.66094 C142.745186,1509.36094 136.905186,1527.34094 126.885186,1543.41094 C111.035186,1568.84094 98.8551858,1595.68094 91.4751858,1624.71094 C88.3851858,1636.38094 84.7151858,1647.93094 83.2851858,1659.96094 C82.8551858,1663.55094 81.2051858,1668.48094 84.8451858,1670.60094 C88.1451858,1672.53094 90.9951858,1668.40094 93.7451858,1666.45094 C121.575186,1646.64094 152.375186,1639.68094 186.055186,1644.89094 C189.565186,1645.43094 193.015186,1645.89094 195.545186,1648.77094 C198.875186,1655.67094 197.225186,1660.82094 190.185186,1664.08094 L190.165186,1664.05094 Z" id="Path" fill="#5CA2A6"></path>
                <path d="M1015.60519,122.940938 C1014.91519,92.9009377 1014.53519,62.8509377 1013.35519,32.8409377 C1012.99519,23.8009377 1015.69519,22.9409377 1023.55519,25.1909377 C1051.20519,33.0809377 1079.33519,39.2609377 1106.46519,48.9509377 C1178.97519,74.8509377 1228.53519,123.250938 1254.42519,196.440938 C1278.34519,264.070938 1299.15519,332.410938 1310.85519,403.300938 C1312.41519,412.730938 1313.31519,422.280938 1314.24519,431.800938 C1314.40519,433.450938 1313.16519,435.230938 1312.56519,436.950938 C1311.51519,435.540938 1310.10519,434.280938 1309.47519,432.700938 C1278.46519,355.180938 1228.90519,290.000938 1173.80519,228.490938 C1171.77519,226.220938 1169.18519,221.390938 1166.81519,223.250938 C1163.46519,225.880938 1167.73519,229.510938 1169.46519,232.090938 C1204.88519,284.930938 1241.70519,336.830938 1273.52519,392.040938 C1297.41519,433.490938 1318.38519,476.320938 1329.60519,522.920938 C1337.71519,556.570938 1340.24519,591.110938 1333.08519,625.600938 C1332.52519,628.280938 1330.95519,632.860938 1329.75519,632.89338 C1325.93519,633.010938 1325.80519,628.680938 1324.48519,625.920938 C1323.80519,624.480938 1323.20519,622.980938 1322.78519,621.440938 C1303.89519,553.580938 1267.55519,495.930938 1218.33519,446.350938 C1197.02519,424.880938 1169.27519,412.100938 1143.43519,396.960938 C1135.76519,392.460938 1127.52519,388.930938 1119.54519,384.960938 C1116.81519,385.070938 1114.73519,383.470938 1112.47519,382.320938 C1114.50519,383.750938 1116.78519,384.900938 1117.85519,387.350938 C1118.23519,388.230938 1118.73519,389.050938 1119.30519,389.830938 C1146.80519,410.180938 1174.31519,430.520938 1201.78519,450.910938 C1204.00519,452.560938 1207.95519,454.260938 1206.67519,457.170938 C1205.05519,460.840938 1201.15519,458.480938 1198.31519,457.740938 C1158.49519,447.270938 1122.47519,429.190938 1089.99519,403.890938 C1084.50519,399.610938 1078.16519,396.440938 1072.21519,392.750938 C1071.12519,392.530938 1070.72519,393.000938 1070.93519,394.050938 C1076.86519,402.730938 1082.84519,411.380938 1088.67519,420.130938 C1089.83519,421.870938 1090.40519,424.000938 1091.24519,425.950938 C1089.10519,426.080938 1086.92519,426.530938 1084.82519,426.270938 C1072.78519,424.810938 1060.77519,423.100938 1048.73519,421.650938 C1034.65519,419.960938 1029.07519,411.660938 1029.30519,398.030938 C1030.23519,343.300938 1023.10519,288.990938 1020.81519,234.420938 C1018.44519,231.610938 1017.47519,228.370938 1017.48519,224.690938 C1017.50519,216.700938 1016.19519,208.740938 1015.99519,200.840938 C1015.40519,176.900938 1012.75519,153.040938 1013.34519,129.060938 C1013.40519,126.650938 1014.20519,124.740938 1015.63519,122.950938 L1015.60519,122.940938 Z" id="Path" fill="#5CA2A6"></path>
                <path d="M482.045186,1969.44094 C484.075186,1969.53094 486.105186,1969.63094 488.135186,1969.72094 C490.565186,1974.36094 494.655186,1975.14094 499.465186,1975.14094 C640.185186,1975.04094 780.915186,1975.74094 921.625186,1974.49094 C961.545186,1974.14094 1001.49519,1973.76094 1041.43519,1973.21094 C1100.23519,1972.39094 1159.04519,1971.52094 1217.84519,1971.57094 C1278.88519,1971.62094 1339.96519,1971.65094 1400.95519,1973.77094 C1438.99519,1975.09094 1477.00519,1974.23094 1515.01519,1975.27094 C1524.68519,1975.53094 1537.11519,1972.67094 1541.78519,1983.22094 C1546.98519,1994.99094 1542.88519,2008.39094 1536.43519,2018.90094 C1524.58519,2038.19094 1507.70519,2048.54094 1483.31519,2048.50105 C1169.25519,2047.97094 855.195186,2048.08094 541.135186,2047.99094 C513.595186,2047.99094 488.135186,2043.66094 473.535186,2015.90094 C462.815186,1995.52094 464.265186,1986.17094 482.065186,1969.46094 L482.045186,1969.44094 Z" id="Path" fill="#2D3B4C"></path>
                <path d="M1529.34519,1327.56094 C1485.45519,1334.14094 1441.22519,1331.05094 1397.20519,1331.11094 C1108.43519,1331.47094 819.675186,1330.98094 530.905186,1330.78094 C484.395186,1330.75094 478.425186,1336.74094 478.445186,1383.20094 C478.525186,1568.36094 478.605186,1753.52094 478.775186,1938.67094 C478.775186,1947.61094 479.615186,1956.54094 480.065186,1965.48094 C475.575186,1963.70094 466.725186,1972.19094 466.745186,1959.81094 C466.765186,1956.62094 466.885186,1953.43094 466.595186,1950.25094 C463.595186,1810.03094 465.635186,1669.79094 464.935186,1529.57094 C464.665186,1475.28094 465.065186,1420.98094 464.56977,1366.70094 C464.325186,1338.62094 472.675186,1316.53094 501.195186,1306.25094 C502.525186,1306.29094 503.965186,1306.69094 504.785186,1305.12094 L505.195186,1305.04094 C506.575186,1304.15094 508.135186,1304.43094 509.645186,1304.37094 C510.795186,1304.37094 511.935186,1304.35094 512.965186,1303.74094 C627.415186,1303.91094 741.865186,1304.08094 856.315186,1304.25094 C866.615186,1304.32094 876.915186,1304.72094 887.205186,1304.04094 C970.085186,1302.32094 1052.96519,1303.07094 1135.85519,1304.00094 C1137.41519,1304.80094 1137.84519,1303.04094 1138.89519,1302.66094 C1140.15519,1302.45094 1141.38519,1302.38094 1142.46519,1303.26094 C1143.69519,1303.43094 1144.92519,1303.61094 1146.15519,1303.78094 C1147.53519,1303.47094 1148.88519,1303.54094 1150.22519,1303.97094 C1254.27519,1303.73094 1358.31519,1303.60094 1462.36519,1303.17094 C1484.16519,1303.08094 1505.93519,1301.95094 1523.98519,1317.54094 C1527.11519,1320.25094 1531.04519,1322.37094 1529.37519,1327.58094 L1529.34519,1327.56094 Z" id="Path" fill="#FBFDFD"></path>
                <path d="M1213.39519,877.270938 C1225.28519,874.610938 1232.54519,865.140938 1241.16519,857.890938 C1257.52519,844.150938 1271.80519,827.980938 1289.43519,815.690938 C1292.14519,813.800938 1295.43519,809.530938 1298.34519,811.880938 C1300.72519,813.810938 1301.62519,818.800938 1301.51519,822.380938 C1300.72519,847.620938 1290.15519,869.240938 1275.75519,889.290938 C1259.38519,912.070938 1239.21519,930.020938 1212.53519,940.210938 C1202.18519,944.160938 1197.67519,942.340938 1196.03519,930.690938 C1193.25519,910.980938 1183.63519,903.070938 1166.33519,904.080938 C1158.52519,904.540938 1152.42519,907.890938 1147.75519,914.310938 C1136.36519,929.970938 1129.69519,947.180938 1128.93519,966.700938 C1128.51519,977.690938 1123.37519,986.420938 1113.43519,991.470938 C1082.64519,1007.11094 1051.74519,1022.53094 1020.82519,1037.93094 C1017.61519,1039.53094 1013.44519,1042.77094 1010.74519,1038.06094 C1008.60519,1034.33094 1009.48519,1030.04094 1013.61519,1027.10094 C1051.79519,999.990938 1079.24519,962.950938 1106.16519,925.660938 C1133.85519,887.290938 1167.42519,853.700938 1194.51519,814.890938 C1207.57519,796.180938 1218.65519,776.520938 1227.43519,755.500938 C1230.13519,749.040938 1233.35519,739.410938 1240.24519,740.720938 C1248.39519,742.280938 1244.07519,752.330938 1243.71519,758.240938 C1242.67519,775.400938 1240.97519,792.590938 1235.91519,809.190938 C1235.00519,812.180938 1232.84519,816.300938 1235.82519,818.010938 C1239.42519,820.080938 1240.87519,815.430938 1242.67519,813.060938 C1248.67519,805.190938 1254.50519,797.180938 1260.54519,789.340938 C1261.99519,787.460938 1263.33519,784.110938 1266.18519,785.470938 C1267.14519,785.930938 1266.89519,790.220938 1266.26519,792.500938 C1260.25519,814.340938 1246.15519,831.460938 1232.97519,849.120938 C1226.13519,858.280938 1217.84519,866.440938 1213.41519,877.280938 L1213.39519,877.260938 L1213.39519,877.270938 Z" id="Path" fill="#2D3B4C"></path>
                <path d="M808.465186,941.210938 C807.515186,944.890938 810.885186,950.670938 806.635186,952.400938 C802.595186,954.050938 800.025186,948.380938 797.245186,945.590938 C772.655186,920.900938 752.675186,893.040938 739.855186,860.420938 C738.795186,857.740938 735.785186,854.120938 739.075186,851.740938 C741.545186,849.950938 744.245186,853.110938 746.645186,854.580938 C746.915186,854.750938 747.155186,854.980938 747.435186,855.120938 C754.105186,858.490938 759.015186,864.910938 766.835186,866.300938 C765.225186,857.490938 757.575186,853.220938 752.355186,847.160938 C738.915186,831.550938 722.285186,818.040938 718.925186,795.880938 C718.585186,793.620938 716.755186,790.760938 719.915186,789.340938 C720.365186,789.140938 722.515186,792.370938 723.685186,794.140938 C729.115186,802.400938 734.275186,810.830938 739.965186,818.910938 C741.635186,821.290938 743.945186,825.410938 747.235186,823.920938 C750.825186,822.300938 748.265186,818.340938 747.805186,815.360938 C746.125186,804.370938 741.845186,793.690938 743.465186,782.310938 C743.805186,779.950938 744.775186,776.370938 746.345186,775.800938 C749.185186,774.770938 750.175186,778.410938 751.495186,780.420938 C795.945186,847.910938 855.465186,901.050938 915.805186,953.470938 C939.895186,974.400938 963.615186,995.750938 987.405186,1017.02094 C994.925186,1023.74094 996.705186,1032.43094 992.985186,1041.45094 C989.075186,1050.92094 980.105186,1053.23094 971.275186,1051.45094 C959.005186,1048.98094 946.215186,1050.43094 934.395186,1043.30094 C920.495186,1034.93094 913.735186,1022.71094 907.175186,1008.84094 C898.905186,991.360938 882.565186,979.120938 874.605186,960.880938 C868.635186,947.200938 859.935186,934.730938 852.575186,921.650938 C847.625186,912.840938 841.955186,904.850938 830.175186,908.420938 C818.425186,911.990938 809.825186,919.110938 808.515186,932.390938 C808.235186,935.240938 808.475186,938.140938 808.475186,941.230938 L808.465186,941.210938 Z" id="Path" fill="#2D3B4C"></path>
                <path d="M377.175186,1881.60094 C356.765186,1906.56094 352.245186,1937.00094 347.775186,1967.40094 C345.735186,1981.31094 341.085186,1992.04094 324.245186,1991.91094 C319.345186,1991.87094 317.165186,1990.81094 317.005186,1985.81094 C315.095186,1927.09094 333.515186,1859.04094 405.645186,1829.06094 C410.945186,1826.86094 415.915186,1823.86094 421.265186,1821.81094 C434.215186,1816.84094 441.305186,1821.56094 440.815186,1835.54094 C440.435186,1846.36094 438.485186,1857.12094 437.345186,1867.92094 C436.815186,1872.94094 434.345186,1873.40094 430.165186,1871.74094 C426.935186,1870.46094 423.475186,1869.47094 420.035186,1869.05094 C416.875186,1868.66094 414.545186,1870.73094 413.435186,1873.63094 C412.185186,1876.89094 414.345186,1878.55094 417.065186,1879.07094 C426.645186,1880.87094 423.495186,1885.80094 420.555186,1891.32094 C407.665186,1915.56094 393.635186,1939.28094 385.735186,1965.86094 C377.575186,1993.31094 376.915186,2020.61094 387.345186,2047.65094 C389.385186,2052.94094 389.655186,2056.26094 383.035186,2058.49094 C354.275186,2068.18094 318.195186,2047.95094 312.135186,2018.38094 C311.055186,2013.13094 310.695186,2007.87094 315.965186,2004.68094 C321.735186,2001.19094 328.315186,2000.80094 334.435186,2003.26094 C340.225186,2005.58094 336.575186,2010.85094 337.145186,2014.93094 C338.055186,2021.44094 340.495186,2027.74094 342.425186,2034.09094 C342.625186,2034.74094 343.705186,2035.13094 344.375186,2035.64094 C344.945186,2034.60094 345.865186,2033.62094 346.025186,2032.53094 C348.925186,2012.80094 358.555186,1994.84094 357.435186,1973.71094 C355.755186,1942.03094 363.125186,1911.52094 379.065186,1883.57094 C379.905186,1881.51094 377.885186,1882.19094 377.185186,1881.61094 L377.175186,1881.60094 Z" id="Path" fill="#5CA2A6"></path>
                <path d="M1340.56519,786.280938 C1338.56519,847.900938 1309.86519,895.960938 1263.75519,934.650938 C1241.71519,953.140938 1218.72519,970.630938 1191.12519,980.490938 C1188.64519,981.370938 1185.43519,984.090938 1183.24519,981.500938 C1180.78519,978.590938 1182.26519,974.730938 1183.98519,971.610938 C1187.44519,965.350938 1193.65519,962.560938 1199.71519,959.610938 C1232.24519,943.770938 1262.03519,924.090938 1284.96519,895.650938 C1322.26519,849.380938 1338.01519,797.980938 1320.99519,739.000938 C1301.63519,671.910938 1278.00519,606.600938 1242.92519,545.850938 C1230.53519,524.390938 1213.75519,508.420938 1191.16519,497.840938 C1144.26519,475.890938 1095.32519,462.500938 1043.45519,460.570938 C1035.45519,460.270938 1029.68519,459.010938 1030.94519,448.600938 C1032.07519,439.330938 1031.43519,431.970938 1045.70519,434.230938 C1089.03519,441.100938 1131.78519,450.030938 1173.82519,462.580938 C1231.27519,479.730938 1266.32519,517.360938 1281.00519,575.580938 C1295.14519,631.670938 1315.85519,685.790938 1333.19519,740.930938 C1337.83519,755.690938 1340.74519,770.650938 1340.56519,786.280938 L1340.56519,786.280938 Z" id="Path" fill="#5CA2A6"></path>
                <path d="M1689.82519,1978.07094 C1691.22519,2003.03094 1683.62519,2026.59094 1664.63519,2046.14094 C1660.82519,2050.06094 1655.73519,2054.32094 1651.54519,2051.00094 C1647.60519,2047.88094 1652.88519,2043.15094 1655.35519,2039.94094 C1671.93519,2018.31094 1677.20519,1995.38094 1667.23519,1968.91094 C1661.07519,1952.54094 1658.40519,1934.90094 1652.89519,1918.24094 C1641.79519,1884.70094 1619.43519,1861.36094 1586.39519,1848.53094 C1583.92519,1847.57094 1581.45519,1845.30094 1578.45519,1847.34094 C1580.34519,1849.36094 1581.93519,1851.85094 1584.18519,1853.34094 C1598.04519,1862.56094 1611.72519,1871.90094 1623.14519,1884.26094 C1645.71519,1908.68094 1648.68519,1937.56094 1643.02519,1968.55094 C1639.58519,1987.36094 1640.97519,2006.97094 1633.92519,2025.17094 C1630.90519,2032.97094 1626.89519,2040.24094 1619.83519,2045.28094 C1615.92519,2037.94094 1619.59519,2030.67094 1620.18519,2023.43094 C1624.31519,1973.21094 1609.24519,1929.35094 1576.07519,1891.81094 C1568.34519,1883.06094 1566.20519,1874.06094 1567.13519,1862.86094 C1568.21519,1849.86094 1567.98519,1836.72094 1567.74519,1823.65094 C1567.60519,1816.35094 1570.12519,1816.09094 1576.16519,1818.24094 C1647.53519,1843.68094 1688.16519,1900.02094 1689.83519,1978.07094 L1689.82519,1978.07094 Z" id="Path" fill="#5CA2A6"></path>
                <path d="M88.8651858,1624.34094 C91.6151858,1600.67094 100.975186,1578.79094 113.475186,1559.52094 C133.225186,1529.07094 142.105186,1496.18094 147.355186,1460.96094 C156.655186,1398.55094 177.385186,1338.88094 194.785186,1278.48094 C213.715186,1212.79094 236.215186,1148.27094 260.575186,1084.36094 C280.055186,1033.24094 311.035186,988.370938 336.305186,940.420938 C339.695186,945.490938 343.085186,950.570938 346.485186,955.640938 C292.835186,1024.88094 266.305186,1107.05094 236.825186,1187.62094 C205.955186,1272.01094 183.185186,1358.80094 165.575186,1446.92094 C163.325186,1458.16094 160.205186,1469.23094 157.495186,1480.39094 C156.145186,1481.94094 157.505186,1484.40094 155.695186,1485.79094 L155.765186,1485.57094 C151.145186,1500.82094 146.025186,1515.87094 138.295186,1529.89094 C127.565186,1554.09094 116.975186,1578.35094 106.025186,1602.45094 C102.205186,1610.85094 105.835186,1613.38094 113.475186,1613.98094 C128.105186,1615.13094 142.955186,1612.69094 157.405186,1616.35094 C162.385186,1617.61094 168.555186,1617.43094 170.705186,1623.93094 C167.755186,1628.39094 163.085186,1627.87094 158.715186,1627.95094 C141.635186,1628.25094 124.545186,1627.79094 107.465186,1628.24094 C103.925186,1628.15094 100.425186,1627.23094 96.8451858,1627.59094 C93.7551858,1627.57094 90.9051858,1626.97094 88.8651858,1624.36094 L88.8651858,1624.34094 Z" id="Path" fill="#FBFDFD"></path>
                <path d="M1149.30519,1149.79094 C1145.46519,1076.51094 1141.64519,1021.32094 1146.49519,966.050938 C1147.56519,953.910938 1149.34519,942.090938 1156.98519,931.820938 C1160.48519,927.120938 1163.55519,922.930938 1170.10519,925.200938 C1176.71519,927.500938 1176.16519,933.250938 1174.89519,938.080938 C1165.21519,974.730938 1164.67519,1011.95094 1167.52519,1049.37094 C1172.06519,1108.93094 1177.64519,1168.45094 1176.45519,1228.29094 C1176.16519,1242.98094 1175.18519,1257.66094 1174.61519,1272.34094 C1174.03519,1287.44094 1162.64519,1279.42094 1155.99519,1280.77094 C1148.32519,1282.32094 1149.32519,1276.42094 1149.65519,1271.54094 C1152.81519,1224.89094 1151.03519,1178.29094 1149.29519,1149.79094 L1149.30519,1149.79094 Z" id="Path" fill="#5CA2A6"></path>
                <path d="M827.425186,1090.25094 C831.585186,1042.51094 830.175186,994.710938 829.235186,946.910938 C829.145186,942.100938 827.075186,934.840938 833.255186,933.670938 C839.795186,932.440938 839.885186,940.120938 841.455186,944.640938 C856.095186,986.940938 855.695186,1030.77094 853.885186,1074.60094 C851.215186,1139.10094 847.895186,1203.58094 844.785186,1268.07094 C844.435186,1275.36094 844.965186,1282.67094 833.405186,1282.30094 C823.395186,1281.98094 819.865186,1278.47094 819.865186,1268.62094 C819.865186,1227.70094 819.555186,1186.79094 823.365186,1145.97094 C823.895186,1140.27094 823.625186,1134.49094 823.715186,1128.75094 C819.995186,1123.05094 821.215186,1118.03094 825.835186,1113.49094 C825.795186,1110.89094 825.765186,1108.28094 825.725186,1105.68094 C822.505186,1100.12094 823.065186,1094.98094 827.405186,1090.25094 L827.425186,1090.25094 Z" id="Path" fill="#5CA2A6"></path>
                <path d="M1309.54519,792.640938 C1294.67519,726.260938 1273.37519,662.290938 1243.03519,601.100938 C1220.30519,555.240938 1184.55519,526.350938 1137.88519,508.570938 C1106.05519,496.440938 1072.34519,491.510938 1039.86519,481.950938 C1036.50519,480.960938 1031.15519,481.360938 1032.04519,475.660938 C1032.92519,470.070938 1037.84519,470.580938 1041.99519,470.770938 C1094.09519,473.150938 1143.80519,484.190938 1190.01519,509.540938 C1209.11519,520.020938 1223.75519,534.020938 1235.14519,552.520938 C1274.22519,615.990938 1294.73519,686.610938 1314.90519,757.370938 C1318.22519,769.030938 1316.44519,780.860938 1312.77519,792.340938 C1311.84519,794.060938 1310.74519,793.910938 1309.53519,792.650938 L1309.54519,792.640938 Z" id="Path" fill="#5CA2A6"></path>
                <path d="M344.755186,929.760938 C327.645186,917.940938 327.095186,904.270938 344.065186,889.060938 C374.585186,861.710938 407.345186,837.160938 440.985186,813.810938 C500.625186,772.420938 562.285186,734.180938 624.285186,696.470938 C628.145186,700.100938 627.335186,704.040938 625.095186,708.080938 C575.225186,744.350938 530.355186,786.700938 482.645186,825.610938 C469.795186,836.090938 455.855186,843.500938 439.395186,846.990938 C417.705186,851.590938 400.635186,864.630938 385.955186,880.650938 C373.015186,894.780938 361.415186,910.050938 350.275186,925.650938 C348.945186,927.520938 348.265186,930.660938 344.755186,929.740938 L344.755186,929.760938 Z" id="Path" fill="#5CA2A6"></path>
                <path d="M722.275186,882.430938 C720.755186,883.940938 719.225186,885.460938 717.705186,886.970938 C700.085186,874.240938 682.585186,861.420938 670.325186,842.890938 C650.175186,812.430938 652.315186,780.760938 665.565186,748.750938 C673.285186,730.100938 683.605186,712.800938 695.405186,696.400938 C696.835186,694.410938 698.105186,691.270938 701.105186,692.430938 C704.045186,693.560938 703.035186,696.910938 702.895186,699.280938 C701.685186,720.590938 699.855186,741.880938 699.105186,763.200938 C697.655186,804.660938 705.355186,844.470938 722.275186,882.420938 L722.275186,882.430938 Z" id="Path" fill="#2D3B4C"></path>
                <path d="M1011.54519,327.940938 C1007.83519,346.180938 994.385186,356.450938 980.195186,366.040938 C941.825186,391.980938 898.375186,406.230938 854.905186,420.420938 C853.385186,420.910938 851.865186,421.380938 850.345186,421.870938 C848.905186,421.550938 847.545186,421.040938 846.245186,420.340938 C885.675186,399.870938 925.035186,379.240938 964.585186,359.000938 C981.355186,350.420938 992.235186,337.560938 992.445186,318.560938 C993.505186,220.100938 994.005186,121.620938 994.695186,23.1609377 C999.925186,25.4909377 997.705186,30.3309377 997.975186,34.0209377 C999.005186,48.3009377 999.535186,62.6209377 1000.24519,76.9209377 C1000.32519,78.1909377 1000.36519,79.4709377 1000.38519,80.7509377 C1001.65519,100.580938 1002.93519,120.420938 1004.20519,140.250938 C1006.97519,142.750938 1008.29519,145.880938 1008.13519,149.590938 C1007.39519,166.450938 1011.27519,183.140938 1010.17519,199.990938 C1009.42519,211.460938 1013.38519,222.690938 1011.58519,234.170938 C1014.09519,262.600938 1013.34519,291.170938 1015.09519,319.630938 C1015.29519,322.870938 1014.65519,325.990938 1011.54519,327.940938 Z" id="Path" fill="#FBFDFD"></path>
                <path d="M344.755186,929.760938 C368.975186,892.660938 393.105186,855.060938 439.835186,843.220938 C455.255186,839.310938 468.295186,832.700938 480.425186,822.850938 C524.855186,786.770938 566.345186,747.140938 612.635186,713.310938 C615.955186,710.880938 619.725186,709.070938 623.295186,706.980938 C627.355186,714.650938 625.755186,720.740938 618.245186,725.200938 C578.745186,758.640938 539.165186,791.980938 499.795186,825.570938 C485.035186,838.160938 469.185186,849.280938 450.585186,854.630938 C414.595186,864.970938 389.805186,888.580938 369.675186,918.590938 C364.555186,926.230938 358.965186,933.550938 353.585186,941.020938 C350.645186,937.270938 347.705186,933.520938 344.765186,929.780938 L344.755186,929.760938 Z" id="Path" fill="#FBFDFD"></path>
                <path d="M1677.48519,1411.29094 C1681.45519,1390.34094 1685.27519,1369.00094 1689.65519,1347.78094 C1691.01519,1341.21094 1695.96519,1339.61094 1702.28519,1341.76094 C1719.58519,1347.64094 1740.54519,1377.28094 1740.31519,1395.85094 C1740.29519,1397.37094 1740.00519,1399.24094 1739.10519,1400.35094 C1726.16519,1416.31094 1710.40519,1430.26094 1690.50519,1433.95094 C1676.72519,1436.50094 1680.27519,1420.50094 1677.48519,1411.29094 L1677.48519,1411.29094 Z" id="Path" fill="#5CA2A6"></path>
                <path d="M1565.22519,1984.70094 C1565.25519,1979.66094 1565.28519,1974.61094 1565.31519,1969.57094 C1565.51519,1968.24094 1565.82519,1966.91094 1565.51519,1965.55094 C1566.34519,1948.99094 1567.15519,1932.44094 1568.04519,1915.88094 C1568.12519,1914.36094 1568.74519,1912.87094 1569.11519,1911.36094 C1570.62519,1912.34094 1572.66519,1912.96094 1573.55519,1914.34094 C1590.60519,1940.71094 1606.84519,1973.74094 1580.42519,2002.80094 C1578.47519,2004.95094 1576.50519,2007.74094 1579.68519,2010.22094 C1583.53519,2013.23094 1587.32519,2012.33094 1590.85519,2009.08094 C1594.34519,2005.87094 1597.57519,1997.65094 1600.88519,2000.09094 C1605.60519,2003.56094 1600.37519,2010.55094 1599.41519,2016.03094 C1599.14519,2017.59094 1598.61519,2019.12094 1598.16519,2020.65094 C1585.71519,2063.13094 1592.86519,2056.85094 1549.09519,2057.50094 C1546.77519,2057.53094 1543.20519,2059.05094 1542.39519,2056.08094 C1541.91519,2054.33094 1544.17519,2051.64094 1545.55519,2049.61094 C1549.69519,2043.55094 1553.87519,2037.50094 1558.30519,2031.66094 C1568.73519,2017.91094 1572.06519,2003.13094 1565.32519,1986.74094 C1565.60519,1986.05094 1565.57519,1985.37094 1565.22519,1984.70094 Z" id="Path" fill="#D48D4C"></path>
                <path d="M471.755186,2053.73094 C453.195186,2058.01094 434.475186,2053.63094 415.825186,2054.61094 C410.555186,2054.89094 407.005186,2049.98094 404.555186,2045.26094 C393.645186,2024.24094 393.955186,2002.32094 399.495186,1980.04094 C399.805186,1978.81094 401.125186,1977.82094 401.975186,1976.72094 C402.625186,1978.02094 403.785186,1979.30094 403.835186,1980.63094 C404.155186,1988.28094 404.125186,1995.94094 404.425186,2003.59094 C404.495186,2005.35094 405.385186,2007.08094 405.895186,2008.83094 C407.505186,2007.47094 410.375186,2006.24094 410.515186,2004.73094 C411.915186,1990.42094 423.785186,1988.60094 433.815186,1984.17094 C439.965186,1981.45094 441.685186,1983.53094 442.175186,1989.40094 C444.205186,2013.88094 449.725186,2036.80094 471.385186,2052.17094 C471.295186,2052.74094 471.425186,2053.26094 471.765186,2053.73094 L471.755186,2053.73094 Z" id="Path" fill="#D48D4C"></path>
                <path d="M352.825186,1512.62094 C339.505186,1492.41094 326.125186,1472.23094 312.935186,1451.93094 C311.565186,1449.82094 308.215186,1447.34094 311.025186,1444.65094 C311.825186,1443.89094 315.665186,1445.68094 317.705186,1446.94094 C341.845186,1461.86094 365.745186,1477.14094 392.115186,1488.07094 C401.415186,1491.92094 410.825186,1494.27094 420.895186,1493.84094 C419.675186,1515.06094 413.855186,1519.71094 392.385186,1515.98094 C379.275186,1513.70094 366.175186,1511.88094 352.825186,1512.62094 L352.825186,1512.62094 Z" id="Path" fill="#2D3B4C"></path>
                <path d="M271.705186,2057.62094 C254.805186,2057.21094 237.795186,2058.32094 221.165186,2054.11094 C207.995186,2050.77094 197.235186,2043.68094 188.985186,2032.92094 C186.565186,2029.76094 185.295186,2026.01094 187.655186,2022.22094 C189.725186,2018.89094 192.995186,2019.53094 196.255186,2020.10094 C228.015186,2025.65094 259.775186,2031.16094 291.545186,2036.61094 C296.325186,2037.43094 301.095186,2038.15094 304.525186,2041.99094 C308.035186,2045.92094 311.305186,2050.86094 309.615186,2055.77094 C307.865186,2060.87094 302.315186,2057.37094 298.525186,2057.52094 C289.595186,2057.88094 280.635186,2057.64094 271.695186,2057.62094 L271.705186,2057.62094 Z" id="Path" fill="#5CA2A6"></path>
                <path d="M1656.65519,1644.96094 C1658.05519,1651.18094 1654.35519,1656.70094 1654.17519,1662.63094 C1653.90519,1671.92094 1657.35519,1677.89094 1668.14519,1675.60094 C1669.05519,1681.91094 1675.50519,1683.08094 1678.92519,1687.12094 C1684.60519,1693.83094 1684.54519,1699.91094 1676.34519,1703.13094 C1658.00519,1710.35094 1639.45519,1717.20094 1620.59519,1722.88094 C1612.20519,1725.41094 1606.99519,1718.82094 1609.40519,1711.14094 C1617.86519,1684.09094 1632.95519,1661.34094 1656.65519,1644.96094 Z" id="Path" fill="#2D3B4C"></path>
                <path d="M1750.79519,2057.32094 C1745.06519,2057.32094 1735.18519,2057.58094 1725.33519,2057.20094 C1721.30519,2057.04094 1716.95519,2056.23094 1713.39519,2054.44094 C1708.18519,2051.81094 1702.77519,2047.04094 1703.90519,2041.36094 C1704.81519,2036.79094 1711.72519,2039.04094 1715.94519,2038.70094 C1745.41519,2036.27094 1773.58519,2027.57094 1802.23519,2021.15094 C1807.28519,2020.02094 1813.57519,2016.62094 1816.87519,2023.08094 C1819.71519,2028.64094 1815.24519,2033.44094 1811.78519,2037.56094 C1796.79519,2055.42094 1775.97519,2056.69094 1750.78519,2057.33094 L1750.79519,2057.32094 Z" id="Path" fill="#5CA2A6"></path>
                <path d="M1006.32519,1072.53094 C1007.02519,1062.25094 1012.66519,1055.79094 1021.16519,1052.45094 C1055.45519,1038.95094 1086.58519,1019.14094 1119.72519,1003.37094 C1122.13519,1002.22094 1124.49519,1001.06094 1126.83519,1003.05094 C1129.31519,1005.16094 1129.84519,1008.32094 1128.50519,1010.94094 C1126.95519,1013.97094 1124.94519,1017.48094 1122.15519,1019.05094 C1089.10519,1037.73094 1058.87519,1061.42094 1023.00519,1075.07094 C1019.73519,1076.32094 1016.34519,1077.33094 1012.93519,1078.12094 C1007.92519,1079.28094 1005.62519,1077.17094 1006.32519,1072.53094 Z" id="Path" fill="#5CA2A6"></path>
                <path d="M995.965186,1249.46094 C993.705186,1248.85094 989.205186,1251.04094 988.645186,1246.58094 C988.245186,1243.37094 992.135186,1242.55094 994.795186,1241.57094 C1029.18519,1228.88094 1063.85519,1216.85094 1096.39519,1199.69094 C1100.33519,1197.61094 1104.08519,1195.14094 1108.11519,1193.23094 C1111.34519,1191.70094 1115.26519,1187.00094 1117.93519,1190.11094 C1120.39519,1192.98094 1115.69519,1196.82094 1113.52519,1199.71094 C1089.50519,1231.64094 1055.74519,1244.28094 1017.44519,1247.72094 C1010.47519,1248.35094 1003.50519,1248.85094 995.975186,1249.46094 L995.965186,1249.46094 Z" id="Path" fill="#2D3B4C"></path>
                <path d="M976.715186,1083.92094 C963.695186,1083.56094 953.225186,1080.01094 943.565186,1073.95094 C923.545186,1061.39094 903.515186,1048.83094 883.505186,1036.25094 C882.155186,1035.40094 880.755186,1034.59094 879.545186,1033.56094 C874.215186,1029.01094 868.305186,1022.38094 872.905186,1016.61094 C877.745186,1010.54094 882.795186,1018.52094 886.985186,1021.72094 C908.275186,1037.97094 928.625186,1056.05094 956.325186,1060.44094 C965.675186,1061.92094 975.405186,1061.07094 984.965186,1061.23094 C988.405186,1061.29094 993.785186,1058.23094 993.895186,1064.45094 C993.995186,1070.57094 996.615186,1078.56094 988.385186,1081.91094 C984.355186,1083.55094 979.625186,1083.46094 976.725186,1083.92094 L976.715186,1083.92094 Z" id="Path" fill="#5CA2A6"></path>
                <path d="M190.165186,1664.05094 C193.125186,1659.50094 195.685186,1654.84094 193.955186,1649.10094 C200.285186,1644.06094 207.335186,1646.94094 213.965186,1647.69094 C229.945186,1649.50094 245.805186,1652.34094 261.775186,1654.33094 C284.095186,1659.56094 306.405186,1664.80094 328.725186,1670.03094 C332.355186,1672.58094 337.735186,1675.45094 335.235186,1680.18094 C332.305186,1685.71094 325.645186,1685.79094 319.835186,1684.60094 C289.295186,1678.34094 258.765186,1672.03094 228.275186,1665.53094 C215.615186,1662.83094 202.845186,1665.00094 190.165186,1664.05094 L190.165186,1664.05094 Z" id="Path" fill="#2D3B4C"></path>
                <path d="M1666.46519,1589.05094 C1666.71519,1599.54094 1660.48519,1606.99094 1654.12519,1614.11094 C1643.98519,1625.47094 1631.45519,1634.73094 1624.22519,1648.65094 C1622.14519,1652.65094 1618.38519,1653.84094 1614.43519,1652.12094 C1610.18519,1650.26094 1607.58519,1645.74094 1609.36519,1641.89094 C1622.11519,1614.37094 1636.87519,1588.20094 1662.48519,1570.15094 C1669.77519,1575.90094 1670.74519,1580.52094 1666.45519,1589.06094 L1666.46519,1589.05094 Z" id="Path" fill="#2D3B4C"></path>
                <path d="M827.425186,1090.25094 C827.905186,1095.51094 828.075186,1100.73094 825.745186,1105.68094 C790.235186,1094.07094 753.965186,1083.62094 735.445186,1046.21094 L735.505186,1046.16094 C763.275186,1054.40094 789.325186,1066.36094 813.605186,1082.20094 C818.065186,1085.11094 822.815186,1087.58094 827.435186,1090.25094 L827.425186,1090.25094 Z" id="Path" fill="#2D3B4C"></path>
                <path d="M1630.10519,1048.17094 C1650.47519,1005.47094 1670.91519,962.800938 1691.09519,920.010938 C1692.51519,917.000938 1692.93519,913.910938 1697.06519,913.960339 C1701.03519,920.230938 1707.21519,925.140938 1708.69519,932.940938 C1702.29519,933.030938 1700.47519,938.320938 1697.96519,942.620938 C1677.38519,977.900938 1656.89519,1013.22094 1636.37519,1048.53094 C1634.29519,1052.12094 1632.46519,1055.91094 1628.27519,1057.62094 C1628.88519,1054.47094 1629.48519,1051.32094 1630.09519,1048.16094 L1630.10519,1048.17094 Z" id="Path" fill="#FBFDFD"></path>
                <path d="M775.845186,1280.14094 C766.925186,1280.14094 757.995186,1280.10094 749.075186,1280.16094 C744.575186,1280.19094 743.155186,1278.55094 745.635186,1274.45094 C746.295186,1273.36094 746.875186,1272.22094 747.505186,1271.11094 C754.235186,1259.18094 760.675186,1243.25094 774.845186,1243.05094 C789.675186,1242.84094 795.095186,1260.51094 803.735186,1271.12094 C807.825186,1276.15094 808.225186,1281.16094 798.795186,1280.59094 C791.175186,1280.13094 783.495186,1280.50094 775.845186,1280.50094 C775.845186,1280.39094 775.845186,1280.27094 775.845186,1280.16094 L775.845186,1280.14094 Z" id="Path" fill="#5CA2A6"></path>
                <path d="M445.185186,1942.99094 C445.255186,1956.56094 440.065186,1960.29094 428.975186,1956.10094 C410.055186,1948.94094 408.775186,1945.46094 418.315186,1927.88094 C424.565186,1916.37094 430.605186,1904.75094 436.905186,1893.27094 C437.715186,1891.80094 439.545186,1890.90094 440.905186,1889.74094 C441.505186,1891.41094 442.605186,1893.07094 442.635186,1894.75094 C442.985186,1911.34094 442.535186,1927.97094 445.175186,1942.99094 L445.185186,1942.99094 Z" id="Path" fill="#D48D4C"></path>
                <path d="M443.785186,1219.91094 C445.135186,1210.62094 446.475186,1201.32094 447.825186,1192.03094 C469.355186,1215.41094 481.295186,1242.54094 480.165186,1274.77094 C480.105186,1276.58094 480.155186,1279.41094 477.675186,1278.92094 C475.945186,1278.58094 474.185186,1276.34094 473.205186,1274.53094 C463.305186,1256.37094 453.575186,1238.13094 443.785186,1219.91094 Z" id="Path" fill="#2D3B4C"></path>
                <path d="M869.785186,1121.15094 C870.145186,1103.57094 871.375186,1102.49094 884.645186,1110.39094 C902.155186,1120.82094 921.175186,1128.87094 936.675186,1142.54094 C938.175186,1143.86094 941.525186,1144.24094 940.285186,1147.14094 C939.975186,1147.87094 936.705186,1147.74094 934.915186,1147.39094 C917.725186,1143.95094 900.595186,1140.15094 883.365186,1136.93094 C873.385186,1135.06094 867.015186,1131.09094 869.775186,1121.15094 L869.785186,1121.15094 Z" id="Path" fill="#2D3B4C"></path>
                <path d="M825.855186,1113.49094 C825.145186,1118.58094 824.435186,1123.66094 823.735186,1128.75094 C795.315186,1123.79094 769.695186,1112.17094 746.085186,1095.87094 C744.185186,1094.56094 741.005186,1092.86094 742.645186,1089.92094 C744.115186,1087.30094 747.225186,1088.60094 749.645186,1089.08094 C770.715186,1093.31094 790.185186,1102.30094 810.255186,1109.52094 C815.345186,1111.35094 820.215186,1113.89094 825.855186,1113.48094 L825.855186,1113.49094 Z" id="Path" fill="#2D3B4C"></path>
                <path d="M862.235186,1261.72094 C862.845186,1252.44094 863.515186,1241.99094 864.225186,1231.54094 C864.375186,1229.33094 864.355186,1226.72094 866.895186,1225.95094 C869.655186,1225.11094 870.535186,1227.98094 871.955186,1229.50094 C882.355186,1240.70094 888.205186,1254.47094 893.595186,1268.45094 C896.535186,1276.08094 892.235186,1280.15094 885.485186,1281.63094 C869.405186,1285.15094 862.165186,1279.13094 862.235186,1261.72094 L862.235186,1261.72094 Z" id="Path" fill="#2D3B4C"></path>
                <path d="M1666.46519,1589.05094 C1666.35519,1582.49094 1665.38519,1576.12094 1662.49519,1570.14094 C1664.71519,1563.60094 1665.95519,1555.87094 1673.27519,1553.27094 C1679.06519,1551.21094 1683.33519,1556.10094 1687.03519,1559.94094 C1694.91519,1568.11094 1687.37519,1573.95094 1683.07519,1579.52094 C1679.07519,1584.69094 1673.98519,1589.36094 1666.47519,1589.05094 L1666.46519,1589.05094 Z" id="Path" fill="#5CA2A6"></path>
                <path d="M1274.75519,1230.37094 C1293.08519,1206.76094 1311.39519,1183.14094 1329.78519,1159.58094 C1330.65519,1158.47094 1333.13519,1157.02094 1333.34519,1157.24094 C1335.12519,1159.05094 1333.52519,1160.78094 1332.51519,1162.23094 C1316.16519,1185.70094 1299.74519,1209.12094 1283.34519,1232.56094 C1280.48519,1231.83094 1277.61519,1231.10094 1274.75519,1230.37094 Z" id="Path" fill="#2D3B4C"></path>
                <path d="M1713.22519,1714.77094 C1711.94519,1719.13094 1715.07519,1721.85094 1717.03519,1725.00094 C1708.07519,1727.24094 1699.42519,1723.54094 1690.56519,1723.53094 C1689.40519,1723.53094 1688.25519,1722.07094 1687.09519,1721.28094 C1688.34519,1720.39094 1689.49519,1718.98094 1690.87519,1718.71094 C1698.29519,1717.24094 1705.77519,1716.05094 1713.23519,1714.76094 L1713.22519,1714.77094 Z" id="Path" fill="#2D3B4C"></path>
                <path d="M1309.54519,792.640938 C1310.62519,792.540938 1311.70519,792.430938 1312.78519,792.330938 C1313.97519,800.460938 1316.32519,808.580938 1313.01519,816.740938 C1312.26519,818.590938 1312.55519,822.010938 1309.49519,821.240938 C1306.91519,820.590938 1307.67519,817.530938 1307.81519,815.400938 C1308.32519,807.810938 1308.95519,800.220938 1309.54519,792.640938 Z" id="Path" fill="#2D3B4C"></path>
                <path d="M418.495186,1361.68094 C421.665186,1361.29094 424.825186,1360.90094 427.995186,1360.51094 C427.655186,1364.68094 430.465186,1371.50094 426.255186,1372.27094 C422.475186,1372.96094 420.225186,1366.07094 418.495186,1361.68094 Z" id="Path" fill="#2D3B4C"></path>
                <path d="M887.185186,1304.02094 C876.905186,1306.51094 866.605186,1305.58094 856.295186,1304.23094 C866.585186,1302.53094 876.875186,1302.51094 887.185186,1304.02094 Z" id="Path" fill="#A8A8B1"></path>
                <path d="M1405.46519,1032.81094 C1405.69519,1028.56094 1404.85519,1024.11094 1407.79519,1020.36094 C1409.96519,1025.02094 1409.71519,1029.86094 1408.84519,1034.74094 C1407.72519,1034.10094 1406.59519,1033.45094 1405.47519,1032.81094 L1405.46519,1032.81094 Z" id="Path" fill="#2D3B4C"></path>
                <path d="M284.375186,1558.69094 C283.335186,1557.22094 282.305186,1555.74094 281.265186,1554.27094 C283.965186,1552.58094 285.165186,1554.89094 286.705186,1556.31094 C285.935186,1557.10094 285.155186,1557.90094 284.385186,1558.69094 L284.375186,1558.69094 Z" id="Path" fill="#2D3B4C"></path>
                <path d="M725.205186,896.290938 C726.045186,897.650938 726.885186,899.010938 727.725186,900.370938 L727.845186,900.240938 C725.205186,900.170938 723.155186,899.040938 721.725186,896.800938 C722.885186,896.630938 724.045186,896.460938 725.205186,896.290938 Z" id="Path" fill="#2D3B4C"></path>
                <path d="M1000.37519,80.7409377 C1000.32519,79.4609377 1000.27519,78.1909377 1000.23519,76.9109377 C1000.28519,78.1909377 1000.33519,79.4609377 1000.37519,80.7409377 Z" id="Path" fill="#908F9B"></path>
                <path d="M1150.20519,1303.95094 C1148.78519,1305.12094 1147.42519,1305.15094 1146.13519,1303.76094 C1147.58519,1301.96094 1148.93519,1302.05094 1150.20519,1303.95094 Z" id="Path" fill="#2D3B4C"></path>
                <path d="M1142.43519,1303.24094 C1141.15519,1303.36094 1139.87519,1303.47094 1138.58519,1303.59094 C1137.53519,1304.24094 1136.81519,1303.98094 1136.44519,1302.79094 C1138.57519,1301.13094 1140.58519,1301.11094 1142.43519,1303.24094 Z" id="Path" fill="#2D3B4C"></path>
                <path d="M510.625186,1304.78094 C508.805186,1304.86094 506.995186,1304.94094 505.175186,1305.02094 C507.035186,1304.46094 508.905186,1303.90094 510.765186,1303.33094 C511.425186,1303.72094 511.625186,1304.06094 511.365186,1304.36094 C511.125186,1304.64094 510.885186,1304.77094 510.625186,1304.78094 Z" id="Path" fill="#5C5B6D"></path>
                <path d="M504.765186,1305.10094 C503.565186,1305.48094 502.375186,1305.85094 501.175186,1306.23094 C502.375186,1305.85094 503.565186,1305.48094 504.765186,1305.10094 Z" id="Path" fill="#5C5B6D"></path>
                <path d="M424.885186,1313.05094 C425.785186,1310.13094 427.005186,1311.28094 428.245186,1312.78094 C427.125186,1312.87094 426.005186,1312.96094 424.885186,1313.05094 Z" id="Path" fill="#5C5B6D"></path>
                <path d="M1136.45519,1302.79094 C1137.16519,1303.06094 1137.88519,1303.32094 1138.59519,1303.59094 C1137.67519,1303.72094 1136.75519,1303.85094 1135.83519,1303.99094 C1135.72519,1303.43094 1135.93519,1303.03094 1136.45519,1302.80094 L1136.45519,1302.79094 Z" id="Path" fill="#A8A8B1"></path>
                <path d="M510.625186,1304.78094 C510.645186,1304.30094 510.695186,1303.81094 510.765186,1303.34094 C511.495186,1303.47094 512.225186,1303.60094 512.945186,1303.72094 C512.175186,1304.07094 511.395186,1304.43094 510.625186,1304.78094 L510.625186,1304.78094 Z" id="Path" fill="#A8A8B1"></path>
                <path d="M735.455186,1046.21094 C735.265186,1046.10094 735.065186,1045.99094 734.875186,1045.88094 C735.085186,1045.97094 735.305186,1046.07094 735.515186,1046.16094 C735.515186,1046.16094 735.455186,1046.21094 735.455186,1046.21094 Z" id="Path" fill="#2D3B4C"></path>
                <path d="M1833.90519,1903.42094 C1829.22519,1923.99094 1841.35519,1935.08094 1855.67519,1944.90094 C1859.65519,1947.63094 1863.89519,1948.22094 1868.07519,1945.07094 C1869.68519,1943.85094 1871.27519,1940.77094 1873.31519,1943.71094 C1874.28519,1945.11094 1873.93519,1948.10094 1873.15519,1949.93094 C1867.90519,1962.15094 1854.25519,1964.60094 1845.07519,1955.43094 C1827.08519,1937.46094 1816.52519,1917.40094 1818.92519,1890.44094 C1820.93519,1867.91094 1809.63519,1849.06094 1793.70519,1833.47094 C1769.64519,1809.93094 1739.56519,1795.14094 1711.48519,1777.45094 C1707.51519,1774.95094 1703.90519,1771.85094 1700.13519,1769.03094 C1705.47519,1767.03094 1709.81519,1770.49094 1714.32519,1772.04094 C1745.40519,1782.70094 1775.16519,1795.95094 1798.18519,1820.44094 C1820.19519,1843.86094 1832.76519,1871.51094 1833.90519,1903.42094 L1833.90519,1903.42094 Z" id="Path" fill="#0B082D"></path>
                <path d="M1823.58519,1725.30094 C1846.84519,1730.28094 1863.21519,1745.56094 1874.51519,1765.26094 C1896.75519,1804.04094 1916.65519,1844.09094 1932.57519,1885.98094 C1933.81519,1889.24094 1937.28519,1894.08094 1933.68519,1896.07094 C1931.19519,1897.45094 1929.19519,1891.64094 1927.57519,1888.71094 C1907.58519,1852.69094 1887.20519,1816.89094 1868.01519,1780.45094 C1857.16519,1759.85094 1844.46519,1741.79094 1822.78519,1731.54094 C1820.74519,1730.57094 1817.62519,1729.67094 1817.98519,1726.52094 C1818.04519,1725.96094 1821.25519,1725.78094 1823.59519,1725.30094 L1823.58519,1725.30094 Z" id="Path" fill="#0B082D"></path>
                <path d="M1866.57519,1639.04094 C1882.26519,1639.83094 1896.39519,1643.88094 1910.32519,1648.54094 C1915.92519,1650.41094 1918.03519,1649.15094 1917.90519,1643.28094 C1917.86519,1641.38094 1916.28519,1638.34094 1919.22519,1637.74094 C1920.14519,1637.55094 1922.25519,1640.68094 1923.02519,1642.61094 C1924.78519,1647.01094 1926.71519,1651.50094 1927.38519,1656.13094 C1928.63519,1664.85094 1928.69519,1675.86094 1922.25519,1680.36094 C1916.69519,1684.25094 1910.66519,1674.15094 1904.97519,1670.22094 C1892.35519,1661.49094 1879.89519,1652.61094 1865.78519,1646.34094 C1862.70519,1644.97094 1859.89519,1642.98094 1856.96519,1641.28094 C1859.70519,1636.83094 1864.13519,1640.75094 1866.58519,1639.04094 L1866.57519,1639.04094 Z" id="Path" fill="#0B082D"></path>
                <path d="M1760.49519,1568.34094 C1760.57519,1568.07094 1760.61519,1567.76094 1760.76519,1567.54094 C1760.83519,1567.44094 1761.14519,1567.51094 1761.34519,1567.50094 C1761.00519,1567.72094 1760.66519,1567.94094 1760.32519,1568.16094 C1760.32519,1568.16094 1760.48519,1568.35094 1760.48519,1568.35094 L1760.49519,1568.34094 Z" id="Path" fill="#0B082D"></path>
                <path d="M1816.04519,1349.44094 C1815.64519,1349.86094 1815.23519,1350.29094 1814.83519,1350.71094 C1814.19519,1348.98094 1815.23519,1349.32094 1816.21519,1349.58094 C1816.21519,1349.58094 1816.04519,1349.45094 1816.04519,1349.45094 L1816.04519,1349.44094 Z" id="Path" fill="#0B082D"></path>
                <path d="M1816.21519,1349.57094 C1816.40519,1349.19094 1816.59519,1348.82094 1816.77519,1348.44094 C1816.77519,1348.63094 1816.87519,1348.91094 1816.77519,1348.99094 C1816.57519,1349.18094 1816.28519,1349.29094 1816.02519,1349.43094 C1816.02519,1349.43094 1816.20519,1349.57094 1816.20519,1349.57094 L1816.21519,1349.57094 Z" id="Path" fill="#0B082D"></path>
                <path d="M773.745186,418.440938 C774.535186,423.450938 771.645186,427.190938 768.655186,430.290938 C731.845186,468.280938 706.865186,513.800938 684.755186,561.190938 C683.495186,563.900938 682.505186,569.360938 679.755186,568.190938 C676.935186,566.990938 680.455186,562.770938 681.455186,560.030938 C699.455186,510.680938 721.455186,463.750938 762.075186,428.240938 C765.895186,424.900938 769.925186,421.790938 773.855186,418.580938 L773.745186,418.440938 L773.745186,418.440938 Z" id="Path" fill="#FBFDFD"></path>
                <path d="M971.615186,285.370938 C967.595186,295.160938 961.355186,302.410938 953.215186,307.770938 C930.395186,322.800938 905.205186,333.060938 880.085186,343.420938 C870.635186,347.320938 861.205186,351.280938 851.705186,355.060938 C849.845186,355.800938 847.065186,358.160938 845.875186,355.700938 C844.805186,353.480938 848.085186,352.270938 849.985186,351.270938 C873.155186,339.030938 896.395186,326.910938 919.545186,314.630938 C935.605186,306.110938 952.365186,298.670938 965.365186,285.300938 C966.595186,284.040938 968.635186,283.560938 970.295186,282.720938 C970.795186,283.720938 971.295186,284.720938 971.625186,285.370938 L971.615186,285.370938 Z" id="Path" fill="#FBFDFD"></path>
                <path d="M846.245186,420.340938 C847.615186,420.850938 848.985186,421.350938 850.345186,421.860938 C847.345186,422.720938 844.385186,426.040938 841.405186,423.180938 C840.715186,422.510938 844.085186,420.590938 846.245186,420.340938 Z" id="Path" fill="#A8A8B1"></path>
                <path d="M672.175186,499.240938 C672.315186,498.970938 672.455186,498.690938 672.595186,498.420938 C672.405186,498.640938 672.225186,498.870938 672.035186,499.090938 C672.035186,499.090938 672.175186,499.250938 672.175186,499.250938 L672.175186,499.240938 Z" id="Path" fill="#0B082D"></path>
                <polygon id="Path" fill="#0B082D" points="814.115186 522.170938 813.595186 522.650938 814.255186 522.300938"></polygon>
                <path d="M816.035186,520.230938 C815.395186,520.880938 814.755186,521.520938 814.115186,522.170938 C814.115186,522.170938 814.255186,522.300938 814.255186,522.300938 C814.915186,521.660938 815.565186,521.020938 816.225186,520.380938 L816.035186,520.230938 L816.035186,520.230938 Z" id="Path" fill="#0B082D"></path>
                <path d="M816.225186,520.380938 C816.465186,519.380938 816.695186,518.390938 816.925186,517.390938 C817.405186,517.840938 817.885186,518.290938 818.375186,518.740938 C817.595186,519.240938 816.815186,519.740938 816.035186,520.230938 C816.035186,520.230938 816.225186,520.380938 816.225186,520.380938 L816.225186,520.380938 Z" id="Path" fill="#0B082D"></path>
                <path d="M773.855186,418.580938 C774.025186,418.400938 774.195186,418.230938 774.365186,418.050938 C774.165186,418.180938 773.955186,418.310938 773.755186,418.440938 C773.755186,418.440938 773.855186,418.580938 773.855186,418.580938 Z" id="Path" fill="#FBFDFD"></path>
                <polygon id="Path" fill="#2D3B4C" points="727.725186 900.360938 728.295186 900.790938 727.845186 900.240938"></polygon>
                <path d="M261.775186,1654.33094 C246.675186,1660.22094 232.135186,1652.72094 217.285186,1652.35094 C209.485186,1652.15094 201.735186,1650.24094 193.955186,1649.11094 C154.185186,1643.25094 117.565186,1649.45094 86.4451858,1677.00094 C81.6551858,1681.24094 79.0451858,1679.65094 78.9651858,1673.53094 C78.7451858,1656.44094 81.4051858,1639.91094 88.8451858,1624.35094 C91.3451858,1624.40094 93.8351858,1624.45094 96.3251858,1624.50094 C99.5251858,1624.92094 102.725186,1625.52094 105.855186,1624.14094 C127.465186,1624.07094 149.075186,1624.00094 170.675186,1623.93094 C191.945186,1630.24094 213.325186,1636.25094 234.465186,1643.01094 C243.815186,1646.00094 252.675186,1650.51094 261.755186,1654.33094 L261.775186,1654.33094 Z" id="Path" fill="#0B082D"></path>
                <path d="M318.605186,1251.24094 C318.435186,1251.64094 318.095186,1253.49094 317.545186,1253.56094 C314.895186,1253.88094 314.775186,1251.34094 314.195186,1249.72094 C307.315186,1230.45094 300.535186,1211.14094 293.745186,1191.84094 C289.605186,1180.08094 285.425186,1168.33094 281.465186,1156.51094 C280.965186,1155.02094 281.665186,1153.12094 281.815186,1151.41094 C282.705186,1152.19094 283.975186,1152.79094 284.415186,1153.76094 C298.465186,1185.03094 310.225186,1217.11094 318.615186,1251.25094 L318.605186,1251.24094 Z" id="Path" fill="#FBFDFD"></path>
                <path d="M267.965186,1407.07094 C268.015186,1410.99094 265.685186,1410.87094 264.105186,1410.12094 C261.865186,1409.07094 259.825186,1407.42094 258.005186,1405.70094 C254.355186,1402.24094 250.905186,1398.55094 247.385186,1394.96094 C248.155186,1394.75094 249.215186,1394.11094 249.645186,1394.40094 C255.935186,1398.64094 262.135186,1403.00094 267.975186,1407.07094 L267.965186,1407.07094 Z" id="Path" fill="#5CA2A6"></path>
                <path d="M363.295186,1105.50094 C363.065186,1105.55094 362.825186,1105.61094 362.595186,1105.66094 C362.795186,1105.66094 362.995186,1105.66094 363.195186,1105.66094 C363.195186,1105.66094 363.295186,1105.50094 363.295186,1105.51094 L363.295186,1105.50094 Z" id="Path" fill="#0B082D"></path>
                <path d="M1587.58519,1005.64094 C1572.09519,969.140938 1579.20519,930.750938 1578.21519,893.040938 C1577.96519,883.470938 1578.32519,873.890938 1578.58519,864.310938 C1578.62519,862.720938 1577.60519,860.230938 1580.39519,859.850508 C1580.66519,859.810938 1581.47519,862.570938 1581.76519,864.090938 C1588.95519,902.500938 1591.61519,941.290938 1591.70519,980.310938 C1591.71519,986.020938 1591.12519,991.850938 1594.05519,997.170938 C1595.65519,1000.43094 1594.44519,1002.95094 1591.93519,1005.11094 C1590.55519,1005.86094 1589.09519,1005.93094 1587.59519,1005.63094 L1587.58519,1005.64094 Z" id="Path" fill="#0B082D"></path>
                <path d="M1591.43519,1003.87094 C1592.30519,1001.64094 1593.17519,999.410938 1594.05519,997.180938 C1596.79519,997.640938 1599.49519,993.050938 1601.67519,996.210938 C1603.01519,998.150938 1602.95519,1002.02094 1602.01519,1004.43094 C1588.12519,1040.06094 1574.00519,1075.59094 1559.83519,1111.11094 C1559.36519,1112.30094 1557.08519,1114.03094 1556.83519,1113.85094 C1554.38519,1112.08094 1556.07519,1109.86094 1556.75519,1107.95094 C1565.46519,1083.32094 1574.35519,1058.74094 1582.96519,1034.07094 C1585.05519,1028.08094 1586.30519,1021.80094 1587.94519,1015.65094 C1589.37519,1011.80094 1588.46519,1007.26094 1591.44519,1003.87094 L1591.43519,1003.87094 Z" id="Path" fill="#FBFDFD"></path>
                <path d="M1591.43519,1003.87094 C1591.59519,1008.19094 1590.28519,1012.08094 1587.93519,1015.66094 C1587.81519,1012.31094 1587.70519,1008.97094 1587.58519,1005.64094 C1588.86519,1005.06094 1590.15519,1004.47094 1591.43519,1003.88094 L1591.43519,1003.87094 Z" id="Path" fill="#908F9B"></path>
                <path d="M142.225186,1788.81094 C153.155186,1774.79094 164.095186,1760.77094 175.025186,1746.76094 C189.725186,1738.65094 200.415186,1724.86094 216.075186,1718.06094 C222.415186,1715.31094 228.415186,1711.74094 234.565186,1708.54094 C236.565186,1708.03094 238.555186,1707.52094 240.545186,1707.01094 C242.885186,1708.92094 248.705186,1710.52094 242.235186,1713.97094 C205.725186,1733.42094 175.085186,1760.38094 145.425186,1788.67094 C144.845186,1789.23094 143.305186,1788.79094 142.215186,1788.82094 L142.225186,1788.81094 Z" id="Path" fill="#FBFDFD"></path>
                <path d="M275.045186,1920.28094 C269.205186,1883.73094 293.565186,1864.94094 318.425186,1846.48094 C319.295186,1845.84094 321.235186,1845.28094 321.715186,1845.72094 C323.405186,1847.31094 321.415186,1848.39094 320.625186,1849.59094 C320.285186,1850.11094 319.795186,1850.57094 319.295186,1850.96094 C291.165186,1872.79094 280.385186,1901.88094 282.825186,1936.79094 C283.035186,1939.81094 285.015186,1946.10094 279.475186,1945.98094 C274.295186,1945.87094 276.645186,1939.89094 276.155186,1936.51094 C275.385186,1931.16094 275.375186,1925.70094 275.055186,1920.28094 L275.045186,1920.28094 Z" id="Path" fill="#FBFDFD"></path>
                <path d="M1070.91519,394.040938 C1070.56519,393.560938 1070.20519,393.070938 1069.85519,392.590938 C1070.63519,392.640938 1071.41519,392.690938 1072.19519,392.740938 C1071.78519,393.180938 1071.35519,393.610938 1070.91519,394.040938 Z" id="Path" fill="#0B082D"></path>
                <path d="M1213.39519,877.270938 C1213.30519,877.470938 1213.21519,877.670938 1213.12519,877.870938 C1213.22519,877.680938 1213.32519,877.480938 1213.42519,877.290938 C1213.42519,877.290938 1213.40519,877.270938 1213.40519,877.270938 L1213.39519,877.270938 Z" id="Path" fill="#0B082D"></path>
                <path d="M771.975186,869.570938 C771.755186,869.480938 771.545186,869.390938 771.325186,869.300938 C771.525186,869.410938 771.715186,869.520938 771.915186,869.620938 L771.975186,869.560938 L771.975186,869.570938 Z" id="Path" fill="#0B082D"></path>
                <polygon id="Path" fill="#0B082D" points="773.845186 871.570938 774.285186 871.970938 773.915186 871.500938"></polygon>
                <path d="M771.915186,869.630938 C772.555186,870.280938 773.195186,870.920938 773.845186,871.570938 C773.845186,871.570938 773.915186,871.500938 773.915186,871.500938 C773.265186,870.860938 772.625186,870.210938 771.975186,869.570938 C771.975186,869.570938 771.915186,869.630938 771.915186,869.630938 Z" id="Path" fill="#0B082D"></path>
                <path d="M377.175186,1881.60094 C378.055186,1881.00094 379.555186,1879.75094 379.705186,1879.90094 C381.125186,1881.29094 380.185186,1882.48094 379.055186,1883.56094 C378.425186,1882.91094 377.805186,1882.26094 377.175186,1881.60094 Z" id="Path" fill="#0B082D"></path>
                <polygon id="Path" fill="#0B082D" points="1575.37519 1845.96094 1575.15519 1845.51094 1575.66519 1845.55094"></polygon>
                <path d="M105.875186,1624.13094 C102.775186,1626.21094 99.5651858,1625.64094 96.3451858,1624.49094 C99.5251858,1624.37094 102.705186,1624.25094 105.875186,1624.13094 Z" id="Path" fill="#5CA2A6"></path>
            </g>
            <path d="M955.300643,1662.1555 L1033.47746,1662.1555 L1048.87195,1688.79687 L1016.56492,1688.79687 L994.343877,1688.79687 L968.224136,1733.99915 L883,1733.99915 L924.513375,1662.1555 L955.300643,1662.1555 Z M1055.69765,1662.1572 L1081.81825,1707.35863 L1059.59805,1707.35948 L1005.83967,1707.35863 L990.444327,1733.99915 L992.974133,1733.99915 L1128,1734 L1086.48662,1662.1555 L1055.69765,1662.1572 Z M963.556609,1688.79602 L939.907009,1688.79602 L929.180902,1707.35777 L952.830502,1707.35863 L963.556609,1688.79602 Z M966.411165,1642.92775 L940.349384,1642.92775 L935.623897,1642.92775 L1005.49957,1522 L1075.3744,1642.92775 L966.411165,1642.92775 Z M1005.49872,1575.2819 L981.804799,1616.28723 L1029.19264,1616.28723 L1005.49872,1575.2819 L1005.49872,1575.2819 Z" id="Fill-5" fill="#FFFFFF"></path>
        </g>
    </g>
</svg>