<?xml version="1.0" encoding="UTF-8"?>
<svg width="390px" height="70px" viewBox="0 0 390 70" version="1.1" xmlns="http://www.w3.org/2000/svg" xmlns:xlink="http://www.w3.org/1999/xlink">
    <title>Group 14 Copy 4@1x</title>
    <defs>
        <polygon id="path-1" points="0.000131506849 0.447458491 95.8337753 0.447458491 95.8337753 69 0.000131506849 69"></polygon>
    </defs>
    <g id="Page-1" stroke="none" stroke-width="1" fill="none" fill-rule="evenodd">
        <g id="Desktop-HD" transform="translate(-948.000000, -3486.000000)">
            <g id="Group-14-Copy-4" transform="translate(948.000000, 3486.000000)">
                <path d="M115.211994,70 C105.651736,70 99,65.2409931 99,55.3098687 L99,16.3114443 C99,6.89753163 104.715767,1 114.278011,1 L144,1 L144,11.0352256 L117.812718,11.0352256 C112.406072,11.0352256 109.079873,13.1034137 109.079873,18.7940606 L109.079873,30.5871473 L138.645647,30.5871473 L138.645647,40.5176128 L109.079873,40.5176128 L109.079873,52.1044736 C109.079873,57.8972452 112.406072,59.9660921 117.915317,59.9660921 L144,59.9660921 L144,70 L115.211994,70 Z" id="Fill-1" fill="#000000"></path>
                <path d="M222.951766,11.0352256 C216.119236,11.0352256 214.162916,13.417694 214.099253,17.6324755 C214.076042,19.178181 214.099916,21.0045643 214.099916,23.0338792 C214.099916,25.2068274 214.723949,27.1728909 216.493258,28.6210838 C218.474115,30.1714013 220.555772,30.1714013 222.951766,30.1714013 L231.686237,30.1714013 C240.639551,30.1714013 249,35.1379518 249,44.3449797 L249,55.3098687 C249,65.0354261 242.525576,70 233.050356,70 L205.090234,70 L205.090234,59.9660921 L230.030992,59.9660921 C239.714444,59.9660921 238.776073,54.897417 238.776073,47.2433421 C238.776073,41.6561375 235.444361,40.2072857 230.34334,40.2072857 L219.619391,40.2072857 C211.184668,40.2072857 204,34.6872857 204,25.6858248 L204,15.5860301 C204,11.1373502 205.713604,6.99043208 209.138821,4.07955121 C211.705911,1.89869659 215.452761,1 219.408506,1 L245.734604,1 L245.734604,11.0352256 L222.951766,11.0352256 Z" id="Fill-3" fill="#000000"></path>
                <polygon id="Fill-5" fill="#000000" points="275.591877 11.0352256 275.591877 70 265.452064 70 265.452064 11.0352256 250 11.0352256 250 1 291 1 291 11.0352256"></polygon>
                <path d="M190.245423,48.1881595 C190.245423,43.1208021 187.46561,40.6381857 182.521388,40.5182717 L160.992762,40.5182717 L160.992762,59.9753163 L182.521388,59.9753163 C187.363262,60.0853473 190.245423,57.913058 190.245423,52.8430652 L190.245423,48.1881595 Z M160.94618,11.0352256 L160.94618,30.5871473 L177.182204,30.588465 C181.920418,30.588465 185.112905,28.6467797 185.112905,23.5781046 L185.112905,18.5087706 C185.112905,13.2325519 181.71244,11.0352256 176.871878,11.0352256 L160.94618,11.0352256 Z M309.466403,70 C299.98932,70 293.395711,65.2416519 293.395711,55.3105276 L293.395711,16.3114443 C293.395711,6.89753163 299.062935,1 308.540673,1 L338,1 L338,11.0352256 L312.044143,11.0352256 C306.684622,11.0352256 303.389785,13.1034137 303.389785,18.7940606 L303.389785,30.5871473 L332.693621,30.5871473 L332.693621,40.5182717 L303.389785,40.5182717 L303.389785,52.1044736 C303.389785,57.8972452 306.684622,59.9660921 312.144524,59.9660921 L338,59.9660921 L338,70 L309.466403,70 Z M192.795608,32.737694 C197.781164,35.1162091 200.238841,39.5780664 200.238841,46.4309573 L200.238841,54.1726617 C200.238841,63.7947768 195.397623,70 185.508522,70 L151,70 L151,1 L175.669283,1 L180.496723,1.12913822 C190.324153,1.12913822 195.122726,7.4727238 195.122726,16.7495918 L195.122726,23.0997661 C195.122726,27.3857054 194.73367,30.2412413 192.895988,32.647429 L192.795608,32.737694 Z" id="Fill-7" fill="#000000"></path>
                <path d="M346,11.0365433 L346,1 L374.664442,1 C383.000566,1 389.796776,5.65490571 389.897732,14.5516066 C390,19.5168393 390,21.0480497 390,26.0126235 C390,35.2203103 384.339223,40.8075149 375.177747,40.8075149 L355.984207,40.8075149 L355.984207,70 L346,70 L346,30.563428 L371.781281,30.5660635 C377.236866,30.5660635 380.017104,30.0501695 380.017104,24.3614992 L380.017104,17.9665218 C380.017104,13.2068561 376.309902,11.0352256 371.988438,11.0352256 L346,11.0365433 Z" id="Fill-9" fill="#000000"></path>
                <g id="Group-13">
                    <mask id="mask-2" fill="white">
                        <use xlink:href="#path-1"></use>
                    </mask>
                    <g id="Clip-12"></g>
                    <path d="M85.5696658,0.761213208 L73.7235288,51.6461094 L73.2218301,55.8629208 L72.7378849,51.5224302 L63.2128438,7.86105283 C62.3889534,3.56873208 60.0704877,0.447458491 55.2172274,0.447458491 L55.1843507,0.447458491 C50.3304329,0.447458491 48.0126247,3.56873208 47.1880767,7.86105283 L37.6531726,51.5673453 L37.1422685,55.8629208 L36.6662137,51.6018453 L27.8079123,13.5639679 C25.9924603,5.04637358 20.1719671,0.758609434 11.4004603,0.758609434 L0.000131506849,0.731920755 L0.000131506849,10.3932226 L11.1229808,10.388666 C14.5171726,10.388666 17.3544329,12.7301094 18.0823233,15.8689585 L28.7402959,61.7428925 C29.6680767,65.6264208 32.5270356,69.0002604 36.8641315,69.0002604 C41.1999123,69.0002604 44.5513644,66.3359491 45.3752548,62.3502226 L54.845063,18.8463736 L55.2132822,15.7543925 L55.5578301,18.8554868 L65.0256658,62.3502226 C65.8502137,66.3359491 69.2010082,69.0002604 73.536789,69.0002604 C77.8745425,69.0002604 80.7328438,65.6264208 81.6606247,61.7428925 L95.8337753,0.761213208 L85.5696658,0.761213208 Z" id="Fill-11" fill="#000000" mask="url(#mask-2)"></path>
                </g>
            </g>
        </g>
    </g>
</svg>